<svg class="main-svg" xmlns="http://www.w3.org/2000/svg" xmlns:xlink="http://www.w3.org/1999/xlink" width="1000" height="800" style="" viewBox="0 0 1000 800"><rect x="0" y="0" width="1000" height="800" style="fill: rgb(255, 255, 255); fill-opacity: 1;"/><defs id="defs-befec2"><g class="clips"><clipPath id="clipbefec2xyplot" class="plotclip"><rect width="835" height="433.18799999999993"/></clipPath><clipPath id="clipbefec2x2y2plot" class="plotclip"><rect width="835" height="82.512"/></clipPath><clipPath class="axesclip" id="clipbefec2x"><rect x="110" y="0" width="835" height="800"/></clipPath><clipPath class="axesclip" id="clipbefec2y"><rect x="0" y="110.00000000000006" width="1000" height="433.18799999999993"/></clipPath><clipPath class="axesclip" id="clipbefec2xy"><rect x="110" y="110.00000000000006" width="835" height="433.18799999999993"/></clipPath><clipPath class="axesclip" id="clipbefec2y2"><rect x="0" y="567.488" width="1000" height="82.512"/></clipPath><clipPath class="axesclip" id="clipbefec2xy2"><rect x="110" y="567.488" width="835" height="82.512"/></clipPath><clipPath class="axesclip" id="clipbefec2x2"><rect x="110" y="0" width="835" height="800"/></clipPath><clipPath class="axesclip" id="clipbefec2x2y"><rect x="110" y="110.00000000000006" width="835" height="433.18799999999993"/></clipPath><clipPath class="axesclip" id="clipbefec2x2y2"><rect x="110" y="567.488" width="835" height="82.512"/></clipPath></g><g class="gradients"/><g class="patterns"/></defs><g class="bglayer"/><g class="layer-below"><g class="imagelayer"/><g class="shapelayer"/></g><g class="cartesianlayer"><g class="subplot xy"><g class="layer-subplot"><g class="shapelayer"><g class="shape-group" data-index="0" clip-path="url(#clipbefec2xy)"><path data-index="0" fill-rule="evenodd" d="M111.98,543.19L111.98,110.00000000000006" style="opacity: 1; stroke: rgb(0, 0, 0); stroke-opacity: 0.22; fill: rgb(0, 0, 0); fill-opacity: 0; stroke-dasharray: 3px, 3px; stroke-width: 1.2px;"/></g><g class="shape-group" data-index="1" clip-path="url(#clipbefec2xy)"><path data-index="1" fill-rule="evenodd" d="M250.49,543.19H448.35V110.00000000000006H250.49Z" style="opacity: 1; stroke: rgb(0, 0, 0); stroke-opacity: 0; fill: rgb(0, 0, 0); fill-opacity: 0.055; stroke-width: 0px;"/></g><g class="shape-group" data-index="2" clip-path="url(#clipbefec2xy)"><path data-index="2" fill-rule="evenodd" d="M250.49,543.19L250.49,110.00000000000006" style="opacity: 1; stroke: rgb(0, 0, 0); stroke-opacity: 0.22; fill: rgb(0, 0, 0); fill-opacity: 0; stroke-dasharray: 3px, 3px; stroke-width: 1.2px;"/></g><g class="shape-group" data-index="3" clip-path="url(#clipbefec2xy)"><path data-index="3" fill-rule="evenodd" d="M448.35,543.19L448.35,110.00000000000006" style="opacity: 1; stroke: rgb(0, 0, 0); stroke-opacity: 0.22; fill: rgb(0, 0, 0); fill-opacity: 0; stroke-dasharray: 3px, 3px; stroke-width: 1.2px;"/></g><g class="shape-group" data-index="4" clip-path="url(#clipbefec2xy)"><path data-index="4" fill-rule="evenodd" d="M547.29,543.19L547.29,110.00000000000006" style="opacity: 1; stroke: rgb(0, 0, 0); stroke-opacity: 0.22; fill: rgb(0, 0, 0); fill-opacity: 0; stroke-dasharray: 3px, 3px; stroke-width: 1.2px;"/></g><g class="shape-group" data-index="5" clip-path="url(#clipbefec2xy)"><path data-index="5" fill-rule="evenodd" d="M646.22,543.19L646.22,110.00000000000006" style="opacity: 1; stroke: rgb(0, 0, 0); stroke-opacity: 0.22; fill: rgb(0, 0, 0); fill-opacity: 0; stroke-dasharray: 3px, 3px; stroke-width: 1.2px;"/></g><g class="shape-group" data-index="6" clip-path="url(#clipbefec2xy)"><path data-index="6" fill-rule="evenodd" d="M745.15,543.19L745.15,110.00000000000006" style="opacity: 1; stroke: rgb(0, 0, 0); stroke-opacity: 0.22; fill: rgb(0, 0, 0); fill-opacity: 0; stroke-dasharray: 3px, 3px; stroke-width: 1.2px;"/></g><g class="shape-group" data-index="7" clip-path="url(#clipbefec2xy)"><path data-index="7" fill-rule="evenodd" d="M844.09,543.19L844.09,110.00000000000006" style="opacity: 1; stroke: rgb(0, 0, 0); stroke-opacity: 0.22; fill: rgb(0, 0, 0); fill-opacity: 0; stroke-dasharray: 3px, 3px; stroke-width: 1.2px;"/></g></g><g class="imagelayer"/></g><g class="minor-gridlayer"><g class="x"/><g class="y"/></g><g class="gridlayer"><g class="x"/><g class="y"/></g><g class="zerolinelayer"/><g class="layer-between"><g class="shapelayer"/><g class="imagelayer"/></g><path class="xlines-below"/><path class="ylines-below"/><g class="overlines-below"/><g class="xaxislayer-below"/><g class="yaxislayer-below"/><g class="overaxes-below"/><g class="overplot"><g class="xy" transform="translate(110,110.00000000000006)" clip-path="url(#clipbefec2xyplot)"><g class="scatterlayer mlayer"><g class="trace scatter trace7c3632" style="stroke-miterlimit: 2; opacity: 1;"><g class="fills"/><g class="errorbars"/><g class="lines"><path class="js-line" d="M11.87,236.35H31.66V245.47H51.45V316.7H71.23V316.7H91.02V316.7H110.81V316.7H130.59V316.7H150.38V316.7H170.17V316.7H189.95V316.7H209.74V316.7H229.53V316.7H249.31V316.7H269.1V316.7H288.89V316.7H308.67V316.7H328.46V316.7H348.25V316.7H368.03V316.7H387.82V316.7H407.61V316.7H427.39V316.7H447.18V316.7H466.97V316.7H486.75V316.7H506.54V403.31H526.33V403.31H546.11V403.31H565.9V403.31H585.69V403.31H605.47V403.31H625.26V403.31H645.05V403.31H664.83V403.31H684.62V403.31H704.41V403.31H724.19V403.31H743.98V403.31H763.77V403.31H783.55V403.31H803.34V403.31H823.13V403.31" style="vector-effect: none; fill: none; stroke: rgb(213, 94, 0); stroke-opacity: 1; stroke-width: 2.5px; opacity: 1;"/></g><g class="points"/><g class="text"/></g><g class="trace scatter tracec63912" style="stroke-miterlimit: 2; opacity: 1;"><g class="fills"/><g class="errorbars"/><g class="lines"/><g class="points"><path class="point plotly-customdata" transform="translate(11.87,236.35)" d="M4.5,0A4.5,4.5 0 1,1 0,-4.5A4.5,4.5 0 0,1 4.5,0Z" style="opacity: 1; stroke-width: 2px; fill: rgb(196, 196, 196); fill-opacity: 1; stroke: rgb(196, 196, 196); stroke-opacity: 1;"/><path class="point plotly-customdata" transform="translate(31.66,245.47)" d="M4.5,0A4.5,4.5 0 1,1 0,-4.5A4.5,4.5 0 0,1 4.5,0Z" style="opacity: 1; stroke-width: 2px; fill: rgb(196, 196, 196); fill-opacity: 1; stroke: rgb(196, 196, 196); stroke-opacity: 1;"/><path class="point plotly-customdata" transform="translate(51.45,316.7)" d="M4.5,0A4.5,4.5 0 1,1 0,-4.5A4.5,4.5 0 0,1 4.5,0Z" style="opacity: 1; stroke-width: 2px; fill: rgb(196, 196, 196); fill-opacity: 1; stroke: rgb(196, 196, 196); stroke-opacity: 1;"/><path class="point plotly-customdata" transform="translate(71.23,259.75)" d="M4.5,0A4.5,4.5 0 1,1 0,-4.5A4.5,4.5 0 0,1 4.5,0Z" style="opacity: 1; stroke-width: 2px; fill: rgb(196, 196, 196); fill-opacity: 1; stroke: rgb(196, 196, 196); stroke-opacity: 1;"/><path class="point plotly-customdata" transform="translate(91.02,314.59)" d="M4.5,0A4.5,4.5 0 1,1 0,-4.5A4.5,4.5 0 0,1 4.5,0Z" style="opacity: 1; stroke-width: 2px; fill: rgb(196, 196, 196); fill-opacity: 1; stroke: rgb(196, 196, 196); stroke-opacity: 1;"/><path class="point plotly-customdata" transform="translate(110.81,302.66)" d="M4.5,0A4.5,4.5 0 1,1 0,-4.5A4.5,4.5 0 0,1 4.5,0Z" style="opacity: 1; stroke-width: 2px; fill: rgb(196, 196, 196); fill-opacity: 1; stroke: rgb(196, 196, 196); stroke-opacity: 1;"/><path class="point plotly-customdata" transform="translate(130.59,277.25)" d="M4.5,0A4.5,4.5 0 1,1 0,-4.5A4.5,4.5 0 0,1 4.5,0Z" style="opacity: 1; stroke-width: 2px; fill: rgb(196, 196, 196); fill-opacity: 1; stroke: rgb(196, 196, 196); stroke-opacity: 1;"/></g><g class="text"/></g><g class="trace scatter trace35f438" style="stroke-miterlimit: 2; opacity: 1;"><g class="fills"/><g class="errorbars"/><g class="lines"/><g class="points"><path class="point plotly-customdata" transform="translate(189.95,184.81)" d="M4.5,0A4.5,4.5 0 1,1 0,-4.5A4.5,4.5 0 0,1 4.5,0Z" style="opacity: 1; stroke-width: 2px; fill: rgb(255, 255, 255); fill-opacity: 1; stroke: rgb(0, 0, 0); stroke-opacity: 1;"/><path class="point plotly-customdata" transform="translate(229.53,304.27)" d="M4.5,0A4.5,4.5 0 1,1 0,-4.5A4.5,4.5 0 0,1 4.5,0Z" style="opacity: 1; stroke-width: 2px; fill: rgb(255, 255, 255); fill-opacity: 1; stroke: rgb(0, 0, 0); stroke-opacity: 1;"/><path class="point plotly-customdata" transform="translate(249.31,267.85)" d="M4.5,0A4.5,4.5 0 1,1 0,-4.5A4.5,4.5 0 0,1 4.5,0Z" style="opacity: 1; stroke-width: 2px; fill: rgb(255, 255, 255); fill-opacity: 1; stroke: rgb(0, 0, 0); stroke-opacity: 1;"/><path class="point plotly-customdata" transform="translate(269.1,267.55)" d="M4.5,0A4.5,4.5 0 1,1 0,-4.5A4.5,4.5 0 0,1 4.5,0Z" style="opacity: 1; stroke-width: 2px; fill: rgb(255, 255, 255); fill-opacity: 1; stroke: rgb(0, 0, 0); stroke-opacity: 1;"/><path class="point plotly-customdata" transform="translate(308.67,253.45)" d="M4.5,0A4.5,4.5 0 1,1 0,-4.5A4.5,4.5 0 0,1 4.5,0Z" style="opacity: 1; stroke-width: 2px; fill: rgb(255, 255, 255); fill-opacity: 1; stroke: rgb(0, 0, 0); stroke-opacity: 1;"/></g><g class="text"/></g><g class="trace scatter tracea0906e" style="stroke-miterlimit: 2; opacity: 1;"><g class="fills"/><g class="errorbars"/><g class="lines"/><g class="points"><path class="point plotly-customdata" transform="translate(348.25,278.19)" d="M4.5,0A4.5,4.5 0 1,1 0,-4.5A4.5,4.5 0 0,1 4.5,0Z" style="opacity: 1; stroke-width: 2px; fill: rgb(32, 103, 244); fill-opacity: 1; stroke: rgb(32, 103, 244); stroke-opacity: 1;"/><path class="point plotly-customdata" transform="translate(368.03,302.69)" d="M4.5,0A4.5,4.5 0 1,1 0,-4.5A4.5,4.5 0 0,1 4.5,0Z" style="opacity: 1; stroke-width: 2px; fill: rgb(32, 103, 244); fill-opacity: 1; stroke: rgb(32, 103, 244); stroke-opacity: 1;"/><path class="point plotly-customdata" transform="translate(407.61,165.28)" d="M4.5,0A4.5,4.5 0 1,1 0,-4.5A4.5,4.5 0 0,1 4.5,0Z" style="opacity: 1; stroke-width: 2px; fill: rgb(32, 103, 244); fill-opacity: 1; stroke: rgb(32, 103, 244); stroke-opacity: 1;"/><path class="point plotly-customdata" transform="translate(427.39,284.86)" d="M4.5,0A4.5,4.5 0 1,1 0,-4.5A4.5,4.5 0 0,1 4.5,0Z" style="opacity: 1; stroke-width: 2px; fill: rgb(32, 103, 244); fill-opacity: 1; stroke: rgb(32, 103, 244); stroke-opacity: 1;"/><path class="point plotly-customdata" transform="translate(486.75,255.93)" d="M4.5,0A4.5,4.5 0 1,1 0,-4.5A4.5,4.5 0 0,1 4.5,0Z" style="opacity: 1; stroke-width: 2px; fill: rgb(32, 103, 244); fill-opacity: 1; stroke: rgb(32, 103, 244); stroke-opacity: 1;"/><path class="point plotly-customdata" transform="translate(506.54,403.31)" d="M4.5,0A4.5,4.5 0 1,1 0,-4.5A4.5,4.5 0 0,1 4.5,0Z" style="opacity: 1; stroke-width: 2px; fill: rgb(32, 103, 244); fill-opacity: 1; stroke: rgb(32, 103, 244); stroke-opacity: 1;"/><path class="point plotly-customdata" transform="translate(565.9,188.48)" d="M4.5,0A4.5,4.5 0 1,1 0,-4.5A4.5,4.5 0 0,1 4.5,0Z" style="opacity: 1; stroke-width: 2px; fill: rgb(32, 103, 244); fill-opacity: 1; stroke: rgb(32, 103, 244); stroke-opacity: 1;"/><path class="point plotly-customdata" transform="translate(605.47,246.06)" d="M4.5,0A4.5,4.5 0 1,1 0,-4.5A4.5,4.5 0 0,1 4.5,0Z" style="opacity: 1; stroke-width: 2px; fill: rgb(32, 103, 244); fill-opacity: 1; stroke: rgb(32, 103, 244); stroke-opacity: 1;"/><path class="point plotly-customdata" transform="translate(625.26,187.98)" d="M4.5,0A4.5,4.5 0 1,1 0,-4.5A4.5,4.5 0 0,1 4.5,0Z" style="opacity: 1; stroke-width: 2px; fill: rgb(32, 103, 244); fill-opacity: 1; stroke: rgb(32, 103, 244); stroke-opacity: 1;"/><path class="point plotly-customdata" transform="translate(645.05,29.88)" d="M4.5,0A4.5,4.5 0 1,1 0,-4.5A4.5,4.5 0 0,1 4.5,0Z" style="opacity: 1; stroke-width: 2px; fill: rgb(32, 103, 244); fill-opacity: 1; stroke: rgb(32, 103, 244); stroke-opacity: 1;"/><path class="point plotly-customdata" transform="translate(664.83,179.9)" d="M4.5,0A4.5,4.5 0 1,1 0,-4.5A4.5,4.5 0 0,1 4.5,0Z" style="opacity: 1; stroke-width: 2px; fill: rgb(32, 103, 244); fill-opacity: 1; stroke: rgb(32, 103, 244); stroke-opacity: 1;"/><path class="point plotly-customdata" transform="translate(684.62,394.15)" d="M4.5,0A4.5,4.5 0 1,1 0,-4.5A4.5,4.5 0 0,1 4.5,0Z" style="opacity: 1; stroke-width: 2px; fill: rgb(32, 103, 244); fill-opacity: 1; stroke: rgb(32, 103, 244); stroke-opacity: 1;"/><path class="point plotly-customdata" transform="translate(704.41,192.98)" d="M4.5,0A4.5,4.5 0 1,1 0,-4.5A4.5,4.5 0 0,1 4.5,0Z" style="opacity: 1; stroke-width: 2px; fill: rgb(32, 103, 244); fill-opacity: 1; stroke: rgb(32, 103, 244); stroke-opacity: 1;"/><path class="point plotly-customdata" transform="translate(724.19,302.61)" d="M4.5,0A4.5,4.5 0 1,1 0,-4.5A4.5,4.5 0 0,1 4.5,0Z" style="opacity: 1; stroke-width: 2px; fill: rgb(32, 103, 244); fill-opacity: 1; stroke: rgb(32, 103, 244); stroke-opacity: 1;"/><path class="point plotly-customdata" transform="translate(763.77,376.64)" d="M4.5,0A4.5,4.5 0 1,1 0,-4.5A4.5,4.5 0 0,1 4.5,0Z" style="opacity: 1; stroke-width: 2px; fill: rgb(32, 103, 244); fill-opacity: 1; stroke: rgb(32, 103, 244); stroke-opacity: 1;"/><path class="point plotly-customdata" transform="translate(803.34,200.6)" d="M4.5,0A4.5,4.5 0 1,1 0,-4.5A4.5,4.5 0 0,1 4.5,0Z" style="opacity: 1; stroke-width: 2px; fill: rgb(32, 103, 244); fill-opacity: 1; stroke: rgb(32, 103, 244); stroke-opacity: 1;"/><path class="point plotly-customdata" transform="translate(823.13,299.41)" d="M4.5,0A4.5,4.5 0 1,1 0,-4.5A4.5,4.5 0 0,1 4.5,0Z" style="opacity: 1; stroke-width: 2px; fill: rgb(32, 103, 244); fill-opacity: 1; stroke: rgb(32, 103, 244); stroke-opacity: 1;"/></g><g class="text"/></g></g></g></g><g class="zerolinelayer-above"/><path class="xlines-above crisp" d="M108,544.188H947M108,109.00000000000006H947" style="fill: none; stroke-width: 2px; stroke: rgb(0, 0, 0); stroke-opacity: 1;"/><path class="ylines-above crisp" d="M109,110.00000000000006V543.188M946,110.00000000000006V543.188" style="fill: none; stroke-width: 2px; stroke: rgb(0, 0, 0); stroke-opacity: 1;"/><g class="overlines-above"/><g class="xaxislayer-above"><path class="xtick ticks crisp" d="M0,545.188v5" transform="translate(201.01999999999998,0)" style="stroke: rgb(0, 0, 0); stroke-opacity: 1; stroke-width: 1px;"/><path class="xtick ticks crisp" d="M0,545.188v5" transform="translate(299.95,0)" style="stroke: rgb(0, 0, 0); stroke-opacity: 1; stroke-width: 1px;"/><path class="xtick ticks crisp" d="M0,545.188v5" transform="translate(398.89,0)" style="stroke: rgb(0, 0, 0); stroke-opacity: 1; stroke-width: 1px;"/><path class="xtick ticks crisp" d="M0,545.188v5" transform="translate(497.82,0)" style="stroke: rgb(0, 0, 0); stroke-opacity: 1; stroke-width: 1px;"/><path class="xtick ticks crisp" d="M0,545.188v5" transform="translate(596.75,0)" style="stroke: rgb(0, 0, 0); stroke-opacity: 1; stroke-width: 1px;"/><path class="xtick ticks crisp" d="M0,545.188v5" transform="translate(695.69,0)" style="stroke: rgb(0, 0, 0); stroke-opacity: 1; stroke-width: 1px;"/><path class="xtick ticks crisp" d="M0,545.188v5" transform="translate(794.62,0)" style="stroke: rgb(0, 0, 0); stroke-opacity: 1; stroke-width: 1px;"/><path class="xtick ticks crisp" d="M0,545.188v5" transform="translate(893.55,0)" style="stroke: rgb(0, 0, 0); stroke-opacity: 1; stroke-width: 1px;"/></g><g class="yaxislayer-above"><path class="ytick ticks crisp" d="M108,0h-4" transform="translate(0,521.1200000000001)" style="stroke: rgb(0, 0, 0); stroke-opacity: 1; stroke-width: 1px;"/><path class="ytick ticks crisp" d="M108,0h-4" transform="translate(0,456.21000000000004)" style="stroke: rgb(0, 0, 0); stroke-opacity: 1; stroke-width: 1px;"/><path class="ytick ticks crisp" d="M108,0h-4" transform="translate(0,391.30000000000007)" style="stroke: rgb(0, 0, 0); stroke-opacity: 1; stroke-width: 1px;"/><path class="ytick ticks crisp" d="M108,0h-4" transform="translate(0,326.39000000000004)" style="stroke: rgb(0, 0, 0); stroke-opacity: 1; stroke-width: 1px;"/><path class="ytick ticks crisp" d="M108,0h-4" transform="translate(0,261.48)" style="stroke: rgb(0, 0, 0); stroke-opacity: 1; stroke-width: 1px;"/><path class="ytick ticks crisp" d="M108,0h-4" transform="translate(0,196.57000000000005)" style="stroke: rgb(0, 0, 0); stroke-opacity: 1; stroke-width: 1px;"/><path class="ytick ticks crisp" d="M108,0h-4" transform="translate(0,131.66000000000005)" style="stroke: rgb(0, 0, 0); stroke-opacity: 1; stroke-width: 1px;"/><path class="ytick ticks crisp" d="M108,0h-5" transform="translate(0,488.6600000000001)" style="stroke: rgb(0, 0, 0); stroke-opacity: 1; stroke-width: 1px;"/><path class="ytick ticks crisp" d="M108,0h-5" transform="translate(0,423.75000000000006)" style="stroke: rgb(0, 0, 0); stroke-opacity: 1; stroke-width: 1px;"/><path class="ytick ticks crisp" d="M108,0h-5" transform="translate(0,358.85)" style="stroke: rgb(0, 0, 0); stroke-opacity: 1; stroke-width: 1px;"/><path class="ytick ticks crisp" d="M108,0h-5" transform="translate(0,293.94000000000005)" style="stroke: rgb(0, 0, 0); stroke-opacity: 1; stroke-width: 1px;"/><path class="ytick ticks crisp" d="M108,0h-5" transform="translate(0,229.03000000000006)" style="stroke: rgb(0, 0, 0); stroke-opacity: 1; stroke-width: 1px;"/><path class="ytick ticks crisp" d="M108,0h-5" transform="translate(0,164.12000000000006)" style="stroke: rgb(0, 0, 0); stroke-opacity: 1; stroke-width: 1px;"/><g class="ytick"><text text-anchor="end" x="99.4" y="6.3" transform="translate(0,488.6600000000001)" style="font-family: 'Open Sans', verdana, arial, sans-serif; font-size: 18px; fill: rgb(0, 0, 0); fill-opacity: 1; white-space: pre;">0.25</text></g><g class="ytick"><text text-anchor="end" x="99.4" y="6.3" style="font-family: 'Open Sans', verdana, arial, sans-serif; font-size: 18px; fill: rgb(0, 0, 0); fill-opacity: 1; white-space: pre;" transform="translate(0,423.75000000000006)">0.5</text></g><g class="ytick"><text text-anchor="end" x="99.4" y="6.3" style="font-family: 'Open Sans', verdana, arial, sans-serif; font-size: 18px; fill: rgb(0, 0, 0); fill-opacity: 1; white-space: pre;" transform="translate(0,358.85)">0.75</text></g><g class="ytick"><text text-anchor="end" x="99.4" y="6.3" style="font-family: 'Open Sans', verdana, arial, sans-serif; font-size: 18px; fill: rgb(0, 0, 0); fill-opacity: 1; white-space: pre;" transform="translate(0,293.94000000000005)">1</text></g><g class="ytick"><text text-anchor="end" x="99.4" y="6.3" style="font-family: 'Open Sans', verdana, arial, sans-serif; font-size: 18px; fill: rgb(0, 0, 0); fill-opacity: 1; white-space: pre;" transform="translate(0,229.03000000000006)">1.25</text></g><g class="ytick"><text text-anchor="end" x="99.4" y="6.3" style="font-family: 'Open Sans', verdana, arial, sans-serif; font-size: 18px; fill: rgb(0, 0, 0); fill-opacity: 1; white-space: pre;" transform="translate(0,164.12000000000006)">1.5</text></g></g><g class="overaxes-above"/></g><g class="subplot x2y2"><g class="layer-subplot"><g class="shapelayer"/><g class="imagelayer"/></g><g class="minor-gridlayer"><g class="x2"/><g class="y2"/></g><g class="gridlayer"><g class="x2"/><g class="y2"/></g><g class="zerolinelayer"/><g class="layer-between"><g class="shapelayer"/><g class="imagelayer"/></g><path class="xlines-below"/><path class="ylines-below"/><g class="overlines-below"/><g class="xaxislayer-below"/><g class="yaxislayer-below"/><g class="overaxes-below"/><g class="overplot"><g class="x2y2" transform="translate(110,567.488)" clip-path="url(#clipbefec2x2y2plot)"><g class="scatterlayer mlayer"><g class="trace scatter trace0df9e5" style="stroke-miterlimit: 2; opacity: 1;"><g class="fills"/><g class="errorbars"/><g class="lines"/><g class="points"><path class="point plotly-customdata" transform="translate(150.38,41.26)" d="M5,5L-5,-5M5,-5L-5,5" style="opacity: 1; stroke-width: 2.2px; fill: rgb(255, 161, 90); fill-opacity: 1; stroke: rgb(108, 63, 160); stroke-opacity: 1;"/><path class="point plotly-customdata" transform="translate(170.17,41.26)" d="M5,5L-5,-5M5,-5L-5,5" style="opacity: 1; stroke-width: 2.2px; fill: rgb(255, 161, 90); fill-opacity: 1; stroke: rgb(108, 63, 160); stroke-opacity: 1;"/><path class="point plotly-customdata" transform="translate(209.74,41.26)" d="M5,5L-5,-5M5,-5L-5,5" style="opacity: 1; stroke-width: 2.2px; fill: rgb(255, 161, 90); fill-opacity: 1; stroke: rgb(108, 63, 160); stroke-opacity: 1;"/><path class="point plotly-customdata" transform="translate(288.89,41.26)" d="M5,5L-5,-5M5,-5L-5,5" style="opacity: 1; stroke-width: 2.2px; fill: rgb(255, 161, 90); fill-opacity: 1; stroke: rgb(108, 63, 160); stroke-opacity: 1;"/><path class="point plotly-customdata" transform="translate(328.46,41.26)" d="M5,5L-5,-5M5,-5L-5,5" style="opacity: 1; stroke-width: 2.2px; fill: rgb(255, 161, 90); fill-opacity: 1; stroke: rgb(108, 63, 160); stroke-opacity: 1;"/><path class="point plotly-customdata" transform="translate(387.82,41.26)" d="M5,5L-5,-5M5,-5L-5,5" style="opacity: 1; stroke-width: 2.2px; fill: rgb(255, 161, 90); fill-opacity: 1; stroke: rgb(108, 63, 160); stroke-opacity: 1;"/><path class="point plotly-customdata" transform="translate(447.18,41.26)" d="M5,5L-5,-5M5,-5L-5,5" style="opacity: 1; stroke-width: 2.2px; fill: rgb(255, 161, 90); fill-opacity: 1; stroke: rgb(108, 63, 160); stroke-opacity: 1;"/><path class="point plotly-customdata" transform="translate(466.97,41.26)" d="M5,5L-5,-5M5,-5L-5,5" style="opacity: 1; stroke-width: 2.2px; fill: rgb(255, 161, 90); fill-opacity: 1; stroke: rgb(108, 63, 160); stroke-opacity: 1;"/><path class="point plotly-customdata" transform="translate(526.33,41.26)" d="M5,5L-5,-5M5,-5L-5,5" style="opacity: 1; stroke-width: 2.2px; fill: rgb(255, 161, 90); fill-opacity: 1; stroke: rgb(108, 63, 160); stroke-opacity: 1;"/><path class="point plotly-customdata" transform="translate(546.11,41.26)" d="M5,5L-5,-5M5,-5L-5,5" style="opacity: 1; stroke-width: 2.2px; fill: rgb(255, 161, 90); fill-opacity: 1; stroke: rgb(108, 63, 160); stroke-opacity: 1;"/><path class="point plotly-customdata" transform="translate(585.69,41.26)" d="M5,5L-5,-5M5,-5L-5,5" style="opacity: 1; stroke-width: 2.2px; fill: rgb(255, 161, 90); fill-opacity: 1; stroke: rgb(108, 63, 160); stroke-opacity: 1;"/><path class="point plotly-customdata" transform="translate(743.98,41.26)" d="M5,5L-5,-5M5,-5L-5,5" style="opacity: 1; stroke-width: 2.2px; fill: rgb(255, 161, 90); fill-opacity: 1; stroke: rgb(108, 63, 160); stroke-opacity: 1;"/><path class="point plotly-customdata" transform="translate(783.55,41.26)" d="M5,5L-5,-5M5,-5L-5,5" style="opacity: 1; stroke-width: 2.2px; fill: rgb(255, 161, 90); fill-opacity: 1; stroke: rgb(108, 63, 160); stroke-opacity: 1;"/></g><g class="text"/></g></g></g></g><g class="zerolinelayer-above"/><path class="xlines-above crisp" d="M108,651H947M108,566.488H947" style="fill: none; stroke-width: 2px; stroke: rgb(0, 0, 0); stroke-opacity: 1;"/><path class="ylines-above crisp" d="M109,567.488V650M946,567.488V650" style="fill: none; stroke-width: 2px; stroke: rgb(0, 0, 0); stroke-opacity: 1;"/><g class="overlines-above"/><g class="xaxislayer-above"><path class="x2tick ticks crisp" d="M0,652v5" transform="translate(201.01999999999998,0)" style="stroke: rgb(0, 0, 0); stroke-opacity: 1; stroke-width: 1px;"/><path class="x2tick ticks crisp" d="M0,652v5" transform="translate(299.95,0)" style="stroke: rgb(0, 0, 0); stroke-opacity: 1; stroke-width: 1px;"/><path class="x2tick ticks crisp" d="M0,652v5" transform="translate(398.89,0)" style="stroke: rgb(0, 0, 0); stroke-opacity: 1; stroke-width: 1px;"/><path class="x2tick ticks crisp" d="M0,652v5" transform="translate(497.82,0)" style="stroke: rgb(0, 0, 0); stroke-opacity: 1; stroke-width: 1px;"/><path class="x2tick ticks crisp" d="M0,652v5" transform="translate(596.75,0)" style="stroke: rgb(0, 0, 0); stroke-opacity: 1; stroke-width: 1px;"/><path class="x2tick ticks crisp" d="M0,652v5" transform="translate(695.69,0)" style="stroke: rgb(0, 0, 0); stroke-opacity: 1; stroke-width: 1px;"/><path class="x2tick ticks crisp" d="M0,652v5" transform="translate(794.62,0)" style="stroke: rgb(0, 0, 0); stroke-opacity: 1; stroke-width: 1px;"/><path class="x2tick ticks crisp" d="M0,652v5" transform="translate(893.55,0)" style="stroke: rgb(0, 0, 0); stroke-opacity: 1; stroke-width: 1px;"/><g class="x2tick"><text text-anchor="middle" x="0" y="678.6" transform="translate(201.01999999999998,0)" style="font-family: 'Open Sans', verdana, arial, sans-serif; font-size: 18px; fill: rgb(0, 0, 0); fill-opacity: 1; white-space: pre;">5</text></g><g class="x2tick"><text text-anchor="middle" x="0" y="678.6" style="font-family: 'Open Sans', verdana, arial, sans-serif; font-size: 18px; fill: rgb(0, 0, 0); fill-opacity: 1; white-space: pre;" transform="translate(299.95,0)">10</text></g><g class="x2tick"><text text-anchor="middle" x="0" y="678.6" style="font-family: 'Open Sans', verdana, arial, sans-serif; font-size: 18px; fill: rgb(0, 0, 0); fill-opacity: 1; white-space: pre;" transform="translate(398.89,0)">15</text></g><g class="x2tick"><text text-anchor="middle" x="0" y="678.6" style="font-family: 'Open Sans', verdana, arial, sans-serif; font-size: 18px; fill: rgb(0, 0, 0); fill-opacity: 1; white-space: pre;" transform="translate(497.82,0)">20</text></g><g class="x2tick"><text text-anchor="middle" x="0" y="678.6" style="font-family: 'Open Sans', verdana, arial, sans-serif; font-size: 18px; fill: rgb(0, 0, 0); fill-opacity: 1; white-space: pre;" transform="translate(596.75,0)">25</text></g><g class="x2tick"><text text-anchor="middle" x="0" y="678.6" style="font-family: 'Open Sans', verdana, arial, sans-serif; font-size: 18px; fill: rgb(0, 0, 0); fill-opacity: 1; white-space: pre;" transform="translate(695.69,0)">30</text></g><g class="x2tick"><text text-anchor="middle" x="0" y="678.6" style="font-family: 'Open Sans', verdana, arial, sans-serif; font-size: 18px; fill: rgb(0, 0, 0); fill-opacity: 1; white-space: pre;" transform="translate(794.62,0)">35</text></g><g class="x2tick"><text text-anchor="middle" x="0" y="678.6" style="font-family: 'Open Sans', verdana, arial, sans-serif; font-size: 18px; fill: rgb(0, 0, 0); fill-opacity: 1; white-space: pre;" transform="translate(893.55,0)">40</text></g></g><g class="yaxislayer-above"/><g class="overaxes-above"/></g></g><g class="polarlayer"/><g class="smithlayer"/><g class="ternarylayer"/><g class="geolayer"/><g class="funnelarealayer"/><g class="pielayer"/><g class="iciclelayer"/><g class="treemaplayer"/><g class="sunburstlayer"/><g class="glimages"/><defs id="topdefs-befec2"><g class="clips"/><clipPath id="legendbefec2"><rect width="757" height="32" x="0" y="0"/></clipPath></defs><g class="layer-above"><g class="imagelayer"/><g class="shapelayer"/></g><g class="infolayer"><g class="legend" pointer-events="all" transform="translate(149,736.4)"><rect class="bg" shape-rendering="crispEdges" style="stroke: rgb(68, 68, 68); stroke-opacity: 1; fill: rgb(0, 0, 0); fill-opacity: 0; stroke-width: 0px;" width="757" height="32" x="0" y="0"/><g class="scrollbox" transform="" clip-path="url(#legendbefec2)"><g class="groups"><g class="traces" transform="translate(0,15.6)" style="opacity: 1;"><text class="legendtext" text-anchor="start" x="40" y="5.46" style="font-family: 'Open Sans', verdana, arial, sans-serif; font-size: 14px; fill: rgb(0, 0, 0); fill-opacity: 1; white-space: pre;">Running Best</text><g class="layers" style="opacity: 1;"><g class="legendfill"/><g class="legendlines"><path class="js-line" d="M5,0h30" style="fill: none; stroke: rgb(213, 94, 0); stroke-opacity: 1; stroke-width: 2.5px;"/></g><g class="legendsymbols"><g class="legendpoints"/></g></g><rect class="legendtoggle" x="0" y="-10.6" width="136.2529296875" height="21.2" style="fill: rgb(0, 0, 0); fill-opacity: 0;"/></g><g class="traces" transform="translate(138.7529296875,15.6)" style="opacity: 1;"><text class="legendtext" text-anchor="start" x="40" y="5.46" style="font-family: 'Open Sans', verdana, arial, sans-serif; font-size: 14px; fill: rgb(0, 0, 0); fill-opacity: 1; white-space: pre;">Preliminary</text><g class="layers" style="opacity: 1;"><g class="legendfill"/><g class="legendlines"/><g class="legendsymbols"><g class="legendpoints"><path class="scatterpts" transform="translate(20,0)" d="M4.5,0A4.5,4.5 0 1,1 0,-4.5A4.5,4.5 0 0,1 4.5,0Z" style="opacity: 1; stroke-width: 2px; fill: rgb(196, 196, 196); fill-opacity: 1; stroke: rgb(196, 196, 196); stroke-opacity: 1;"/></g></g></g><rect class="legendtoggle" x="0" y="-10.6" width="122.6416015625" height="21.2" style="fill: rgb(0, 0, 0); fill-opacity: 0;"/></g><g class="traces" transform="translate(263.89453125,15.6)" style="opacity: 1;"><text class="legendtext" text-anchor="start" x="40" y="5.46" style="font-family: 'Open Sans', verdana, arial, sans-serif; font-size: 14px; fill: rgb(0, 0, 0); fill-opacity: 1; white-space: pre;">Random Screen</text><g class="layers" style="opacity: 1;"><g class="legendfill"/><g class="legendlines"/><g class="legendsymbols"><g class="legendpoints"><path class="scatterpts" transform="translate(20,0)" d="M4.5,0A4.5,4.5 0 1,1 0,-4.5A4.5,4.5 0 0,1 4.5,0Z" style="opacity: 1; stroke-width: 2px; fill: rgb(255, 255, 255); fill-opacity: 1; stroke: rgb(0, 0, 0); stroke-opacity: 1;"/></g></g></g><rect class="legendtoggle" x="0" y="-10.6" width="153.375" height="21.2" style="fill: rgb(0, 0, 0); fill-opacity: 0;"/></g><g class="traces" transform="translate(419.76953125,15.6)" style="opacity: 1;"><text class="legendtext" text-anchor="start" x="40" y="5.46" style="font-family: 'Open Sans', verdana, arial, sans-serif; font-size: 14px; fill: rgb(0, 0, 0); fill-opacity: 1; white-space: pre;">Optimiser Batches</text><g class="layers" style="opacity: 1;"><g class="legendfill"/><g class="legendlines"/><g class="legendsymbols"><g class="legendpoints"><path class="scatterpts" transform="translate(20,0)" d="M4.5,0A4.5,4.5 0 1,1 0,-4.5A4.5,4.5 0 0,1 4.5,0Z" style="opacity: 1; stroke-width: 2px; fill: rgb(32, 103, 244); fill-opacity: 1; stroke: rgb(32, 103, 244); stroke-opacity: 1;"/></g></g></g><rect class="legendtoggle" x="0" y="-10.6" width="171.60546875" height="21.2" style="fill: rgb(0, 0, 0); fill-opacity: 0;"/></g><g class="traces" transform="translate(593.875,15.6)" style="opacity: 1;"><text class="legendtext" text-anchor="start" x="40" y="5.46" style="font-family: 'Open Sans', verdana, arial, sans-serif; font-size: 14px; fill: rgb(0, 0, 0); fill-opacity: 1; white-space: pre;">Phase Separated</text><g class="layers" style="opacity: 1;"><g class="legendfill"/><g class="legendlines"/><g class="legendsymbols"><g class="legendpoints"><path class="scatterpts" transform="translate(20,0)" d="M5,5L-5,-5M5,-5L-5,5" style="opacity: 1; stroke-width: 2.2px; fill: rgb(255, 161, 90); fill-opacity: 1; stroke: rgb(108, 63, 160); stroke-opacity: 1;"/></g></g></g><rect class="legendtoggle" x="0" y="-10.6" width="160.53125" height="21.2" style="fill: rgb(0, 0, 0); fill-opacity: 0;"/></g></g></g><rect class="scrollbar" rx="20" ry="3" width="0" height="0" style="fill: rgb(128, 139, 164); fill-opacity: 1;" x="0" y="0"/></g><g class="g-gtitle"><text class="gtitle" x="500" y="32" text-anchor="middle" dy="0.7em" style="opacity: 1; font-family: 'Open Sans', verdana, arial, sans-serif; font-size: 20px; fill: rgb(0, 0, 0); fill-opacity: 1; white-space: pre;">Campaign 1 — Batched Bayesian Optimisation on Blank Formulations</text></g><g class="g-xtitle"/><g class="g-x2title"><text class="x2title" x="527.5" y="709.199609375" text-anchor="middle" style="opacity: 1; font-family: 'Open Sans', verdana, arial, sans-serif; font-size: 18px; fill: rgb(0, 0, 0); fill-opacity: 1; white-space: pre;">Experiment Number</text></g><g class="g-ytitle"><text class="ytitle" transform="rotate(-90,38.209765625,326.59400000000005)" x="38.209765625" y="326.59400000000005" text-anchor="middle" style="opacity: 1; font-family: 'Open Sans', verdana, arial, sans-serif; font-size: 18px; fill: rgb(0, 0, 0); fill-opacity: 1; white-space: pre;">Objective Function</text></g><g class="g-y2title"><text class="y2title" transform="rotate(-90,70.9,608.744)" x="70.9" y="608.744" text-anchor="middle" style="opacity: 0.55; font-family: 'Open Sans', verdana, arial, sans-serif; font-size: 14px; fill: rgb(0, 0, 0); fill-opacity: 1; white-space: pre;"><tspan class="line" dy="0em" x="70.9" y="608.744">Phase</tspan><tspan class="line" dy="1.3em" x="70.9" y="608.744">Separated</tspan></text></g><g class="annotation" data-index="0" style="opacity: 1;"><g class="annotation-text-g" transform="rotate(0,181.23000000000002,86.50000000000006)"><g class="cursor-pointer" transform="translate(139,76)"><rect class="bg" x="0.5" y="0.5" width="83" height="20" style="stroke-width: 1px; stroke: rgb(0, 0, 0); stroke-opacity: 0; fill: rgb(0, 0, 0); fill-opacity: 0;"/><text class="annotation-text" text-anchor="middle" x="41.71875" y="16" style="font-family: 'Open Sans', verdana, arial, sans-serif; font-size: 14px; fill: rgb(0, 0, 0); fill-opacity: 0.55; white-space: pre;">Preliminary</text></g></g></g><g class="annotation" data-index="1" style="opacity: 1;"><g class="annotation-text-g" transform="rotate(0,349.41999999999996,86.50000000000006)"><g class="cursor-pointer" transform="translate(292,76)"><rect class="bg" x="0.5" y="0.5" width="114" height="20" style="stroke-width: 1px; stroke: rgb(0, 0, 0); stroke-opacity: 0; fill: rgb(0, 0, 0); fill-opacity: 0;"/><text class="annotation-text" text-anchor="middle" x="57.4375" y="16" style="font-family: 'Open Sans', verdana, arial, sans-serif; font-size: 14px; fill: rgb(0, 0, 0); fill-opacity: 0.55; white-space: pre;">Random Screen</text></g></g></g><g class="annotation" data-index="2" style="opacity: 1;"><g class="annotation-text-g" transform="rotate(0,497.82,86.50000000000006)"><g class="cursor-pointer" transform="translate(466,76)"><rect class="bg" x="0.5" y="0.5" width="62" height="20" style="stroke-width: 1px; stroke: rgb(0, 0, 0); stroke-opacity: 0; fill: rgb(0, 0, 0); fill-opacity: 0;"/><text class="annotation-text" text-anchor="middle" x="31.4140625" y="16" style="font-family: 'Open Sans', verdana, arial, sans-serif; font-size: 14px; fill: rgb(0, 0, 0); fill-opacity: 0.55; white-space: pre;">Round A</text></g></g></g><g class="annotation" data-index="3" style="opacity: 1;"><g class="annotation-text-g" transform="rotate(0,596.75,86.50000000000006)"><g class="cursor-pointer" transform="translate(565,76)"><rect class="bg" x="0.5" y="0.5" width="62" height="20" style="stroke-width: 1px; stroke: rgb(0, 0, 0); stroke-opacity: 0; fill: rgb(0, 0, 0); fill-opacity: 0;"/><text class="annotation-text" text-anchor="middle" x="31.4296875" y="16" style="font-family: 'Open Sans', verdana, arial, sans-serif; font-size: 14px; fill: rgb(0, 0, 0); fill-opacity: 0.55; white-space: pre;">Round B</text></g></g></g><g class="annotation" data-index="4" style="opacity: 1;"><g class="annotation-text-g" transform="rotate(0,695.69,86.50000000000006)"><g class="cursor-pointer" transform="translate(664,76)"><rect class="bg" x="0.5" y="0.5" width="62" height="20" style="stroke-width: 1px; stroke: rgb(0, 0, 0); stroke-opacity: 0; fill: rgb(0, 0, 0); fill-opacity: 0;"/><text class="annotation-text" text-anchor="middle" x="31.515625" y="16" style="font-family: 'Open Sans', verdana, arial, sans-serif; font-size: 14px; fill: rgb(0, 0, 0); fill-opacity: 0.55; white-space: pre;">Round C</text></g></g></g><g class="annotation" data-index="5" style="opacity: 1;"><g class="annotation-text-g" transform="rotate(0,794.62,86.50000000000006)"><g class="cursor-pointer" transform="translate(763,76)"><rect class="bg" x="0.5" y="0.5" width="63" height="20" style="stroke-width: 1px; stroke: rgb(0, 0, 0); stroke-opacity: 0; fill: rgb(0, 0, 0); fill-opacity: 0;"/><text class="annotation-text" text-anchor="middle" x="32.0234375" y="16" style="font-family: 'Open Sans', verdana, arial, sans-serif; font-size: 14px; fill: rgb(0, 0, 0); fill-opacity: 0.55; white-space: pre;">Round D</text></g></g></g><g class="annotation" data-index="6" style="opacity: 1;"><g class="annotation-text-g" transform="rotate(0,893.55,86.50000000000006)"><g class="cursor-pointer" transform="translate(863,76)"><rect class="bg" x="0.5" y="0.5" width="61" height="20" style="stroke-width: 1px; stroke: rgb(0, 0, 0); stroke-opacity: 0; fill: rgb(0, 0, 0); fill-opacity: 0;"/><text class="annotation-text" text-anchor="middle" x="31.0546875" y="16" style="font-family: 'Open Sans', verdana, arial, sans-serif; font-size: 14px; fill: rgb(0, 0, 0); fill-opacity: 0.55; white-space: pre;">Round E</text></g></g></g><g class="annotation" data-index="7" style="opacity: 1;"><g class="annotation-text-g" transform="rotate(0,696.04,441.31000000000006)"><g class="cursor-pointer" transform="translate(659,422)"><rect class="bg" x="0.5" y="0.5" width="74" height="38" style="stroke-width: 1px; stroke: rgb(0, 0, 0); stroke-opacity: 0; fill: rgb(0, 0, 0); fill-opacity: 0;"/><text class="annotation-text" text-anchor="middle" x="37.5859375" y="16" style="font-family: 'Open Sans', verdana, arial, sans-serif; font-size: 14px; fill: rgb(0, 0, 0); fill-opacity: 1; white-space: pre;"><tspan class="line" dy="0em" x="37.5859375" y="16"><tspan style="font-weight:bold">B4</tspan>  0.155</tspan><tspan class="line" dy="1.3em" x="37.5859375" y="16">12 nm</tspan></text></g></g><g class="annotation-arrow-g" style="opacity: 0.55;"><path d="M658.54,441.31000000000006L616.54,513.3100000000001" style="stroke-width: 1.1px; stroke: rgb(0, 0, 0); stroke-opacity: 1; stroke-dasharray: 0px, 0px, 83.3547px, 83.3547px;"/></g></g></g></svg>