<svg class="main-svg" xmlns="http://www.w3.org/2000/svg" xmlns:xlink="http://www.w3.org/1999/xlink" width="1280" height="720" style="" viewBox="0 0 1280 720"><rect x="0" y="0" width="1280" height="720" style="fill: rgb(255, 255, 255); fill-opacity: 1;"/><defs id="defs-1d56e4"><g class="clips"><clipPath id="clip1d56e4xyplot" class="plotclip"><rect width="347.74600000000004" height="358.79999999999995"/></clipPath><clipPath id="clip1d56e4x2y2plot" class="plotclip"><rect width="347.74600000000004" height="358.79999999999995"/></clipPath><clipPath id="clip1d56e4x3y3plot" class="plotclip"><rect width="347.7460000000001" height="358.79999999999995"/></clipPath><clipPath class="axesclip" id="clip1d56e4x"><rect x="112.642" y="0" width="347.74600000000004" height="720"/></clipPath><clipPath class="axesclip" id="clip1d56e4y"><rect x="0" y="174.2" width="1280" height="358.79999999999995"/></clipPath><clipPath class="axesclip" id="clip1d56e4xy"><rect x="112.642" y="174.2" width="347.74600000000004" height="358.79999999999995"/></clipPath><clipPath class="axesclip" id="clip1d56e4y2"><rect x="0" y="174.2" width="1280" height="358.79999999999995"/></clipPath><clipPath class="axesclip" id="clip1d56e4xy2"><rect x="112.642" y="174.2" width="347.74600000000004" height="358.79999999999995"/></clipPath><clipPath class="axesclip" id="clip1d56e4y3"><rect x="0" y="174.2" width="1280" height="358.79999999999995"/></clipPath><clipPath class="axesclip" id="clip1d56e4xy3"><rect x="112.642" y="174.2" width="347.74600000000004" height="358.79999999999995"/></clipPath><clipPath class="axesclip" id="clip1d56e4x2"><rect x="502.514" y="0" width="347.74600000000004" height="720"/></clipPath><clipPath class="axesclip" id="clip1d56e4x2y"><rect x="502.514" y="174.2" width="347.74600000000004" height="358.79999999999995"/></clipPath><clipPath class="axesclip" id="clip1d56e4x2y2"><rect x="502.514" y="174.2" width="347.74600000000004" height="358.79999999999995"/></clipPath><clipPath class="axesclip" id="clip1d56e4x2y3"><rect x="502.514" y="174.2" width="347.74600000000004" height="358.79999999999995"/></clipPath><clipPath class="axesclip" id="clip1d56e4x3"><rect x="892.3859999999999" y="0" width="347.7460000000001" height="720"/></clipPath><clipPath class="axesclip" id="clip1d56e4x3y"><rect x="892.3859999999999" y="174.2" width="347.7460000000001" height="358.79999999999995"/></clipPath><clipPath class="axesclip" id="clip1d56e4x3y2"><rect x="892.3859999999999" y="174.2" width="347.7460000000001" height="358.79999999999995"/></clipPath><clipPath class="axesclip" id="clip1d56e4x3y3"><rect x="892.3859999999999" y="174.2" width="347.7460000000001" height="358.79999999999995"/></clipPath></g><g class="gradients"/><g class="patterns"/></defs><g class="bglayer"/><g class="layer-below"><g class="imagelayer"/><g class="shapelayer"><g class="shape-group" data-index="0" clip-path="url(#clip1d56e4x)"><path data-index="0" fill-rule="evenodd" d="M112.642,533H177.042V174.2H112.642Z" style="opacity: 1; stroke: rgb(0, 0, 0); stroke-opacity: 0; fill: rgb(0, 0, 0); fill-opacity: 0.055; stroke-width: 0px;"/></g><g class="shape-group" data-index="2" clip-path="url(#clip1d56e4x2)"><path data-index="2" fill-rule="evenodd" d="M502.514,533H618.434V174.2H502.514Z" style="opacity: 1; stroke: rgb(0, 0, 0); stroke-opacity: 0; fill: rgb(0, 0, 0); fill-opacity: 0.055; stroke-width: 0px;"/></g><g class="shape-group" data-index="4" clip-path="url(#clip1d56e4x3)"><path data-index="4" fill-rule="evenodd" d="M892.3859999999999,533H1182.176V174.2H892.3859999999999Z" style="opacity: 1; stroke: rgb(0, 0, 0); stroke-opacity: 0; fill: rgb(0, 0, 0); fill-opacity: 0.055; stroke-width: 0px;"/></g></g></g><g class="cartesianlayer"><g class="subplot xy"><g class="layer-subplot"><g class="shapelayer"/><g class="imagelayer"/></g><g class="minor-gridlayer"><g class="x"/><g class="y"/></g><g class="gridlayer"><g class="x"/><g class="y"/></g><g class="zerolinelayer"/><g class="layer-between"><g class="shapelayer"/><g class="imagelayer"/></g><path class="xlines-below"/><path class="ylines-below"/><g class="overlines-below"/><g class="xaxislayer-below"/><g class="yaxislayer-below"/><g class="overaxes-below"/><g class="overplot"><g class="xy" transform="translate(112.642,174.2)" clip-path="url(#clip1d56e4xyplot)"><g class="scatterlayer mlayer"><g class="trace scatter trace388db4" style="stroke-miterlimit: 2; opacity: 1;"><g class="fills"/><g class="errorbars"><g class="errorbar" style="opacity: 1;"><path class="xerror" d="M174.81,35.4v12m0,-6H112.79m0,-6v12" style="vector-effect: none; stroke-width: 1.4px; stroke: rgb(230, 159, 0); stroke-opacity: 1;"/></g><g class="errorbar" style="opacity: 1;"><path class="xerror" d="M234.47,104.4v12m0,-6H164.12m0,-6v12" style="vector-effect: none; stroke-width: 1.4px; stroke: rgb(230, 159, 0); stroke-opacity: 1;"/></g><g class="errorbar" style="opacity: 1;"><path class="xerror" d="M433.65,173.4v12m0,-6H167.33m0,-6v12" style="vector-effect: none; stroke-width: 1.4px; stroke: rgb(230, 159, 0); stroke-opacity: 1;"/></g><g class="errorbar" style="opacity: 1;"><path class="xerror" d="M391.12,242.4v12m0,-6H159.25m0,-6v12" style="vector-effect: none; stroke-width: 1.4px; stroke: rgb(230, 159, 0); stroke-opacity: 1;"/></g></g><g class="lines"/><g class="points"><path class="point" transform="translate(143.8,41.4)" d="M6.5,0A6.5,6.5 0 1,1 0,-6.5A6.5,6.5 0 0,1 6.5,0Z" style="opacity: 1; stroke-width: 2px; fill: rgb(230, 159, 0); fill-opacity: 1; stroke: rgb(255, 255, 255); stroke-opacity: 1;"/><path class="point" transform="translate(199.3,110.4)" d="M6.5,0A6.5,6.5 0 1,1 0,-6.5A6.5,6.5 0 0,1 6.5,0Z" style="opacity: 1; stroke-width: 2px; fill: rgb(230, 159, 0); fill-opacity: 1; stroke: rgb(255, 255, 255); stroke-opacity: 1;"/><path class="point" transform="translate(300.49,179.4)" d="M6.5,0A6.5,6.5 0 1,1 0,-6.5A6.5,6.5 0 0,1 6.5,0Z" style="opacity: 1; stroke-width: 2px; fill: rgb(230, 159, 0); fill-opacity: 1; stroke: rgb(255, 255, 255); stroke-opacity: 1;"/><path class="point" transform="translate(275.18,248.4)" d="M6.5,0A6.5,6.5 0 1,1 0,-6.5A6.5,6.5 0 0,1 6.5,0Z" style="opacity: 1; stroke-width: 2px; fill: rgb(230, 159, 0); fill-opacity: 1; stroke: rgb(255, 255, 255); stroke-opacity: 1;"/></g><g class="text"/></g><g class="trace scatter tracef39325" style="stroke-miterlimit: 2; opacity: 1;"><g class="fills"/><g class="errorbars"><g class="errorbar" style="opacity: 1;"><path class="xerror" d="M122.21,311.4v12m0,-6H115.5m0,-6v12" style="vector-effect: none; stroke-width: 1.4px; stroke: rgb(213, 94, 0); stroke-opacity: 1;"/></g></g><g class="lines"/><g class="points"><path class="point" transform="translate(118.85,317.4)" d="M11.05,0L0,11.05L-11.05,0L0,-11.05Z" style="opacity: 1; stroke-width: 2px; fill: rgb(213, 94, 0); fill-opacity: 1; stroke: rgb(255, 255, 255); stroke-opacity: 1;"/></g><g class="text"/></g><g class="trace scatter tracec20ace" style="stroke-miterlimit: 2; opacity: 1;"><g class="fills"/><g class="errorbars"/><g class="lines"/><g class="points"/><g class="text"/></g><g class="trace scatter trace560e71" style="stroke-miterlimit: 2; opacity: 1;"><g class="fills"/><g class="errorbars"/><g class="lines"/><g class="points"/><g class="text"/></g></g></g></g><g class="zerolinelayer-above"/><path class="xlines-above crisp" d="M110.642,534H462.38800000000003M110.642,173.2H462.38800000000003" style="fill: none; stroke-width: 2px; stroke: rgb(0, 0, 0); stroke-opacity: 1;"/><path class="ylines-above crisp" d="M111.642,174.2V533M461.38800000000003,174.2V533" style="fill: none; stroke-width: 2px; stroke: rgb(0, 0, 0); stroke-opacity: 1;"/><g class="overlines-above"/><g class="xaxislayer-above"><path class="xtick ticks crisp" d="M0,535v5" transform="translate(112.642,0)" style="stroke: rgb(0, 0, 0); stroke-opacity: 1; stroke-width: 1px;"/><path class="xtick ticks crisp" d="M0,535v5" transform="translate(177.042,0)" style="stroke: rgb(0, 0, 0); stroke-opacity: 1; stroke-width: 1px;"/><path class="xtick ticks crisp" d="M0,535v5" transform="translate(305.832,0)" style="stroke: rgb(0, 0, 0); stroke-opacity: 1; stroke-width: 1px;"/><path class="xtick ticks crisp" d="M0,535v5" transform="translate(434.632,0)" style="stroke: rgb(0, 0, 0); stroke-opacity: 1; stroke-width: 1px;"/><g class="xtick"><text text-anchor="middle" x="0" y="561.6" transform="translate(112.642,0)" style="font-family: 'Open Sans', verdana, arial, sans-serif; font-size: 18px; fill: rgb(0, 0, 0); fill-opacity: 1; white-space: pre;">0</text></g><g class="xtick"><text text-anchor="middle" x="0" y="561.6" style="font-family: 'Open Sans', verdana, arial, sans-serif; font-size: 18px; fill: rgb(0, 0, 0); fill-opacity: 1; white-space: pre;" transform="translate(177.042,0)">100</text></g><g class="xtick"><text text-anchor="middle" x="0" y="561.6" style="font-family: 'Open Sans', verdana, arial, sans-serif; font-size: 18px; fill: rgb(0, 0, 0); fill-opacity: 1; white-space: pre;" transform="translate(305.832,0)">300</text></g><g class="xtick"><text text-anchor="middle" x="0" y="561.6" style="font-family: 'Open Sans', verdana, arial, sans-serif; font-size: 18px; fill: rgb(0, 0, 0); fill-opacity: 1; white-space: pre;" transform="translate(434.632,0)">500</text></g></g><g class="yaxislayer-above"><g class="ytick"><text text-anchor="end" x="107.042" y="6.3" transform="translate(0,215.6)" style="font-family: 'Open Sans', verdana, arial, sans-serif; font-size: 18px; fill: rgb(0, 0, 0); fill-opacity: 1; white-space: pre;">DoE-1</text></g><g class="ytick"><text text-anchor="end" x="107.042" y="6.3" style="font-family: 'Open Sans', verdana, arial, sans-serif; font-size: 18px; fill: rgb(0, 0, 0); fill-opacity: 1; white-space: pre;" transform="translate(0,284.6)">DoE-4</text></g><g class="ytick"><text text-anchor="end" x="107.042" y="6.3" style="font-family: 'Open Sans', verdana, arial, sans-serif; font-size: 18px; fill: rgb(0, 0, 0); fill-opacity: 1; white-space: pre;" transform="translate(0,353.6)">DoE-10</text></g><g class="ytick"><text text-anchor="end" x="107.042" y="6.3" style="font-family: 'Open Sans', verdana, arial, sans-serif; font-size: 18px; fill: rgb(0, 0, 0); fill-opacity: 1; white-space: pre;" transform="translate(0,422.6)">DoE-11</text></g><g class="ytick"><text text-anchor="end" x="107.042" y="6.3" style="font-family: 'Open Sans', verdana, arial, sans-serif; font-size: 18px; fill: rgb(0, 0, 0); fill-opacity: 1; white-space: pre;" transform="translate(0,491.59999999999997)">DoE-OPT</text></g></g><g class="overaxes-above"/></g><g class="subplot x2y2"><g class="layer-subplot"><g class="shapelayer"/><g class="imagelayer"/></g><g class="minor-gridlayer"><g class="x2"/><g class="y2"/></g><g class="gridlayer"><g class="x2"/><g class="y2"/></g><g class="zerolinelayer"/><g class="layer-between"><g class="shapelayer"/><g class="imagelayer"/></g><path class="xlines-below"/><path class="ylines-below"/><g class="overlines-below"/><g class="xaxislayer-below"/><g class="yaxislayer-below"/><g class="overaxes-below"/><g class="overplot"><g class="x2y2" transform="translate(502.514,174.2)" clip-path="url(#clip1d56e4x2y2plot)"><g class="scatterlayer mlayer"><g class="trace scatter tracec266a4" style="stroke-miterlimit: 2; opacity: 1;"><g class="fills"/><g class="errorbars"><g class="errorbar" style="opacity: 1;"><path class="xerror" d="M187.14,35.4v12m0,-6H121.71m0,-6v12" style="vector-effect: none; stroke-width: 1.4px; stroke: rgb(230, 159, 0); stroke-opacity: 1;"/></g><g class="errorbar" style="opacity: 1;"><path class="xerror" d="M182.86,104.4v12m0,-6H108.99m0,-6v12" style="vector-effect: none; stroke-width: 1.4px; stroke: rgb(230, 159, 0); stroke-opacity: 1;"/></g><g class="errorbar" style="opacity: 1;"><path class="xerror" d="M259.9,173.4v12m0,-6H199.47m0,-6v12" style="vector-effect: none; stroke-width: 1.4px; stroke: rgb(230, 159, 0); stroke-opacity: 1;"/></g><g class="errorbar" style="opacity: 1;"><path class="xerror" d="M269.7,242.4v12m0,-6H249.86m0,-6v12" style="vector-effect: none; stroke-width: 1.4px; stroke: rgb(230, 159, 0); stroke-opacity: 1;"/></g></g><g class="lines"/><g class="points"><path class="point" transform="translate(154.42,41.4)" d="M6.5,0A6.5,6.5 0 1,1 0,-6.5A6.5,6.5 0 0,1 6.5,0Z" style="opacity: 1; stroke-width: 2px; fill: rgb(230, 159, 0); fill-opacity: 1; stroke: rgb(255, 255, 255); stroke-opacity: 1;"/><path class="point" transform="translate(145.92,110.4)" d="M6.5,0A6.5,6.5 0 1,1 0,-6.5A6.5,6.5 0 0,1 6.5,0Z" style="opacity: 1; stroke-width: 2px; fill: rgb(230, 159, 0); fill-opacity: 1; stroke: rgb(255, 255, 255); stroke-opacity: 1;"/><path class="point" transform="translate(229.68,179.4)" d="M6.5,0A6.5,6.5 0 1,1 0,-6.5A6.5,6.5 0 0,1 6.5,0Z" style="opacity: 1; stroke-width: 2px; fill: rgb(230, 159, 0); fill-opacity: 1; stroke: rgb(255, 255, 255); stroke-opacity: 1;"/><path class="point" transform="translate(259.78,248.4)" d="M6.5,0A6.5,6.5 0 1,1 0,-6.5A6.5,6.5 0 0,1 6.5,0Z" style="opacity: 1; stroke-width: 2px; fill: rgb(230, 159, 0); fill-opacity: 1; stroke: rgb(255, 255, 255); stroke-opacity: 1;"/></g><g class="text"/></g><g class="trace scatter tracedbc36b" style="stroke-miterlimit: 2; opacity: 1;"><g class="fills"/><g class="errorbars"><g class="errorbar" style="opacity: 1;"><path class="xerror" d="M131.02,311.4v12m0,-6H120.27m0,-6v12" style="vector-effect: none; stroke-width: 1.4px; stroke: rgb(213, 94, 0); stroke-opacity: 1;"/></g></g><g class="lines"/><g class="points"><path class="point" transform="translate(125.65,317.4)" d="M11.05,0L0,11.05L-11.05,0L0,-11.05Z" style="opacity: 1; stroke-width: 2px; fill: rgb(213, 94, 0); fill-opacity: 1; stroke: rgb(255, 255, 255); stroke-opacity: 1;"/></g><g class="text"/></g></g></g></g><g class="zerolinelayer-above"/><path class="xlines-above crisp" d="M500.514,534H852.26M500.514,173.2H852.26" style="fill: none; stroke-width: 2px; stroke: rgb(0, 0, 0); stroke-opacity: 1;"/><path class="ylines-above crisp" d="M501.514,174.2V533M851.26,174.2V533" style="fill: none; stroke-width: 2px; stroke: rgb(0, 0, 0); stroke-opacity: 1;"/><g class="overlines-above"/><g class="xaxislayer-above"><path class="x2tick ticks crisp" d="M0,535v5" transform="translate(502.514,0)" style="stroke: rgb(0, 0, 0); stroke-opacity: 1; stroke-width: 1px;"/><path class="x2tick ticks crisp" d="M0,535v5" transform="translate(618.434,0)" style="stroke: rgb(0, 0, 0); stroke-opacity: 1; stroke-width: 1px;"/><path class="x2tick ticks crisp" d="M0,535v5" transform="translate(734.344,0)" style="stroke: rgb(0, 0, 0); stroke-opacity: 1; stroke-width: 1px;"/><path class="x2tick ticks crisp" d="M0,535v5" transform="translate(850.264,0)" style="stroke: rgb(0, 0, 0); stroke-opacity: 1; stroke-width: 1px;"/><g class="x2tick"><text text-anchor="middle" x="0" y="561.6" transform="translate(502.514,0)" style="font-family: 'Open Sans', verdana, arial, sans-serif; font-size: 18px; fill: rgb(0, 0, 0); fill-opacity: 1; white-space: pre;">0</text></g><g class="x2tick"><text text-anchor="middle" x="0" y="561.6" style="font-family: 'Open Sans', verdana, arial, sans-serif; font-size: 18px; fill: rgb(0, 0, 0); fill-opacity: 1; white-space: pre;" transform="translate(618.434,0)">0.3</text></g><g class="x2tick"><text text-anchor="middle" x="0" y="561.6" style="font-family: 'Open Sans', verdana, arial, sans-serif; font-size: 18px; fill: rgb(0, 0, 0); fill-opacity: 1; white-space: pre;" transform="translate(734.344,0)">0.6</text></g><g class="x2tick"><text text-anchor="middle" x="0" y="561.6" style="font-family: 'Open Sans', verdana, arial, sans-serif; font-size: 18px; fill: rgb(0, 0, 0); fill-opacity: 1; white-space: pre;" transform="translate(850.264,0)">0.9</text></g></g><g class="yaxislayer-above"/><g class="overaxes-above"/></g><g class="subplot x3y3"><g class="layer-subplot"><g class="shapelayer"/><g class="imagelayer"/></g><g class="minor-gridlayer"><g class="x3"/><g class="y3"/></g><g class="gridlayer"><g class="x3"/><g class="y3"/></g><g class="zerolinelayer"/><g class="layer-between"><g class="shapelayer"/><g class="imagelayer"/></g><path class="xlines-below"/><path class="ylines-below"/><g class="overlines-below"/><g class="xaxislayer-below"/><g class="yaxislayer-below"/><g class="overaxes-below"/><g class="overplot"><g class="x3y3" transform="translate(892.3859999999999,174.2)" clip-path="url(#clip1d56e4x3y3plot)"><g class="scatterlayer mlayer"><g class="trace scatter trace41e2e5" style="stroke-miterlimit: 2; opacity: 1;"><g class="fills"/><g class="errorbars"><g class="errorbar" style="opacity: 1;"><path class="xerror" d="M153.04,35.4v12m0,-6H114.4m0,-6v12" style="vector-effect: none; stroke-width: 1.4px; stroke: rgb(230, 159, 0); stroke-opacity: 1;"/></g><g class="errorbar" style="opacity: 1;"><path class="xerror" d="M165.5,104.4v12m0,-6H161.06m0,-6v12" style="vector-effect: none; stroke-width: 1.4px; stroke: rgb(230, 159, 0); stroke-opacity: 1;"/></g><g class="errorbar" style="opacity: 1;"><path class="xerror" d="M213.58,173.4v12m0,-6H156m0,-6v12" style="vector-effect: none; stroke-width: 1.4px; stroke: rgb(230, 159, 0); stroke-opacity: 1;"/></g><g class="errorbar" style="opacity: 1;"><path class="xerror" d="M177.04,242.4v12m0,-6H170.57m0,-6v12" style="vector-effect: none; stroke-width: 1.4px; stroke: rgb(230, 159, 0); stroke-opacity: 1;"/></g></g><g class="lines"/><g class="points"><path class="point" transform="translate(133.72,41.4)" d="M6.5,0A6.5,6.5 0 1,1 0,-6.5A6.5,6.5 0 0,1 6.5,0Z" style="opacity: 1; stroke-width: 2px; fill: rgb(230, 159, 0); fill-opacity: 1; stroke: rgb(255, 255, 255); stroke-opacity: 1;"/><path class="point" transform="translate(163.28,110.4)" d="M6.5,0A6.5,6.5 0 1,1 0,-6.5A6.5,6.5 0 0,1 6.5,0Z" style="opacity: 1; stroke-width: 2px; fill: rgb(230, 159, 0); fill-opacity: 1; stroke: rgb(255, 255, 255); stroke-opacity: 1;"/><path class="point" transform="translate(184.79,179.4)" d="M6.5,0A6.5,6.5 0 1,1 0,-6.5A6.5,6.5 0 0,1 6.5,0Z" style="opacity: 1; stroke-width: 2px; fill: rgb(230, 159, 0); fill-opacity: 1; stroke: rgb(255, 255, 255); stroke-opacity: 1;"/><path class="point" transform="translate(173.81,248.4)" d="M6.5,0A6.5,6.5 0 1,1 0,-6.5A6.5,6.5 0 0,1 6.5,0Z" style="opacity: 1; stroke-width: 2px; fill: rgb(230, 159, 0); fill-opacity: 1; stroke: rgb(255, 255, 255); stroke-opacity: 1;"/></g><g class="text"/></g><g class="trace scatter tracea8494b" style="stroke-miterlimit: 2; opacity: 1;"><g class="fills"/><g class="errorbars"><g class="errorbar" style="opacity: 1;"><path class="xerror" d="M166.64,311.4v12m0,-6H150.79m0,-6v12" style="vector-effect: none; stroke-width: 1.4px; stroke: rgb(213, 94, 0); stroke-opacity: 1;"/></g></g><g class="lines"/><g class="points"><path class="point" transform="translate(158.72,317.4)" d="M11.05,0L0,11.05L-11.05,0L0,-11.05Z" style="opacity: 1; stroke-width: 2px; fill: rgb(213, 94, 0); fill-opacity: 1; stroke: rgb(255, 255, 255); stroke-opacity: 1;"/></g><g class="text"/></g></g></g></g><g class="zerolinelayer-above"/><path class="xlines-above crisp" d="M890.3859999999999,534H1242.132M890.3859999999999,173.2H1242.132" style="fill: none; stroke-width: 2px; stroke: rgb(0, 0, 0); stroke-opacity: 1;"/><path class="ylines-above crisp" d="M891.3859999999999,174.2V533M1241.132,174.2V533" style="fill: none; stroke-width: 2px; stroke: rgb(0, 0, 0); stroke-opacity: 1;"/><g class="overlines-above"/><g class="xaxislayer-above"><path class="x3tick ticks crisp" d="M0,535v5" transform="translate(892.3859999999999,0)" style="stroke: rgb(0, 0, 0); stroke-opacity: 1; stroke-width: 1px;"/><path class="x3tick ticks crisp" d="M0,535v5" transform="translate(1037.2759999999998,0)" style="stroke: rgb(0, 0, 0); stroke-opacity: 1; stroke-width: 1px;"/><path class="x3tick ticks crisp" d="M0,535v5" transform="translate(1182.176,0)" style="stroke: rgb(0, 0, 0); stroke-opacity: 1; stroke-width: 1px;"/><g class="x3tick"><text text-anchor="middle" x="0" y="561.6" transform="translate(892.3859999999999,0)" style="font-family: 'Open Sans', verdana, arial, sans-serif; font-size: 18px; fill: rgb(0, 0, 0); fill-opacity: 1; white-space: pre;">0</text></g><g class="x3tick"><text text-anchor="middle" x="0" y="561.6" style="font-family: 'Open Sans', verdana, arial, sans-serif; font-size: 18px; fill: rgb(0, 0, 0); fill-opacity: 1; white-space: pre;" transform="translate(1037.2759999999998,0)">5</text></g><g class="x3tick"><text text-anchor="middle" x="0" y="561.6" style="font-family: 'Open Sans', verdana, arial, sans-serif; font-size: 18px; fill: rgb(0, 0, 0); fill-opacity: 1; white-space: pre;" transform="translate(1182.176,0)">10</text></g></g><g class="yaxislayer-above"/><g class="overaxes-above"/></g></g><g class="polarlayer"/><g class="smithlayer"/><g class="ternarylayer"/><g class="geolayer"/><g class="funnelarealayer"/><g class="pielayer"/><g class="iciclelayer"/><g class="treemaplayer"/><g class="sunburstlayer"/><g class="glimages"/><defs id="topdefs-1d56e4"><g class="clips"/><clipPath id="legend1d56e4"><rect width="545" height="32" x="0" y="0"/></clipPath></defs><g class="layer-above"><g class="imagelayer"/><g class="shapelayer"><g class="shape-group" data-index="1" clip-path="url(#clip1d56e4x)"><path data-index="1" fill-rule="evenodd" d="M177.042,533L177.042,174.2" style="opacity: 1; stroke: rgb(0, 0, 0); stroke-opacity: 1; fill: rgb(0, 0, 0); fill-opacity: 0; stroke-dasharray: 9px, 9px; stroke-width: 1.8px;"/></g><g class="shape-group" data-index="3" clip-path="url(#clip1d56e4x2)"><path data-index="3" fill-rule="evenodd" d="M618.434,533L618.434,174.2" style="opacity: 1; stroke: rgb(0, 0, 0); stroke-opacity: 1; fill: rgb(0, 0, 0); fill-opacity: 0; stroke-dasharray: 9px, 9px; stroke-width: 1.8px;"/></g><g class="shape-group" data-index="5" clip-path="url(#clip1d56e4x3)"><path data-index="5" fill-rule="evenodd" d="M1182.176,533L1182.176,174.2" style="opacity: 1; stroke: rgb(0, 0, 0); stroke-opacity: 1; fill: rgb(0, 0, 0); fill-opacity: 0; stroke-dasharray: 9px, 9px; stroke-width: 1.8px;"/></g><g class="shape-group" data-index="6" clip-path="url(#clip1d56e4y)"><path data-index="6" fill-rule="evenodd" d="M112.642,457.09999999999997L1240.132,457.09999999999997" style="opacity: 1; stroke: rgb(0, 0, 0); stroke-opacity: 0.22; fill: rgb(0, 0, 0); fill-opacity: 0; stroke-dasharray: 3px, 3px; stroke-width: 1.2px;"/></g></g></g><g class="infolayer"><g class="legend" pointer-events="all" transform="translate(363,644.8000000000001)"><rect class="bg" shape-rendering="crispEdges" style="stroke: rgb(68, 68, 68); stroke-opacity: 1; fill: rgb(0, 0, 0); fill-opacity: 0; stroke-width: 0px;" width="545" height="32" x="0" y="0"/><g class="scrollbox" transform="" clip-path="url(#legend1d56e4)"><g class="groups"><g class="traces" transform="translate(0,15.6)" style="opacity: 1;"><text class="legendtext" text-anchor="start" x="40" y="5.46" style="font-family: 'Open Sans', verdana, arial, sans-serif; font-size: 14px; fill: rgb(0, 0, 0); fill-opacity: 1; white-space: pre;">Box-Behnken run</text><g class="layers" style="opacity: 1;"><g class="legendfill"/><g class="legendlines"/><g class="legendsymbols"><g class="legendpoints"><path class="scatterpts" transform="translate(20,0)" d="M6,0A6,6 0 1,1 0,-6A6,6 0 0,1 6,0Z" style="opacity: 1; stroke-width: 2px; fill: rgb(230, 159, 0); fill-opacity: 1; stroke: rgb(0, 0, 0); stroke-opacity: 1;"/></g></g></g><rect class="legendtoggle" x="0" y="-10.6" width="164.390625" height="21.2" style="fill: rgb(0, 0, 0); fill-opacity: 0;"/></g><g class="traces" transform="translate(166.890625,15.6)" style="opacity: 1;"><text class="legendtext" text-anchor="start" x="40" y="5.46" style="font-family: 'Open Sans', verdana, arial, sans-serif; font-size: 14px; fill: rgb(0, 0, 0); fill-opacity: 1; white-space: pre;">DoE-OPT  ·  the optimum the design pointed at</text><g class="layers" style="opacity: 1;"><g class="legendfill"/><g class="legendlines"/><g class="legendsymbols"><g class="legendpoints"><path class="scatterpts" transform="translate(20,0)" d="M7.8,0L0,7.8L-7.8,0L0,-7.8Z" style="opacity: 1; stroke-width: 2px; fill: rgb(213, 94, 0); fill-opacity: 1; stroke: rgb(0, 0, 0); stroke-opacity: 1;"/></g></g></g><rect class="legendtoggle" x="0" y="-10.6" width="375.2646484375" height="21.2" style="fill: rgb(0, 0, 0); fill-opacity: 0;"/></g></g></g><rect class="scrollbar" rx="20" ry="3" width="0" height="0" style="fill: rgb(128, 139, 164); fill-opacity: 1;" x="0" y="0"/></g><g class="g-gtitle"/><g class="g-xtitle"><text class="xtitle" x="286.515" y="592.199609375" text-anchor="middle" style="opacity: 1; font-family: 'Open Sans', verdana, arial, sans-serif; font-size: 18px; fill: rgb(0, 0, 0); fill-opacity: 1; white-space: pre;"><tspan style="font-weight:bold">Droplet size</tspan>, nm</text></g><g class="g-x2title"><text class="x2title" x="676.3870000000001" y="592.199609375" text-anchor="middle" style="opacity: 1; font-family: 'Open Sans', verdana, arial, sans-serif; font-size: 18px; fill: rgb(0, 0, 0); fill-opacity: 1; white-space: pre;"><tspan style="font-weight:bold">PDI</tspan></text></g><g class="g-x3title"><text class="x3title" x="1066.259" y="592.199609375" text-anchor="middle" style="opacity: 1; font-family: 'Open Sans', verdana, arial, sans-serif; font-size: 18px; fill: rgb(0, 0, 0); fill-opacity: 1; white-space: pre;"><tspan style="font-weight:bold">Zeta potential</tspan>, |ζ| mV</text></g><g class="g-ytitle"/><g class="g-y2title"/><g class="g-y3title"/><g class="annotation" data-index="0" style="opacity: 1;"><g class="annotation-text-g" transform="rotate(0,635.5,89.99999999999999)"><g class="cursor-pointer" transform="translate(358,76)"><rect class="bg" x="0.5" y="0.5" width="555" height="27" style="stroke-width: 1px; stroke: rgb(0, 0, 0); stroke-opacity: 0; fill: rgb(0, 0, 0); fill-opacity: 0;"/><text class="annotation-text" text-anchor="middle" x="277.8828125" y="22" style="font-family: 'Open Sans', verdana, arial, sans-serif; font-size: 20px; fill: rgb(0, 0, 0); fill-opacity: 1; white-space: pre;"><tspan style="font-weight:bold">The design of experiments, and what it produced</tspan></text></g></g></g><g class="annotation" data-index="1" style="opacity: 1;"><g class="annotation-text-g" transform="rotate(0,635.5,116.9)"><g class="cursor-pointer" transform="translate(331,106)"><rect class="bg" x="0.5" y="0.5" width="608" height="20" style="stroke-width: 1px; stroke: rgb(0, 0, 0); stroke-opacity: 0; fill: rgb(0, 0, 0); fill-opacity: 0;"/><text class="annotation-text" text-anchor="middle" x="304.4921875" y="16" style="font-family: 'Open Sans', verdana, arial, sans-serif; font-size: 14px; fill: rgb(0, 0, 0); fill-opacity: 0.55; white-space: pre;">Oleic Acid · Tween 80 · PEG 400 — one system, fixed before the first experiment</text></g></g></g></g></svg>