<svg class="main-svg" xmlns="http://www.w3.org/2000/svg" xmlns:xlink="http://www.w3.org/1999/xlink" width="1280" height="720" style="" viewBox="0 0 1280 720"><rect x="0" y="0" width="1280" height="720" style="fill: rgb(255, 255, 255); fill-opacity: 1;"/><defs id="defs-3ff062"><g class="clips"><clipPath id="clip3ff062xyplot" class="plotclip"><rect width="348.0266666666667" height="358.79999999999995"/></clipPath><clipPath id="clip3ff062x2y2plot" class="plotclip"><rect width="348.0266666666667" height="358.79999999999995"/></clipPath><clipPath id="clip3ff062x3y3plot" class="plotclip"><rect width="348.02666666666676" height="358.79999999999995"/></clipPath><clipPath class="axesclip" id="clip3ff062x"><rect x="112.72" y="0" width="348.0266666666667" height="720"/></clipPath><clipPath class="axesclip" id="clip3ff062y"><rect x="0" y="174.2" width="1280" height="358.79999999999995"/></clipPath><clipPath class="axesclip" id="clip3ff062xy"><rect x="112.72" y="174.2" width="348.0266666666667" height="358.79999999999995"/></clipPath><clipPath class="axesclip" id="clip3ff062y2"><rect x="0" y="174.2" width="1280" height="358.79999999999995"/></clipPath><clipPath class="axesclip" id="clip3ff062xy2"><rect x="112.72" y="174.2" width="348.0266666666667" height="358.79999999999995"/></clipPath><clipPath class="axesclip" id="clip3ff062y3"><rect x="0" y="174.2" width="1280" height="358.79999999999995"/></clipPath><clipPath class="axesclip" id="clip3ff062xy3"><rect x="112.72" y="174.2" width="348.0266666666667" height="358.79999999999995"/></clipPath><clipPath class="axesclip" id="clip3ff062x2"><rect x="502.90666666666664" y="0" width="348.0266666666667" height="720"/></clipPath><clipPath class="axesclip" id="clip3ff062x2y"><rect x="502.90666666666664" y="174.2" width="348.0266666666667" height="358.79999999999995"/></clipPath><clipPath class="axesclip" id="clip3ff062x2y2"><rect x="502.90666666666664" y="174.2" width="348.0266666666667" height="358.79999999999995"/></clipPath><clipPath class="axesclip" id="clip3ff062x2y3"><rect x="502.90666666666664" y="174.2" width="348.0266666666667" height="358.79999999999995"/></clipPath><clipPath class="axesclip" id="clip3ff062x3"><rect x="893.0933333333332" y="0" width="348.02666666666676" height="720"/></clipPath><clipPath class="axesclip" id="clip3ff062x3y"><rect x="893.0933333333332" y="174.2" width="348.02666666666676" height="358.79999999999995"/></clipPath><clipPath class="axesclip" id="clip3ff062x3y2"><rect x="893.0933333333332" y="174.2" width="348.02666666666676" height="358.79999999999995"/></clipPath><clipPath class="axesclip" id="clip3ff062x3y3"><rect x="893.0933333333332" y="174.2" width="348.02666666666676" height="358.79999999999995"/></clipPath></g><g class="gradients"/><g class="patterns"/></defs><g class="bglayer"/><g class="layer-below"><g class="imagelayer"/><g class="shapelayer"><g class="shape-group" data-index="0" clip-path="url(#clip3ff062x)"><path data-index="0" fill-rule="evenodd" d="M112.72,533H177.17000000000002V174.2H112.72Z" style="opacity: 1; stroke: rgb(0, 0, 0); stroke-opacity: 0; fill: rgb(0, 0, 0); fill-opacity: 0.055; stroke-width: 0px;"/></g><g class="shape-group" data-index="2" clip-path="url(#clip3ff062x2)"><path data-index="2" fill-rule="evenodd" d="M502.90666666666664,533H618.9166666666666V174.2H502.90666666666664Z" style="opacity: 1; stroke: rgb(0, 0, 0); stroke-opacity: 0; fill: rgb(0, 0, 0); fill-opacity: 0.055; stroke-width: 0px;"/></g><g class="shape-group" data-index="4" clip-path="url(#clip3ff062x3)"><path data-index="4" fill-rule="evenodd" d="M893.0933333333332,533H1183.1133333333332V174.2H893.0933333333332Z" style="opacity: 1; stroke: rgb(0, 0, 0); stroke-opacity: 0; fill: rgb(0, 0, 0); fill-opacity: 0.055; stroke-width: 0px;"/></g></g></g><g class="cartesianlayer"><g class="subplot xy"><g class="layer-subplot"><g class="shapelayer"/><g class="imagelayer"/></g><g class="minor-gridlayer"><g class="x"/><g class="y"/></g><g class="gridlayer"><g class="x"/><g class="y"/></g><g class="zerolinelayer"/><g class="layer-between"><g class="shapelayer"/><g class="imagelayer"/></g><path class="xlines-below"/><path class="ylines-below"/><g class="overlines-below"/><g class="xaxislayer-below"/><g class="yaxislayer-below"/><g class="overaxes-below"/><g class="overplot"><g class="xy" transform="translate(112.72,174.2)" clip-path="url(#clip3ff062xyplot)"><g class="scatterlayer mlayer"><g class="trace scatter trace0973b8" style="stroke-miterlimit: 2; opacity: 1;"><g class="fills"/><g class="errorbars"><g class="errorbar" style="opacity: 1;"><path class="xerror" d="M174.95,35.4v12m0,-6H112.88m0,-6v12" style="vector-effect: none; stroke-width: 1.4px; stroke: rgb(230, 159, 0); stroke-opacity: 1;"/></g><g class="errorbar" style="opacity: 1;"><path class="xerror" d="M234.66,104.4v12m0,-6H164.25m0,-6v12" style="vector-effect: none; stroke-width: 1.4px; stroke: rgb(230, 159, 0); stroke-opacity: 1;"/></g><g class="errorbar" style="opacity: 1;"><path class="xerror" d="M434,173.4v12m0,-6H167.47m0,-6v12" style="vector-effect: none; stroke-width: 1.4px; stroke: rgb(230, 159, 0); stroke-opacity: 1;"/></g><g class="errorbar" style="opacity: 1;"><path class="xerror" d="M391.43,242.4v12m0,-6H159.38m0,-6v12" style="vector-effect: none; stroke-width: 1.4px; stroke: rgb(230, 159, 0); stroke-opacity: 1;"/></g></g><g class="lines"/><g class="points"><path class="point" transform="translate(143.92,41.4)" d="M6.5,0A6.5,6.5 0 1,1 0,-6.5A6.5,6.5 0 0,1 6.5,0Z" style="opacity: 1; stroke-width: 2px; fill: rgb(230, 159, 0); fill-opacity: 1; stroke: rgb(255, 255, 255); stroke-opacity: 1;"/><path class="point" transform="translate(199.46,110.4)" d="M6.5,0A6.5,6.5 0 1,1 0,-6.5A6.5,6.5 0 0,1 6.5,0Z" style="opacity: 1; stroke-width: 2px; fill: rgb(230, 159, 0); fill-opacity: 1; stroke: rgb(255, 255, 255); stroke-opacity: 1;"/><path class="point" transform="translate(300.74,179.4)" d="M6.5,0A6.5,6.5 0 1,1 0,-6.5A6.5,6.5 0 0,1 6.5,0Z" style="opacity: 1; stroke-width: 2px; fill: rgb(230, 159, 0); fill-opacity: 1; stroke: rgb(255, 255, 255); stroke-opacity: 1;"/><path class="point" transform="translate(275.41,248.4)" d="M6.5,0A6.5,6.5 0 1,1 0,-6.5A6.5,6.5 0 0,1 6.5,0Z" style="opacity: 1; stroke-width: 2px; fill: rgb(230, 159, 0); fill-opacity: 1; stroke: rgb(255, 255, 255); stroke-opacity: 1;"/></g><g class="text"/></g><g class="trace scatter tracee39c72" style="stroke-miterlimit: 2; opacity: 1;"><g class="fills"/><g class="errorbars"><g class="errorbar" style="opacity: 1;"><path class="xerror" d="M122.31,311.4v12m0,-6H115.59m0,-6v12" style="vector-effect: none; stroke-width: 1.4px; stroke: rgb(213, 94, 0); stroke-opacity: 1;"/></g></g><g class="lines"/><g class="points"><path class="point" transform="translate(118.95,317.4)" d="M11.05,0L0,11.05L-11.05,0L0,-11.05Z" style="opacity: 1; stroke-width: 2px; fill: rgb(213, 94, 0); fill-opacity: 1; stroke: rgb(255, 255, 255); stroke-opacity: 1;"/></g><g class="text"/></g><g class="trace scatter trace8aa29d" style="stroke-miterlimit: 2; opacity: 1;"><g class="fills"/><g class="errorbars"/><g class="lines"/><g class="points"/><g class="text"/></g><g class="trace scatter traceae5e29" style="stroke-miterlimit: 2; opacity: 1;"><g class="fills"/><g class="errorbars"/><g class="lines"/><g class="points"/><g class="text"/></g></g></g></g><g class="zerolinelayer-above"/><path class="xlines-above crisp" d="M110.72,534H462.74666666666667M110.72,173.2H462.74666666666667" style="fill: none; stroke-width: 2px; stroke: rgb(0, 0, 0); stroke-opacity: 1;"/><path class="ylines-above crisp" d="M111.72,174.2V533M461.74666666666667,174.2V533" style="fill: none; stroke-width: 2px; stroke: rgb(0, 0, 0); stroke-opacity: 1;"/><g class="overlines-above"/><g class="xaxislayer-above"><path class="xtick ticks crisp" d="M0,535v5" transform="translate(112.72,0)" style="stroke: rgb(0, 0, 0); stroke-opacity: 1; stroke-width: 1px;"/><path class="xtick ticks crisp" d="M0,535v5" transform="translate(177.17000000000002,0)" style="stroke: rgb(0, 0, 0); stroke-opacity: 1; stroke-width: 1px;"/><path class="xtick ticks crisp" d="M0,535v5" transform="translate(306.07,0)" style="stroke: rgb(0, 0, 0); stroke-opacity: 1; stroke-width: 1px;"/><path class="xtick ticks crisp" d="M0,535v5" transform="translate(434.97,0)" style="stroke: rgb(0, 0, 0); stroke-opacity: 1; stroke-width: 1px;"/><g class="xtick"><text text-anchor="middle" x="0" y="561.6" transform="translate(112.72,0)" style="font-family: 'Gmarket Sans TTF Medium', Pretendard, 'Open Sans', verdana, arial, sans-serif; font-size: 18px; fill: rgb(0, 0, 0); fill-opacity: 1; white-space: pre;">0</text></g><g class="xtick"><text text-anchor="middle" x="0" y="561.6" style="font-family: 'Gmarket Sans TTF Medium', Pretendard, 'Open Sans', verdana, arial, sans-serif; font-size: 18px; fill: rgb(0, 0, 0); fill-opacity: 1; white-space: pre;" transform="translate(177.17000000000002,0)">100</text></g><g class="xtick"><text text-anchor="middle" x="0" y="561.6" style="font-family: 'Gmarket Sans TTF Medium', Pretendard, 'Open Sans', verdana, arial, sans-serif; font-size: 18px; fill: rgb(0, 0, 0); fill-opacity: 1; white-space: pre;" transform="translate(306.07,0)">300</text></g><g class="xtick"><text text-anchor="middle" x="0" y="561.6" style="font-family: 'Gmarket Sans TTF Medium', Pretendard, 'Open Sans', verdana, arial, sans-serif; font-size: 18px; fill: rgb(0, 0, 0); fill-opacity: 1; white-space: pre;" transform="translate(434.97,0)">500</text></g></g><g class="yaxislayer-above"><g class="ytick"><text text-anchor="end" x="107.12" y="6.3" transform="translate(0,215.6)" style="font-family: 'Gmarket Sans TTF Medium', Pretendard, 'Open Sans', verdana, arial, sans-serif; font-size: 18px; fill: rgb(0, 0, 0); fill-opacity: 1; white-space: pre;">DoE-1</text></g><g class="ytick"><text text-anchor="end" x="107.12" y="6.3" style="font-family: 'Gmarket Sans TTF Medium', Pretendard, 'Open Sans', verdana, arial, sans-serif; font-size: 18px; fill: rgb(0, 0, 0); fill-opacity: 1; white-space: pre;" transform="translate(0,284.6)">DoE-4</text></g><g class="ytick"><text text-anchor="end" x="107.12" y="6.3" style="font-family: 'Gmarket Sans TTF Medium', Pretendard, 'Open Sans', verdana, arial, sans-serif; font-size: 18px; fill: rgb(0, 0, 0); fill-opacity: 1; white-space: pre;" transform="translate(0,353.6)">DoE-10</text></g><g class="ytick"><text text-anchor="end" x="107.12" y="6.3" style="font-family: 'Gmarket Sans TTF Medium', Pretendard, 'Open Sans', verdana, arial, sans-serif; font-size: 18px; fill: rgb(0, 0, 0); fill-opacity: 1; white-space: pre;" transform="translate(0,422.6)">DoE-11</text></g><g class="ytick"><text text-anchor="end" x="107.12" y="6.3" style="font-family: 'Gmarket Sans TTF Medium', Pretendard, 'Open Sans', verdana, arial, sans-serif; font-size: 18px; fill: rgb(0, 0, 0); fill-opacity: 1; white-space: pre;" transform="translate(0,491.59999999999997)">DoE-OPT</text></g></g><g class="overaxes-above"/></g><g class="subplot x2y2"><g class="layer-subplot"><g class="shapelayer"/><g class="imagelayer"/></g><g class="minor-gridlayer"><g class="x2"/><g class="y2"/></g><g class="gridlayer"><g class="x2"/><g class="y2"/></g><g class="zerolinelayer"/><g class="layer-between"><g class="shapelayer"/><g class="imagelayer"/></g><path class="xlines-below"/><path class="ylines-below"/><g class="overlines-below"/><g class="xaxislayer-below"/><g class="yaxislayer-below"/><g class="overaxes-below"/><g class="overplot"><g class="x2y2" transform="translate(502.90666666666664,174.2)" clip-path="url(#clip3ff062x2y2plot)"><g class="scatterlayer mlayer"><g class="trace scatter trace66572f" style="stroke-miterlimit: 2; opacity: 1;"><g class="fills"/><g class="errorbars"><g class="errorbar" style="opacity: 1;"><path class="xerror" d="M187.29,35.4v12m0,-6H121.81m0,-6v12" style="vector-effect: none; stroke-width: 1.4px; stroke: rgb(230, 159, 0); stroke-opacity: 1;"/></g><g class="errorbar" style="opacity: 1;"><path class="xerror" d="M183.01,104.4v12m0,-6H109.08m0,-6v12" style="vector-effect: none; stroke-width: 1.4px; stroke: rgb(230, 159, 0); stroke-opacity: 1;"/></g><g class="errorbar" style="opacity: 1;"><path class="xerror" d="M260.11,173.4v12m0,-6H199.63m0,-6v12" style="vector-effect: none; stroke-width: 1.4px; stroke: rgb(230, 159, 0); stroke-opacity: 1;"/></g><g class="errorbar" style="opacity: 1;"><path class="xerror" d="M269.91,242.4v12m0,-6H250.06m0,-6v12" style="vector-effect: none; stroke-width: 1.4px; stroke: rgb(230, 159, 0); stroke-opacity: 1;"/></g></g><g class="lines"/><g class="points"><path class="point" transform="translate(154.55,41.4)" d="M6.5,0A6.5,6.5 0 1,1 0,-6.5A6.5,6.5 0 0,1 6.5,0Z" style="opacity: 1; stroke-width: 2px; fill: rgb(230, 159, 0); fill-opacity: 1; stroke: rgb(255, 255, 255); stroke-opacity: 1;"/><path class="point" transform="translate(146.04,110.4)" d="M6.5,0A6.5,6.5 0 1,1 0,-6.5A6.5,6.5 0 0,1 6.5,0Z" style="opacity: 1; stroke-width: 2px; fill: rgb(230, 159, 0); fill-opacity: 1; stroke: rgb(255, 255, 255); stroke-opacity: 1;"/><path class="point" transform="translate(229.87,179.4)" d="M6.5,0A6.5,6.5 0 1,1 0,-6.5A6.5,6.5 0 0,1 6.5,0Z" style="opacity: 1; stroke-width: 2px; fill: rgb(230, 159, 0); fill-opacity: 1; stroke: rgb(255, 255, 255); stroke-opacity: 1;"/><path class="point" transform="translate(259.99,248.4)" d="M6.5,0A6.5,6.5 0 1,1 0,-6.5A6.5,6.5 0 0,1 6.5,0Z" style="opacity: 1; stroke-width: 2px; fill: rgb(230, 159, 0); fill-opacity: 1; stroke: rgb(255, 255, 255); stroke-opacity: 1;"/></g><g class="text"/></g><g class="trace scatter trace2fbebc" style="stroke-miterlimit: 2; opacity: 1;"><g class="fills"/><g class="errorbars"><g class="errorbar" style="opacity: 1;"><path class="xerror" d="M131.13,311.4v12m0,-6H120.37m0,-6v12" style="vector-effect: none; stroke-width: 1.4px; stroke: rgb(213, 94, 0); stroke-opacity: 1;"/></g></g><g class="lines"/><g class="points"><path class="point" transform="translate(125.75,317.4)" d="M11.05,0L0,11.05L-11.05,0L0,-11.05Z" style="opacity: 1; stroke-width: 2px; fill: rgb(213, 94, 0); fill-opacity: 1; stroke: rgb(255, 255, 255); stroke-opacity: 1;"/></g><g class="text"/></g></g></g></g><g class="zerolinelayer-above"/><path class="xlines-above crisp" d="M500.90666666666664,534H852.9333333333334M500.90666666666664,173.2H852.9333333333334" style="fill: none; stroke-width: 2px; stroke: rgb(0, 0, 0); stroke-opacity: 1;"/><path class="ylines-above crisp" d="M501.90666666666664,174.2V533M851.9333333333334,174.2V533" style="fill: none; stroke-width: 2px; stroke: rgb(0, 0, 0); stroke-opacity: 1;"/><g class="overlines-above"/><g class="xaxislayer-above"><path class="x2tick ticks crisp" d="M0,535v5" transform="translate(502.90666666666664,0)" style="stroke: rgb(0, 0, 0); stroke-opacity: 1; stroke-width: 1px;"/><path class="x2tick ticks crisp" d="M0,535v5" transform="translate(618.9166666666666,0)" style="stroke: rgb(0, 0, 0); stroke-opacity: 1; stroke-width: 1px;"/><path class="x2tick ticks crisp" d="M0,535v5" transform="translate(734.9266666666666,0)" style="stroke: rgb(0, 0, 0); stroke-opacity: 1; stroke-width: 1px;"/><path class="x2tick ticks crisp" d="M0,535v5" transform="translate(850.9366666666666,0)" style="stroke: rgb(0, 0, 0); stroke-opacity: 1; stroke-width: 1px;"/><g class="x2tick"><text text-anchor="middle" x="0" y="561.6" transform="translate(502.90666666666664,0)" style="font-family: 'Gmarket Sans TTF Medium', Pretendard, 'Open Sans', verdana, arial, sans-serif; font-size: 18px; fill: rgb(0, 0, 0); fill-opacity: 1; white-space: pre;">0</text></g><g class="x2tick"><text text-anchor="middle" x="0" y="561.6" style="font-family: 'Gmarket Sans TTF Medium', Pretendard, 'Open Sans', verdana, arial, sans-serif; font-size: 18px; fill: rgb(0, 0, 0); fill-opacity: 1; white-space: pre;" transform="translate(618.9166666666666,0)">0.3</text></g><g class="x2tick"><text text-anchor="middle" x="0" y="561.6" style="font-family: 'Gmarket Sans TTF Medium', Pretendard, 'Open Sans', verdana, arial, sans-serif; font-size: 18px; fill: rgb(0, 0, 0); fill-opacity: 1; white-space: pre;" transform="translate(734.9266666666666,0)">0.6</text></g><g class="x2tick"><text text-anchor="middle" x="0" y="561.6" style="font-family: 'Gmarket Sans TTF Medium', Pretendard, 'Open Sans', verdana, arial, sans-serif; font-size: 18px; fill: rgb(0, 0, 0); fill-opacity: 1; white-space: pre;" transform="translate(850.9366666666666,0)">0.9</text></g></g><g class="yaxislayer-above"/><g class="overaxes-above"/></g><g class="subplot x3y3"><g class="layer-subplot"><g class="shapelayer"/><g class="imagelayer"/></g><g class="minor-gridlayer"><g class="x3"/><g class="y3"/></g><g class="gridlayer"><g class="x3"/><g class="y3"/></g><g class="zerolinelayer"/><g class="layer-between"><g class="shapelayer"/><g class="imagelayer"/></g><path class="xlines-below"/><path class="ylines-below"/><g class="overlines-below"/><g class="xaxislayer-below"/><g class="yaxislayer-below"/><g class="overaxes-below"/><g class="overplot"><g class="x3y3" transform="translate(893.0933333333332,174.2)" clip-path="url(#clip3ff062x3y3plot)"><g class="scatterlayer mlayer"><g class="trace scatter trace39330e" style="stroke-miterlimit: 2; opacity: 1;"><g class="fills"/><g class="errorbars"><g class="errorbar" style="opacity: 1;"><path class="xerror" d="M153.16,35.4v12m0,-6H114.49m0,-6v12" style="vector-effect: none; stroke-width: 1.4px; stroke: rgb(230, 159, 0); stroke-opacity: 1;"/></g><g class="errorbar" style="opacity: 1;"><path class="xerror" d="M165.63,104.4v12m0,-6H161.19m0,-6v12" style="vector-effect: none; stroke-width: 1.4px; stroke: rgb(230, 159, 0); stroke-opacity: 1;"/></g><g class="errorbar" style="opacity: 1;"><path class="xerror" d="M213.75,173.4v12m0,-6H156.13m0,-6v12" style="vector-effect: none; stroke-width: 1.4px; stroke: rgb(230, 159, 0); stroke-opacity: 1;"/></g><g class="errorbar" style="opacity: 1;"><path class="xerror" d="M177.19,242.4v12m0,-6H170.71m0,-6v12" style="vector-effect: none; stroke-width: 1.4px; stroke: rgb(230, 159, 0); stroke-opacity: 1;"/></g></g><g class="lines"/><g class="points"><path class="point" transform="translate(133.83,41.4)" d="M6.5,0A6.5,6.5 0 1,1 0,-6.5A6.5,6.5 0 0,1 6.5,0Z" style="opacity: 1; stroke-width: 2px; fill: rgb(230, 159, 0); fill-opacity: 1; stroke: rgb(255, 255, 255); stroke-opacity: 1;"/><path class="point" transform="translate(163.41,110.4)" d="M6.5,0A6.5,6.5 0 1,1 0,-6.5A6.5,6.5 0 0,1 6.5,0Z" style="opacity: 1; stroke-width: 2px; fill: rgb(230, 159, 0); fill-opacity: 1; stroke: rgb(255, 255, 255); stroke-opacity: 1;"/><path class="point" transform="translate(184.94,179.4)" d="M6.5,0A6.5,6.5 0 1,1 0,-6.5A6.5,6.5 0 0,1 6.5,0Z" style="opacity: 1; stroke-width: 2px; fill: rgb(230, 159, 0); fill-opacity: 1; stroke: rgb(255, 255, 255); stroke-opacity: 1;"/><path class="point" transform="translate(173.95,248.4)" d="M6.5,0A6.5,6.5 0 1,1 0,-6.5A6.5,6.5 0 0,1 6.5,0Z" style="opacity: 1; stroke-width: 2px; fill: rgb(230, 159, 0); fill-opacity: 1; stroke: rgb(255, 255, 255); stroke-opacity: 1;"/></g><g class="text"/></g><g class="trace scatter trace1ffb36" style="stroke-miterlimit: 2; opacity: 1;"><g class="fills"/><g class="errorbars"><g class="errorbar" style="opacity: 1;"><path class="xerror" d="M166.78,311.4v12m0,-6H150.92m0,-6v12" style="vector-effect: none; stroke-width: 1.4px; stroke: rgb(213, 94, 0); stroke-opacity: 1;"/></g></g><g class="lines"/><g class="points"><path class="point" transform="translate(158.85,317.4)" d="M11.05,0L0,11.05L-11.05,0L0,-11.05Z" style="opacity: 1; stroke-width: 2px; fill: rgb(213, 94, 0); fill-opacity: 1; stroke: rgb(255, 255, 255); stroke-opacity: 1;"/></g><g class="text"/></g></g></g></g><g class="zerolinelayer-above"/><path class="xlines-above crisp" d="M891.0933333333332,534H1243.12M891.0933333333332,173.2H1243.12" style="fill: none; stroke-width: 2px; stroke: rgb(0, 0, 0); stroke-opacity: 1;"/><path class="ylines-above crisp" d="M892.0933333333332,174.2V533M1242.12,174.2V533" style="fill: none; stroke-width: 2px; stroke: rgb(0, 0, 0); stroke-opacity: 1;"/><g class="overlines-above"/><g class="xaxislayer-above"><path class="x3tick ticks crisp" d="M0,535v5" transform="translate(893.0933333333332,0)" style="stroke: rgb(0, 0, 0); stroke-opacity: 1; stroke-width: 1px;"/><path class="x3tick ticks crisp" d="M0,535v5" transform="translate(1038.1033333333332,0)" style="stroke: rgb(0, 0, 0); stroke-opacity: 1; stroke-width: 1px;"/><path class="x3tick ticks crisp" d="M0,535v5" transform="translate(1183.1133333333332,0)" style="stroke: rgb(0, 0, 0); stroke-opacity: 1; stroke-width: 1px;"/><g class="x3tick"><text text-anchor="middle" x="0" y="561.6" transform="translate(893.0933333333332,0)" style="font-family: 'Gmarket Sans TTF Medium', Pretendard, 'Open Sans', verdana, arial, sans-serif; font-size: 18px; fill: rgb(0, 0, 0); fill-opacity: 1; white-space: pre;">0</text></g><g class="x3tick"><text text-anchor="middle" x="0" y="561.6" style="font-family: 'Gmarket Sans TTF Medium', Pretendard, 'Open Sans', verdana, arial, sans-serif; font-size: 18px; fill: rgb(0, 0, 0); fill-opacity: 1; white-space: pre;" transform="translate(1038.1033333333332,0)">5</text></g><g class="x3tick"><text text-anchor="middle" x="0" y="561.6" style="font-family: 'Gmarket Sans TTF Medium', Pretendard, 'Open Sans', verdana, arial, sans-serif; font-size: 18px; fill: rgb(0, 0, 0); fill-opacity: 1; white-space: pre;" transform="translate(1183.1133333333332,0)">10</text></g></g><g class="yaxislayer-above"/><g class="overaxes-above"/></g></g><g class="polarlayer"/><g class="smithlayer"/><g class="ternarylayer"/><g class="geolayer"/><g class="funnelarealayer"/><g class="pielayer"/><g class="iciclelayer"/><g class="treemaplayer"/><g class="sunburstlayer"/><g class="glimages"/><defs id="topdefs-3ff062"><g class="clips"/><clipPath id="legend3ff062"><rect width="490" height="32" x="0" y="0"/></clipPath></defs><g class="layer-above"><g class="imagelayer"/><g class="shapelayer"><g class="shape-group" data-index="1" clip-path="url(#clip3ff062x)"><path data-index="1" fill-rule="evenodd" d="M177.17000000000002,533L177.17000000000002,174.2" style="opacity: 1; stroke: rgb(0, 0, 0); stroke-opacity: 1; fill: rgb(0, 0, 0); fill-opacity: 0; stroke-dasharray: 9px, 9px; stroke-width: 1.8px;"/></g><g class="shape-group" data-index="3" clip-path="url(#clip3ff062x2)"><path data-index="3" fill-rule="evenodd" d="M618.9166666666666,533L618.9166666666666,174.2" style="opacity: 1; stroke: rgb(0, 0, 0); stroke-opacity: 1; fill: rgb(0, 0, 0); fill-opacity: 0; stroke-dasharray: 9px, 9px; stroke-width: 1.8px;"/></g><g class="shape-group" data-index="5" clip-path="url(#clip3ff062x3)"><path data-index="5" fill-rule="evenodd" d="M1183.1133333333332,533L1183.1133333333332,174.2" style="opacity: 1; stroke: rgb(0, 0, 0); stroke-opacity: 1; fill: rgb(0, 0, 0); fill-opacity: 0; stroke-dasharray: 9px, 9px; stroke-width: 1.8px;"/></g><g class="shape-group" data-index="6" clip-path="url(#clip3ff062y)"><path data-index="6" fill-rule="evenodd" d="M112.72,457.09999999999997L1241.12,457.09999999999997" style="opacity: 1; stroke: rgb(0, 0, 0); stroke-opacity: 0.22; fill: rgb(0, 0, 0); fill-opacity: 0; stroke-dasharray: 3px, 3px; stroke-width: 1.2px;"/></g></g></g><g class="infolayer"><g class="legend" pointer-events="all" transform="translate(391,644.8000000000001)"><rect class="bg" shape-rendering="crispEdges" style="stroke: rgb(68, 68, 68); stroke-opacity: 1; fill: rgb(0, 0, 0); fill-opacity: 0; stroke-width: 0px;" width="490" height="32" x="0" y="0"/><g class="scrollbox" transform="" clip-path="url(#legend3ff062)"><g class="groups"><g class="traces" transform="translate(0,15.6)" style="opacity: 1;"><text class="legendtext" text-anchor="start" x="40" y="5.46" style="font-family: Pretendard, 'Open Sans', verdana, arial, sans-serif; font-size: 14px; fill: rgb(0, 0, 0); fill-opacity: 1; white-space: pre;">Box-Behnken run</text><g class="layers" style="opacity: 1;"><g class="legendfill"/><g class="legendlines"/><g class="legendsymbols"><g class="legendpoints"><path class="scatterpts" transform="translate(20,0)" d="M6,0A6,6 0 1,1 0,-6A6,6 0 0,1 6,0Z" style="opacity: 1; stroke-width: 2px; fill: rgb(230, 159, 0); fill-opacity: 1; stroke: rgb(0, 0, 0); stroke-opacity: 1;"/></g></g></g><rect class="legendtoggle" x="0" y="-10.6" width="150.4072265625" height="21.2" style="fill: rgb(0, 0, 0); fill-opacity: 0;"/></g><g class="traces" transform="translate(152.9072265625,15.6)" style="opacity: 1;"><text class="legendtext" text-anchor="start" x="40" y="5.46" style="font-family: Pretendard, 'Open Sans', verdana, arial, sans-serif; font-size: 14px; fill: rgb(0, 0, 0); fill-opacity: 1; white-space: pre;">DoE-OPT  ·  the optimum the design pointed at</text><g class="layers" style="opacity: 1;"><g class="legendfill"/><g class="legendlines"/><g class="legendsymbols"><g class="legendpoints"><path class="scatterpts" transform="translate(20,0)" d="M7.8,0L0,7.8L-7.8,0L0,-7.8Z" style="opacity: 1; stroke-width: 2px; fill: rgb(213, 94, 0); fill-opacity: 1; stroke: rgb(0, 0, 0); stroke-opacity: 1;"/></g></g></g><rect class="legendtoggle" x="0" y="-10.6" width="334.3974609375" height="21.2" style="fill: rgb(0, 0, 0); fill-opacity: 0;"/></g></g></g><rect class="scrollbar" rx="20" ry="3" width="0" height="0" style="fill: rgb(128, 139, 164); fill-opacity: 1;" x="0" y="0"/></g><g class="g-gtitle"/><g class="g-xtitle"><text class="xtitle" x="286.73333333333335" y="594.199609375" text-anchor="middle" style="opacity: 1; font-family: 'Gmarket Sans TTF Medium', Pretendard, 'Open Sans', verdana, arial, sans-serif; font-size: 18px; fill: rgb(0, 0, 0); fill-opacity: 1; white-space: pre;"><tspan style="font-weight:bold">Droplet size</tspan>, nm</text></g><g class="g-x2title"><text class="x2title" x="676.92" y="594.199609375" text-anchor="middle" style="opacity: 1; font-family: 'Gmarket Sans TTF Medium', Pretendard, 'Open Sans', verdana, arial, sans-serif; font-size: 18px; fill: rgb(0, 0, 0); fill-opacity: 1; white-space: pre;"><tspan style="font-weight:bold">PDI</tspan></text></g><g class="g-x3title"><text class="x3title" x="1067.1066666666666" y="594.199609375" text-anchor="middle" style="opacity: 1; font-family: 'Gmarket Sans TTF Medium', Pretendard, 'Open Sans', verdana, arial, sans-serif; font-size: 18px; fill: rgb(0, 0, 0); fill-opacity: 1; white-space: pre;"><tspan style="font-weight:bold">Zeta potential</tspan>, |ζ| mV</text></g><g class="g-ytitle"/><g class="g-y2title"/><g class="g-y3title"/><g class="annotation" data-index="0" style="opacity: 1;"><g class="annotation-text-g" transform="rotate(0,636,89.99999999999999)"><g class="cursor-pointer" transform="translate(367,76)"><rect class="bg" x="0.5" y="0.5" width="538" height="27" style="stroke-width: 1px; stroke: rgb(0, 0, 0); stroke-opacity: 0; fill: rgb(0, 0, 0); fill-opacity: 0;"/><text class="annotation-text" text-anchor="middle" x="269.921875" y="18" style="font-family: 'Gmarket Sans TTF Medium', Pretendard, 'Open Sans', verdana, arial, sans-serif; font-size: 20px; fill: rgb(0, 0, 0); fill-opacity: 1; white-space: pre;"><tspan style="font-weight:bold">The design of experiments, and what it produced</tspan></text></g></g></g><g class="annotation" data-index="1" style="opacity: 1;"><g class="annotation-text-g" transform="rotate(0,636,117.4)"><g class="cursor-pointer" transform="translate(364,107)"><rect class="bg" x="0.5" y="0.5" width="544" height="19" style="stroke-width: 1px; stroke: rgb(0, 0, 0); stroke-opacity: 0; fill: rgb(0, 0, 0); fill-opacity: 0;"/><text class="annotation-text" text-anchor="middle" x="272.515625" y="15" style="font-family: Pretendard, 'Open Sans', verdana, arial, sans-serif; font-size: 14px; fill: rgb(0, 0, 0); fill-opacity: 0.55; white-space: pre;">Oleic Acid · Tween 80 · PEG 400 — one system, fixed before the first experiment</text></g></g></g></g></svg>