<svg class="main-svg" xmlns="http://www.w3.org/2000/svg" xmlns:xlink="http://www.w3.org/1999/xlink" width="1000" height="958" style="" viewBox="0 0 1000 958"><rect x="0" y="0" width="1000" height="958" style="fill: rgb(252, 252, 251); fill-opacity: 1;"/><defs id="defs-bdc7d6"><g class="clips"><clipPath id="clipbdc7d6xyplot" class="plotclip"><rect width="850" height="758"/></clipPath><clipPath class="axesclip" id="clipbdc7d6x"><rect x="90" y="0" width="850" height="958"/></clipPath><clipPath class="axesclip" id="clipbdc7d6y"><rect x="0" y="70" width="1000" height="758"/></clipPath><clipPath class="axesclip" id="clipbdc7d6xy"><rect x="90" y="70" width="850" height="758"/></clipPath></g><g class="gradients"/><g class="patterns"/></defs><g class="bglayer"/><g class="layer-below"><g class="imagelayer"/><g class="shapelayer"/></g><g class="cartesianlayer"><g class="subplot xy"><g class="layer-subplot"><g class="shapelayer"/><g class="imagelayer"/></g><g class="minor-gridlayer"><g class="x"/><g class="y"/></g><g class="gridlayer"><g class="x"><path class="xgrid crisp" transform="translate(95.79,0)" d="M0,70v758" style="stroke: rgb(225, 224, 217); stroke-opacity: 1; stroke-width: 0.8px;"/><path class="xgrid crisp" transform="translate(192.37,0)" d="M0,70v758" style="stroke: rgb(225, 224, 217); stroke-opacity: 1; stroke-width: 0.8px;"/><path class="xgrid crisp" transform="translate(288.94,0)" d="M0,70v758" style="stroke: rgb(225, 224, 217); stroke-opacity: 1; stroke-width: 0.8px;"/><path class="xgrid crisp" transform="translate(385.52,0)" d="M0,70v758" style="stroke: rgb(225, 224, 217); stroke-opacity: 1; stroke-width: 0.8px;"/><path class="xgrid crisp" transform="translate(482.09,0)" d="M0,70v758" style="stroke: rgb(225, 224, 217); stroke-opacity: 1; stroke-width: 0.8px;"/><path class="xgrid crisp" transform="translate(578.6700000000001,0)" d="M0,70v758" style="stroke: rgb(225, 224, 217); stroke-opacity: 1; stroke-width: 0.8px;"/><path class="xgrid crisp" transform="translate(675.24,0)" d="M0,70v758" style="stroke: rgb(225, 224, 217); stroke-opacity: 1; stroke-width: 0.8px;"/><path class="xgrid crisp" transform="translate(771.81,0)" d="M0,70v758" style="stroke: rgb(225, 224, 217); stroke-opacity: 1; stroke-width: 0.8px;"/><path class="xgrid crisp" transform="translate(868.39,0)" d="M0,70v758" style="stroke: rgb(225, 224, 217); stroke-opacity: 1; stroke-width: 0.8px;"/></g><g class="y"/></g><g class="zerolinelayer"/><g class="layer-between"><g class="shapelayer"/><g class="imagelayer"/></g><path class="xlines-below"/><path class="ylines-below"/><g class="overlines-below"/><g class="xaxislayer-below"/><g class="yaxislayer-below"/><g class="overaxes-below"/><g class="overplot"><g class="xy" transform="translate(90,70)" clip-path="url(#clipbdc7d6xyplot)"><g class="barlayer mlayer"><g class="trace bars" style="opacity: 1;"><g class="points"><g class="point"><path d="M5.79,56.52V30.53H136.15V56.52Z" style="vector-effect: none; opacity: 1; stroke-width: 0px; fill: rgb(237, 161, 0); fill-opacity: 1;"/></g><g class="point"><path d="M5.79,98.46V72.46H167.27V98.46Z" style="vector-effect: none; opacity: 1; stroke-width: 0px; fill: rgb(237, 161, 0); fill-opacity: 1;"/></g><g class="point"><path d="M5.79,140.39V114.39H182V140.39Z" style="vector-effect: none; opacity: 1; stroke-width: 0px; fill: rgb(237, 161, 0); fill-opacity: 1;"/></g><g class="point"><path d="M5.79,266.2V240.2H215.29V266.2Z" style="vector-effect: none; opacity: 1; stroke-width: 0px; fill: rgb(237, 161, 0); fill-opacity: 1;"/></g><g class="point"><path d="M5.79,308.13V282.13H228.18V308.13Z" style="vector-effect: none; opacity: 1; stroke-width: 0px; fill: rgb(237, 161, 0); fill-opacity: 1;"/></g><g class="point"><path d="M5.79,350.07V324.07H243.15V350.07Z" style="vector-effect: none; opacity: 1; stroke-width: 0px; fill: rgb(237, 161, 0); fill-opacity: 1;"/></g><g class="point"><path d="M5.79,392V366H290.73V392Z" style="vector-effect: none; opacity: 1; stroke-width: 0px; fill: rgb(237, 161, 0); fill-opacity: 1;"/></g><g class="point"><path d="M5.79,433.93V407.93H379.47V433.93Z" style="vector-effect: none; opacity: 1; stroke-width: 0px; fill: rgb(237, 161, 0); fill-opacity: 1;"/></g><g class="point"><path d="M5.79,475.87V449.87H421.82V475.87Z" style="vector-effect: none; opacity: 1; stroke-width: 0px; fill: rgb(237, 161, 0); fill-opacity: 1;"/></g><g class="point"><path d="M5.79,517.8V491.8H438.02V517.8Z" style="vector-effect: none; opacity: 1; stroke-width: 0px; fill: rgb(237, 161, 0); fill-opacity: 1;"/></g><g class="point"><path d="M5.79,559.74V533.74H445.52V559.74Z" style="vector-effect: none; opacity: 1; stroke-width: 0px; fill: rgb(237, 161, 0); fill-opacity: 1;"/></g><g class="point"><path d="M5.79,601.67V575.67H447V601.67Z" style="vector-effect: none; opacity: 1; stroke-width: 0px; fill: rgb(237, 161, 0); fill-opacity: 1;"/></g><g class="point"><path d="M5.79,685.54V659.54H468.66V685.54Z" style="vector-effect: none; opacity: 1; stroke-width: 0px; fill: rgb(237, 161, 0); fill-opacity: 1;"/></g><g class="point"><path d="M5.79,727.47V701.48H580.16V727.47Z" style="vector-effect: none; opacity: 1; stroke-width: 0px; fill: rgb(237, 161, 0); fill-opacity: 1;"/></g></g></g><g class="trace bars" style="opacity: 1;"><g class="points"><g class="point"><path d="M5.79,182.33V156.33H182.84V182.33Z" style="vector-effect: none; opacity: 1; stroke-width: 0px; fill: rgb(27, 175, 122); fill-opacity: 1;"/></g><g class="point"><path d="M5.79,224.26V198.26H193.19V224.26Z" style="vector-effect: none; opacity: 1; stroke-width: 0px; fill: rgb(27, 175, 122); fill-opacity: 1;"/></g><g class="point"><path d="M5.79,643.61V617.61H457.58V643.61Z" style="vector-effect: none; opacity: 1; stroke-width: 0px; fill: rgb(27, 175, 122); fill-opacity: 1;"/></g></g></g></g><g class="scatterlayer mlayer"><g class="trace scatter tracee0eca1" style="stroke-miterlimit: 2; opacity: 1;"><g class="fills"/><g class="errorbars"/><g class="lines"/><g class="points"><path class="point plotly-customdata" transform="translate(72.15,43.52)" d="M4.5,0A4.5,4.5 0 1,1 0,-4.5A4.5,4.5 0 0,1 4.5,0Z" style="opacity: 0.7; stroke-width: 1.2px; fill: rgb(11, 11, 11); fill-opacity: 1; stroke: rgb(252, 252, 251); stroke-opacity: 1;"/><path class="point plotly-customdata" transform="translate(76.99,85.46)" d="M4.5,0A4.5,4.5 0 1,1 0,-4.5A4.5,4.5 0 0,1 4.5,0Z" style="opacity: 0.7; stroke-width: 1.2px; fill: rgb(11, 11, 11); fill-opacity: 1; stroke: rgb(252, 252, 251); stroke-opacity: 1;"/><path class="point plotly-customdata" transform="translate(82.08,253.2)" d="M4.5,0A4.5,4.5 0 1,1 0,-4.5A4.5,4.5 0 0,1 4.5,0Z" style="opacity: 0.7; stroke-width: 1.2px; fill: rgb(11, 11, 11); fill-opacity: 1; stroke: rgb(252, 252, 251); stroke-opacity: 1;"/><path class="point plotly-customdata" transform="translate(103.59,85.46)" d="M4.5,0A4.5,4.5 0 1,1 0,-4.5A4.5,4.5 0 0,1 4.5,0Z" style="opacity: 0.7; stroke-width: 1.2px; fill: rgb(11, 11, 11); fill-opacity: 1; stroke: rgb(252, 252, 251); stroke-opacity: 1;"/><path class="point plotly-customdata" transform="translate(120.93,43.52)" d="M4.5,0A4.5,4.5 0 1,1 0,-4.5A4.5,4.5 0 0,1 4.5,0Z" style="opacity: 0.7; stroke-width: 1.2px; fill: rgb(11, 11, 11); fill-opacity: 1; stroke: rgb(252, 252, 251); stroke-opacity: 1;"/><path class="point plotly-customdata" transform="translate(131.85,672.54)" d="M4.5,0A4.5,4.5 0 1,1 0,-4.5A4.5,4.5 0 0,1 4.5,0Z" style="opacity: 0.7; stroke-width: 1.2px; fill: rgb(11, 11, 11); fill-opacity: 1; stroke: rgb(252, 252, 251); stroke-opacity: 1;"/><path class="point plotly-customdata" transform="translate(159.25,337.07)" d="M4.5,0A4.5,4.5 0 1,1 0,-4.5A4.5,4.5 0 0,1 4.5,0Z" style="opacity: 0.7; stroke-width: 1.2px; fill: rgb(11, 11, 11); fill-opacity: 1; stroke: rgb(252, 252, 251); stroke-opacity: 1;"/><path class="point plotly-customdata" transform="translate(161.94,127.39)" d="M4.5,0A4.5,4.5 0 1,1 0,-4.5A4.5,4.5 0 0,1 4.5,0Z" style="opacity: 0.7; stroke-width: 1.2px; fill: rgb(11, 11, 11); fill-opacity: 1; stroke: rgb(252, 252, 251); stroke-opacity: 1;"/><path class="point plotly-customdata" transform="translate(166.76,295.13)" d="M4.5,0A4.5,4.5 0 1,1 0,-4.5A4.5,4.5 0 0,1 4.5,0Z" style="opacity: 0.7; stroke-width: 1.2px; fill: rgb(11, 11, 11); fill-opacity: 1; stroke: rgb(252, 252, 251); stroke-opacity: 1;"/><path class="point plotly-customdata" transform="translate(168.75,127.39)" d="M4.5,0A4.5,4.5 0 1,1 0,-4.5A4.5,4.5 0 0,1 4.5,0Z" style="opacity: 0.7; stroke-width: 1.2px; fill: rgb(11, 11, 11); fill-opacity: 1; stroke: rgb(252, 252, 251); stroke-opacity: 1;"/><path class="point plotly-customdata" transform="translate(204.23,337.07)" d="M4.5,0A4.5,4.5 0 1,1 0,-4.5A4.5,4.5 0 0,1 4.5,0Z" style="opacity: 0.7; stroke-width: 1.2px; fill: rgb(11, 11, 11); fill-opacity: 1; stroke: rgb(252, 252, 251); stroke-opacity: 1;"/><path class="point plotly-customdata" transform="translate(211.44,462.87)" d="M4.5,0A4.5,4.5 0 1,1 0,-4.5A4.5,4.5 0 0,1 4.5,0Z" style="opacity: 0.7; stroke-width: 1.2px; fill: rgb(11, 11, 11); fill-opacity: 1; stroke: rgb(252, 252, 251); stroke-opacity: 1;"/><path class="point plotly-customdata" transform="translate(215.31,127.39)" d="M4.5,0A4.5,4.5 0 1,1 0,-4.5A4.5,4.5 0 0,1 4.5,0Z" style="opacity: 0.7; stroke-width: 1.2px; fill: rgb(11, 11, 11); fill-opacity: 1; stroke: rgb(252, 252, 251); stroke-opacity: 1;"/><path class="point plotly-customdata" transform="translate(215.36,43.52)" d="M4.5,0A4.5,4.5 0 1,1 0,-4.5A4.5,4.5 0 0,1 4.5,0Z" style="opacity: 0.7; stroke-width: 1.2px; fill: rgb(11, 11, 11); fill-opacity: 1; stroke: rgb(252, 252, 251); stroke-opacity: 1;"/><path class="point plotly-customdata" transform="translate(241.61,295.13)" d="M4.5,0A4.5,4.5 0 1,1 0,-4.5A4.5,4.5 0 0,1 4.5,0Z" style="opacity: 0.7; stroke-width: 1.2px; fill: rgb(11, 11, 11); fill-opacity: 1; stroke: rgb(252, 252, 251); stroke-opacity: 1;"/><path class="point plotly-customdata" transform="translate(254.46,253.2)" d="M4.5,0A4.5,4.5 0 1,1 0,-4.5A4.5,4.5 0 0,1 4.5,0Z" style="opacity: 0.7; stroke-width: 1.2px; fill: rgb(11, 11, 11); fill-opacity: 1; stroke: rgb(252, 252, 251); stroke-opacity: 1;"/><path class="point plotly-customdata" transform="translate(262.48,420.93)" d="M4.5,0A4.5,4.5 0 1,1 0,-4.5A4.5,4.5 0 0,1 4.5,0Z" style="opacity: 0.7; stroke-width: 1.2px; fill: rgb(11, 11, 11); fill-opacity: 1; stroke: rgb(252, 252, 251); stroke-opacity: 1;"/><path class="point plotly-customdata" transform="translate(274.97,379)" d="M4.5,0A4.5,4.5 0 1,1 0,-4.5A4.5,4.5 0 0,1 4.5,0Z" style="opacity: 0.7; stroke-width: 1.2px; fill: rgb(11, 11, 11); fill-opacity: 1; stroke: rgb(252, 252, 251); stroke-opacity: 1;"/><path class="point plotly-customdata" transform="translate(276.18,295.13)" d="M4.5,0A4.5,4.5 0 1,1 0,-4.5A4.5,4.5 0 0,1 4.5,0Z" style="opacity: 0.7; stroke-width: 1.2px; fill: rgb(11, 11, 11); fill-opacity: 1; stroke: rgb(252, 252, 251); stroke-opacity: 1;"/><path class="point plotly-customdata" transform="translate(286.88,379)" d="M4.5,0A4.5,4.5 0 1,1 0,-4.5A4.5,4.5 0 0,1 4.5,0Z" style="opacity: 0.7; stroke-width: 1.2px; fill: rgb(11, 11, 11); fill-opacity: 1; stroke: rgb(252, 252, 251); stroke-opacity: 1;"/><path class="point plotly-customdata" transform="translate(309.34,253.2)" d="M4.5,0A4.5,4.5 0 1,1 0,-4.5A4.5,4.5 0 0,1 4.5,0Z" style="opacity: 0.7; stroke-width: 1.2px; fill: rgb(11, 11, 11); fill-opacity: 1; stroke: rgb(252, 252, 251); stroke-opacity: 1;"/><path class="point plotly-customdata" transform="translate(310.35,379)" d="M4.5,0A4.5,4.5 0 1,1 0,-4.5A4.5,4.5 0 0,1 4.5,0Z" style="opacity: 0.7; stroke-width: 1.2px; fill: rgb(11, 11, 11); fill-opacity: 1; stroke: rgb(252, 252, 251); stroke-opacity: 1;"/><path class="point plotly-customdata" transform="translate(321.22,85.46)" d="M4.5,0A4.5,4.5 0 1,1 0,-4.5A4.5,4.5 0 0,1 4.5,0Z" style="opacity: 0.7; stroke-width: 1.2px; fill: rgb(11, 11, 11); fill-opacity: 1; stroke: rgb(252, 252, 251); stroke-opacity: 1;"/><path class="point plotly-customdata" transform="translate(365.97,337.07)" d="M4.5,0A4.5,4.5 0 1,1 0,-4.5A4.5,4.5 0 0,1 4.5,0Z" style="opacity: 0.7; stroke-width: 1.2px; fill: rgb(11, 11, 11); fill-opacity: 1; stroke: rgb(252, 252, 251); stroke-opacity: 1;"/><path class="point plotly-customdata" transform="translate(374.92,588.67)" d="M4.5,0A4.5,4.5 0 1,1 0,-4.5A4.5,4.5 0 0,1 4.5,0Z" style="opacity: 0.7; stroke-width: 1.2px; fill: rgb(11, 11, 11); fill-opacity: 1; stroke: rgb(252, 252, 251); stroke-opacity: 1;"/><path class="point plotly-customdata" transform="translate(382.61,504.8)" d="M4.5,0A4.5,4.5 0 1,1 0,-4.5A4.5,4.5 0 0,1 4.5,0Z" style="opacity: 0.7; stroke-width: 1.2px; fill: rgb(11, 11, 11); fill-opacity: 1; stroke: rgb(252, 252, 251); stroke-opacity: 1;"/><path class="point plotly-customdata" transform="translate(386,546.74)" d="M4.5,0A4.5,4.5 0 1,1 0,-4.5A4.5,4.5 0 0,1 4.5,0Z" style="opacity: 0.7; stroke-width: 1.2px; fill: rgb(11, 11, 11); fill-opacity: 1; stroke: rgb(252, 252, 251); stroke-opacity: 1;"/><path class="point plotly-customdata" transform="translate(391.66,420.93)" d="M4.5,0A4.5,4.5 0 1,1 0,-4.5A4.5,4.5 0 0,1 4.5,0Z" style="opacity: 0.7; stroke-width: 1.2px; fill: rgb(11, 11, 11); fill-opacity: 1; stroke: rgb(252, 252, 251); stroke-opacity: 1;"/><path class="point plotly-customdata" transform="translate(433.05,546.74)" d="M4.5,0A4.5,4.5 0 1,1 0,-4.5A4.5,4.5 0 0,1 4.5,0Z" style="opacity: 0.7; stroke-width: 1.2px; fill: rgb(11, 11, 11); fill-opacity: 1; stroke: rgb(252, 252, 251); stroke-opacity: 1;"/><path class="point plotly-customdata" transform="translate(451.06,504.8)" d="M4.5,0A4.5,4.5 0 1,1 0,-4.5A4.5,4.5 0 0,1 4.5,0Z" style="opacity: 0.7; stroke-width: 1.2px; fill: rgb(11, 11, 11); fill-opacity: 1; stroke: rgb(252, 252, 251); stroke-opacity: 1;"/><path class="point plotly-customdata" transform="translate(461.08,588.67)" d="M4.5,0A4.5,4.5 0 1,1 0,-4.5A4.5,4.5 0 0,1 4.5,0Z" style="opacity: 0.7; stroke-width: 1.2px; fill: rgb(11, 11, 11); fill-opacity: 1; stroke: rgb(252, 252, 251); stroke-opacity: 1;"/><path class="point plotly-customdata" transform="translate(480.4,504.8)" d="M4.5,0A4.5,4.5 0 1,1 0,-4.5A4.5,4.5 0 0,1 4.5,0Z" style="opacity: 0.7; stroke-width: 1.2px; fill: rgb(11, 11, 11); fill-opacity: 1; stroke: rgb(252, 252, 251); stroke-opacity: 1;"/><path class="point plotly-customdata" transform="translate(484.26,420.93)" d="M4.5,0A4.5,4.5 0 1,1 0,-4.5A4.5,4.5 0 0,1 4.5,0Z" style="opacity: 0.7; stroke-width: 1.2px; fill: rgb(11, 11, 11); fill-opacity: 1; stroke: rgb(252, 252, 251); stroke-opacity: 1;"/><path class="point plotly-customdata" transform="translate(500.89,672.54)" d="M4.5,0A4.5,4.5 0 1,1 0,-4.5A4.5,4.5 0 0,1 4.5,0Z" style="opacity: 0.7; stroke-width: 1.2px; fill: rgb(11, 11, 11); fill-opacity: 1; stroke: rgb(252, 252, 251); stroke-opacity: 1;"/><path class="point plotly-customdata" transform="translate(504.37,462.87)" d="M4.5,0A4.5,4.5 0 1,1 0,-4.5A4.5,4.5 0 0,1 4.5,0Z" style="opacity: 0.7; stroke-width: 1.2px; fill: rgb(11, 11, 11); fill-opacity: 1; stroke: rgb(252, 252, 251); stroke-opacity: 1;"/><path class="point plotly-customdata" transform="translate(505.01,588.67)" d="M4.5,0A4.5,4.5 0 1,1 0,-4.5A4.5,4.5 0 0,1 4.5,0Z" style="opacity: 0.7; stroke-width: 1.2px; fill: rgb(11, 11, 11); fill-opacity: 1; stroke: rgb(252, 252, 251); stroke-opacity: 1;"/><path class="point plotly-customdata" transform="translate(517.51,546.74)" d="M4.5,0A4.5,4.5 0 1,1 0,-4.5A4.5,4.5 0 0,1 4.5,0Z" style="opacity: 0.7; stroke-width: 1.2px; fill: rgb(11, 11, 11); fill-opacity: 1; stroke: rgb(252, 252, 251); stroke-opacity: 1;"/><path class="point plotly-customdata" transform="translate(535.64,714.48)" d="M4.5,0A4.5,4.5 0 1,1 0,-4.5A4.5,4.5 0 0,1 4.5,0Z" style="opacity: 0.7; stroke-width: 1.2px; fill: rgb(11, 11, 11); fill-opacity: 1; stroke: rgb(252, 252, 251); stroke-opacity: 1;"/><path class="point plotly-customdata" transform="translate(549.66,462.87)" d="M4.5,0A4.5,4.5 0 1,1 0,-4.5A4.5,4.5 0 0,1 4.5,0Z" style="opacity: 0.7; stroke-width: 1.2px; fill: rgb(11, 11, 11); fill-opacity: 1; stroke: rgb(252, 252, 251); stroke-opacity: 1;"/><path class="point plotly-customdata" transform="translate(550.37,714.48)" d="M4.5,0A4.5,4.5 0 1,1 0,-4.5A4.5,4.5 0 0,1 4.5,0Z" style="opacity: 0.7; stroke-width: 1.2px; fill: rgb(11, 11, 11); fill-opacity: 1; stroke: rgb(252, 252, 251); stroke-opacity: 1;"/><path class="point plotly-customdata" transform="translate(654.48,714.48)" d="M4.5,0A4.5,4.5 0 1,1 0,-4.5A4.5,4.5 0 0,1 4.5,0Z" style="opacity: 0.7; stroke-width: 1.2px; fill: rgb(11, 11, 11); fill-opacity: 1; stroke: rgb(252, 252, 251); stroke-opacity: 1;"/><path class="point plotly-customdata" transform="translate(773.25,672.54)" d="M4.5,0A4.5,4.5 0 1,1 0,-4.5A4.5,4.5 0 0,1 4.5,0Z" style="opacity: 0.7; stroke-width: 1.2px; fill: rgb(11, 11, 11); fill-opacity: 1; stroke: rgb(252, 252, 251); stroke-opacity: 1;"/><path class="point plotly-customdata" transform="translate(46.66,169.33)" d="M4.5,0A4.5,4.5 0 1,1 0,-4.5A4.5,4.5 0 0,1 4.5,0Z" style="opacity: 0.7; stroke-width: 1.2px; fill: rgb(11, 11, 11); fill-opacity: 1; stroke: rgb(252, 252, 251); stroke-opacity: 1;"/><path class="point plotly-customdata" transform="translate(125.91,169.33)" d="M4.5,0A4.5,4.5 0 1,1 0,-4.5A4.5,4.5 0 0,1 4.5,0Z" style="opacity: 0.7; stroke-width: 1.2px; fill: rgb(11, 11, 11); fill-opacity: 1; stroke: rgb(252, 252, 251); stroke-opacity: 1;"/><path class="point plotly-customdata" transform="translate(136.35,211.26)" d="M4.5,0A4.5,4.5 0 1,1 0,-4.5A4.5,4.5 0 0,1 4.5,0Z" style="opacity: 0.7; stroke-width: 1.2px; fill: rgb(11, 11, 11); fill-opacity: 1; stroke: rgb(252, 252, 251); stroke-opacity: 1;"/><path class="point plotly-customdata" transform="translate(178.05,211.26)" d="M4.5,0A4.5,4.5 0 1,1 0,-4.5A4.5,4.5 0 0,1 4.5,0Z" style="opacity: 0.7; stroke-width: 1.2px; fill: rgb(11, 11, 11); fill-opacity: 1; stroke: rgb(252, 252, 251); stroke-opacity: 1;"/><path class="point plotly-customdata" transform="translate(265.18,211.26)" d="M4.5,0A4.5,4.5 0 1,1 0,-4.5A4.5,4.5 0 0,1 4.5,0Z" style="opacity: 0.7; stroke-width: 1.2px; fill: rgb(11, 11, 11); fill-opacity: 1; stroke: rgb(252, 252, 251); stroke-opacity: 1;"/><path class="point plotly-customdata" transform="translate(375.94,169.33)" d="M4.5,0A4.5,4.5 0 1,1 0,-4.5A4.5,4.5 0 0,1 4.5,0Z" style="opacity: 0.7; stroke-width: 1.2px; fill: rgb(11, 11, 11); fill-opacity: 1; stroke: rgb(252, 252, 251); stroke-opacity: 1;"/><path class="point plotly-customdata" transform="translate(425.77,630.61)" d="M4.5,0A4.5,4.5 0 1,1 0,-4.5A4.5,4.5 0 0,1 4.5,0Z" style="opacity: 0.7; stroke-width: 1.2px; fill: rgb(11, 11, 11); fill-opacity: 1; stroke: rgb(252, 252, 251); stroke-opacity: 1;"/><path class="point plotly-customdata" transform="translate(457.44,630.61)" d="M4.5,0A4.5,4.5 0 1,1 0,-4.5A4.5,4.5 0 0,1 4.5,0Z" style="opacity: 0.7; stroke-width: 1.2px; fill: rgb(11, 11, 11); fill-opacity: 1; stroke: rgb(252, 252, 251); stroke-opacity: 1;"/><path class="point plotly-customdata" transform="translate(489.55,630.61)" d="M4.5,0A4.5,4.5 0 1,1 0,-4.5A4.5,4.5 0 0,1 4.5,0Z" style="opacity: 0.7; stroke-width: 1.2px; fill: rgb(11, 11, 11); fill-opacity: 1; stroke: rgb(252, 252, 251); stroke-opacity: 1;"/></g><g class="text"/></g></g></g></g><g class="zerolinelayer-above"/><path class="xlines-above crisp" d="M89,828.5H940" style="fill: none; stroke-width: 1px; stroke: rgb(195, 194, 183); stroke-opacity: 1;"/><path class="ylines-above crisp" d="M89.5,70V828" style="fill: none; stroke-width: 1px; stroke: rgb(195, 194, 183); stroke-opacity: 1;"/><g class="overlines-above"/><g class="xaxislayer-above"><path class="xtick ticks crisp" d="M0,829v5" transform="translate(95.79,0)" style="stroke: rgb(137, 135, 129); stroke-opacity: 1; stroke-width: 1px;"/><path class="xtick ticks crisp" d="M0,829v5" transform="translate(192.37,0)" style="stroke: rgb(137, 135, 129); stroke-opacity: 1; stroke-width: 1px;"/><path class="xtick ticks crisp" d="M0,829v5" transform="translate(288.94,0)" style="stroke: rgb(137, 135, 129); stroke-opacity: 1; stroke-width: 1px;"/><path class="xtick ticks crisp" d="M0,829v5" transform="translate(385.52,0)" style="stroke: rgb(137, 135, 129); stroke-opacity: 1; stroke-width: 1px;"/><path class="xtick ticks crisp" d="M0,829v5" transform="translate(482.09,0)" style="stroke: rgb(137, 135, 129); stroke-opacity: 1; stroke-width: 1px;"/><path class="xtick ticks crisp" d="M0,829v5" transform="translate(578.6700000000001,0)" style="stroke: rgb(137, 135, 129); stroke-opacity: 1; stroke-width: 1px;"/><path class="xtick ticks crisp" d="M0,829v5" transform="translate(675.24,0)" style="stroke: rgb(137, 135, 129); stroke-opacity: 1; stroke-width: 1px;"/><path class="xtick ticks crisp" d="M0,829v5" transform="translate(771.81,0)" style="stroke: rgb(137, 135, 129); stroke-opacity: 1; stroke-width: 1px;"/><path class="xtick ticks crisp" d="M0,829v5" transform="translate(868.39,0)" style="stroke: rgb(137, 135, 129); stroke-opacity: 1; stroke-width: 1px;"/><g class="xtick"><text text-anchor="middle" x="0" y="847.2" transform="translate(95.79,0)" style="font-family: sans-serif; font-size: 11px; fill: rgb(137, 135, 129); fill-opacity: 1; white-space: pre;">0</text></g><g class="xtick"><text text-anchor="middle" x="0" y="847.2" style="font-family: sans-serif; font-size: 11px; fill: rgb(137, 135, 129); fill-opacity: 1; white-space: pre;" transform="translate(192.37,0)">0.5</text></g><g class="xtick"><text text-anchor="middle" x="0" y="847.2" style="font-family: sans-serif; font-size: 11px; fill: rgb(137, 135, 129); fill-opacity: 1; white-space: pre;" transform="translate(288.94,0)">1</text></g><g class="xtick"><text text-anchor="middle" x="0" y="847.2" style="font-family: sans-serif; font-size: 11px; fill: rgb(137, 135, 129); fill-opacity: 1; white-space: pre;" transform="translate(385.52,0)">1.5</text></g><g class="xtick"><text text-anchor="middle" x="0" y="847.2" style="font-family: sans-serif; font-size: 11px; fill: rgb(137, 135, 129); fill-opacity: 1; white-space: pre;" transform="translate(482.09,0)">2</text></g><g class="xtick"><text text-anchor="middle" x="0" y="847.2" style="font-family: sans-serif; font-size: 11px; fill: rgb(137, 135, 129); fill-opacity: 1; white-space: pre;" transform="translate(578.6700000000001,0)">2.5</text></g><g class="xtick"><text text-anchor="middle" x="0" y="847.2" style="font-family: sans-serif; font-size: 11px; fill: rgb(137, 135, 129); fill-opacity: 1; white-space: pre;" transform="translate(675.24,0)">3</text></g><g class="xtick"><text text-anchor="middle" x="0" y="847.2" style="font-family: sans-serif; font-size: 11px; fill: rgb(137, 135, 129); fill-opacity: 1; white-space: pre;" transform="translate(771.81,0)">3.5</text></g><g class="xtick"><text text-anchor="middle" x="0" y="847.2" style="font-family: sans-serif; font-size: 11px; fill: rgb(137, 135, 129); fill-opacity: 1; white-space: pre;" transform="translate(868.39,0)">4</text></g></g><g class="yaxislayer-above"><path class="ytick ticks crisp" d="M89,0h-5" transform="translate(0,784.48)" style="stroke: rgb(137, 135, 129); stroke-opacity: 1; stroke-width: 1px;"/><path class="ytick ticks crisp" d="M89,0h-5" transform="translate(0,742.54)" style="stroke: rgb(137, 135, 129); stroke-opacity: 1; stroke-width: 1px;"/><path class="ytick ticks crisp" d="M89,0h-5" transform="translate(0,700.61)" style="stroke: rgb(137, 135, 129); stroke-opacity: 1; stroke-width: 1px;"/><path class="ytick ticks crisp" d="M89,0h-5" transform="translate(0,658.67)" style="stroke: rgb(137, 135, 129); stroke-opacity: 1; stroke-width: 1px;"/><path class="ytick ticks crisp" d="M89,0h-5" transform="translate(0,616.74)" style="stroke: rgb(137, 135, 129); stroke-opacity: 1; stroke-width: 1px;"/><path class="ytick ticks crisp" d="M89,0h-5" transform="translate(0,574.8)" style="stroke: rgb(137, 135, 129); stroke-opacity: 1; stroke-width: 1px;"/><path class="ytick ticks crisp" d="M89,0h-5" transform="translate(0,532.87)" style="stroke: rgb(137, 135, 129); stroke-opacity: 1; stroke-width: 1px;"/><path class="ytick ticks crisp" d="M89,0h-5" transform="translate(0,490.93)" style="stroke: rgb(137, 135, 129); stroke-opacity: 1; stroke-width: 1px;"/><path class="ytick ticks crisp" d="M89,0h-5" transform="translate(0,449)" style="stroke: rgb(137, 135, 129); stroke-opacity: 1; stroke-width: 1px;"/><path class="ytick ticks crisp" d="M89,0h-5" transform="translate(0,407.07)" style="stroke: rgb(137, 135, 129); stroke-opacity: 1; stroke-width: 1px;"/><path class="ytick ticks crisp" d="M89,0h-5" transform="translate(0,365.13)" style="stroke: rgb(137, 135, 129); stroke-opacity: 1; stroke-width: 1px;"/><path class="ytick ticks crisp" d="M89,0h-5" transform="translate(0,323.2)" style="stroke: rgb(137, 135, 129); stroke-opacity: 1; stroke-width: 1px;"/><path class="ytick ticks crisp" d="M89,0h-5" transform="translate(0,281.26)" style="stroke: rgb(137, 135, 129); stroke-opacity: 1; stroke-width: 1px;"/><path class="ytick ticks crisp" d="M89,0h-5" transform="translate(0,239.33)" style="stroke: rgb(137, 135, 129); stroke-opacity: 1; stroke-width: 1px;"/><path class="ytick ticks crisp" d="M89,0h-5" transform="translate(0,197.39)" style="stroke: rgb(137, 135, 129); stroke-opacity: 1; stroke-width: 1px;"/><path class="ytick ticks crisp" d="M89,0h-5" transform="translate(0,155.45999999999998)" style="stroke: rgb(137, 135, 129); stroke-opacity: 1; stroke-width: 1px;"/><path class="ytick ticks crisp" d="M89,0h-5" transform="translate(0,113.52000000000001)" style="stroke: rgb(137, 135, 129); stroke-opacity: 1; stroke-width: 1px;"/><g class="ytick"><text text-anchor="end" x="81.8" y="3.8499999999999996" transform="translate(-10,784.48)" style="font-family: sans-serif; font-size: 11px; fill: rgb(11, 11, 11); fill-opacity: 1; white-space: pre;">F-A4</text></g><g class="ytick"><text text-anchor="end" x="81.8" y="3.8499999999999996" transform="translate(-10,742.54)" style="font-family: sans-serif; font-size: 11px; fill: rgb(11, 11, 11); fill-opacity: 1; white-space: pre;">F-A3</text></g><g class="ytick"><text text-anchor="end" x="81.8" y="3.8499999999999996" transform="translate(-10,700.61)" style="font-family: sans-serif; font-size: 11px; fill: rgb(11, 11, 11); fill-opacity: 1; white-space: pre;">B4_F</text></g><g class="ytick"><text text-anchor="end" x="81.8" y="3.8499999999999996" transform="translate(-10,658.67)" style="font-family: sans-serif; font-size: 11px; fill: rgb(11, 11, 11); fill-opacity: 1; white-space: pre;">F-C2</text></g><g class="ytick"><text text-anchor="end" x="81.8" y="3.8499999999999996" transform="translate(-10,616.74)" style="font-family: sans-serif; font-size: 11px; fill: rgb(11, 11, 11); fill-opacity: 1; white-space: pre;">F-B4</text></g><g class="ytick"><text text-anchor="end" x="81.8" y="3.8499999999999996" transform="translate(-10,574.8)" style="font-family: sans-serif; font-size: 11px; fill: rgb(11, 11, 11); fill-opacity: 1; white-space: pre;">F-A1</text></g><g class="ytick"><text text-anchor="end" x="81.8" y="3.8499999999999996" transform="translate(-10,532.87)" style="font-family: sans-serif; font-size: 11px; fill: rgb(11, 11, 11); fill-opacity: 1; white-space: pre;">F-A2</text></g><g class="ytick"><text text-anchor="end" x="81.8" y="3.8499999999999996" transform="translate(-10,490.93)" style="font-family: sans-serif; font-size: 11px; fill: rgb(11, 11, 11); fill-opacity: 1; white-space: pre;">F-B2</text></g><g class="ytick"><text text-anchor="end" x="81.8" y="3.8499999999999996" transform="translate(-10,449)" style="font-family: sans-serif; font-size: 11px; fill: rgb(11, 11, 11); fill-opacity: 1; white-space: pre;">F-A5</text></g><g class="ytick"><text text-anchor="end" x="81.8" y="3.8499999999999996" transform="translate(-10,407.07)" style="font-family: sans-serif; font-size: 11px; fill: rgb(11, 11, 11); fill-opacity: 1; white-space: pre;">F-B3</text></g><g class="ytick"><text text-anchor="end" x="81.8" y="3.8499999999999996" transform="translate(-10,365.13)" style="font-family: sans-serif; font-size: 11px; fill: rgb(11, 11, 11); fill-opacity: 1; white-space: pre;">F-C5</text></g><g class="ytick"><text text-anchor="end" x="81.8" y="3.8499999999999996" transform="translate(-10,323.2)" style="font-family: sans-serif; font-size: 11px; fill: rgb(11, 11, 11); fill-opacity: 1; white-space: pre;">F-C1</text></g><g class="ytick"><text text-anchor="end" x="81.8" y="3.8499999999999996" transform="translate(-10,281.26)" style="font-family: sans-serif; font-size: 11px; fill: rgb(11, 11, 11); fill-opacity: 1; white-space: pre;">E2_F</text></g><g class="ytick"><text text-anchor="end" x="81.8" y="3.8499999999999996" transform="translate(-10,239.33)" style="font-family: sans-serif; font-size: 11px; fill: rgb(11, 11, 11); fill-opacity: 1; white-space: pre;">F5_F</text></g><g class="ytick"><text text-anchor="end" x="81.8" y="3.8499999999999996" transform="translate(-10,197.39)" style="font-family: sans-serif; font-size: 11px; fill: rgb(11, 11, 11); fill-opacity: 1; white-space: pre;">F-B5</text></g><g class="ytick"><text text-anchor="end" x="81.8" y="3.8499999999999996" transform="translate(-10,155.45999999999998)" style="font-family: sans-serif; font-size: 11px; fill: rgb(11, 11, 11); fill-opacity: 1; white-space: pre;">F-C3</text></g><g class="ytick"><text text-anchor="end" x="81.8" y="3.8499999999999996" transform="translate(-10,113.52000000000001)" style="font-family: sans-serif; font-size: 11px; fill: rgb(11, 11, 11); fill-opacity: 1; white-space: pre;">F-B1</text></g></g><g class="overaxes-above"/></g></g><g class="polarlayer"/><g class="smithlayer"/><g class="ternarylayer"/><g class="geolayer"/><g class="funnelarealayer"/><g class="pielayer"/><g class="iciclelayer"/><g class="treemaplayer"/><g class="sunburstlayer"/><g class="glimages"/><defs id="topdefs-bdc7d6"><g class="clips"/><clipPath id="legendbdc7d6"><rect width="740" height="29" x="0" y="0"/></clipPath></defs><g class="layer-above"><g class="imagelayer"/><g class="shapelayer"><g class="shape-group" data-index="0" clip-path="url(#clipbdc7d6x)"><path data-index="0" fill-rule="evenodd" d="M95.79,828L95.79,70" style="opacity: 1; stroke: rgb(195, 194, 183); stroke-opacity: 1; fill: rgb(0, 0, 0); fill-opacity: 0; stroke-width: 1px;"/></g></g></g><g class="infolayer"><g class="legend" pointer-events="all" transform="translate(145,888)"><rect class="bg" shape-rendering="crispEdges" style="stroke: rgb(68, 68, 68); stroke-opacity: 1; fill: rgb(252, 252, 251); fill-opacity: 1; stroke-width: 0px;" width="740" height="29" x="0" y="0"/><g class="scrollbox" transform="" clip-path="url(#legendbdc7d6)"><g class="groups"><g class="traces" transform="translate(0,14.5)" style="opacity: 1;"><text class="legendtext" text-anchor="start" x="40" y="4.29" style="font-family: sans-serif; font-size: 11px; fill: rgb(82, 81, 78); fill-opacity: 1; white-space: pre;">Campaign 2 (Bar = Mean Of Per-Rep Objectives)</text><g class="layers" style="opacity: 1;"><g class="legendfill"/><g class="legendlines"/><g class="legendsymbols"><g class="legendpoints"><path class="legendundefined" d="M6,6H-6V-6H6Z" transform="translate(20,0)" style="stroke-width: 0px; fill: rgb(237, 161, 0); fill-opacity: 1;"/></g></g></g><rect class="legendtoggle" x="0" y="-9.5" width="282.7958984375" height="19" style="fill: rgb(0, 0, 0); fill-opacity: 0;"/></g><g class="traces" transform="translate(285.2958984375,14.5)" style="opacity: 1;"><text class="legendtext" text-anchor="start" x="40" y="4.29" style="font-family: sans-serif; font-size: 11px; fill: rgb(82, 81, 78); fill-opacity: 1; white-space: pre;">Campaign 1 Champion (Bar = Mean Of Per-Rep Objectives)</text><g class="layers" style="opacity: 1;"><g class="legendfill"/><g class="legendlines"/><g class="legendsymbols"><g class="legendpoints"><path class="legendundefined" d="M6,6H-6V-6H6Z" transform="translate(20,0)" style="stroke-width: 0px; fill: rgb(27, 175, 122); fill-opacity: 1;"/></g></g></g><rect class="legendtoggle" x="0" y="-9.5" width="335.9912109375" height="19" style="fill: rgb(0, 0, 0); fill-opacity: 0;"/></g><g class="traces" transform="translate(623.787109375,14.5)" style="opacity: 1;"><text class="legendtext" text-anchor="start" x="40" y="4.29" style="font-family: sans-serif; font-size: 11px; fill: rgb(82, 81, 78); fill-opacity: 1; white-space: pre;">Individual Rep</text><g class="layers" style="opacity: 1;"><g class="legendfill"/><g class="legendlines"/><g class="legendsymbols"><g class="legendpoints"><path class="scatterpts" transform="translate(20,0)" d="M4.5,0A4.5,4.5 0 1,1 0,-4.5A4.5,4.5 0 0,1 4.5,0Z" style="opacity: 0.7; stroke-width: 1.2px; fill: rgb(11, 11, 11); fill-opacity: 1; stroke: rgb(252, 252, 251); stroke-opacity: 1;"/></g></g></g><rect class="legendtoggle" x="0" y="-9.5" width="113.09375" height="19" style="fill: rgb(0, 0, 0); fill-opacity: 0;"/></g></g></g><rect class="scrollbar" rx="20" ry="3" width="0" height="0" style="fill: rgb(128, 139, 164); fill-opacity: 1;" x="0" y="0"/></g><g class="g-gtitle"><text class="gtitle" x="10" y="35" text-anchor="start" dy="0em" style="opacity: 1; font-family: sans-serif; font-size: 17px; fill: rgb(11, 11, 11); fill-opacity: 1; white-space: pre;"><tspan class="line" dy="0em" x="10" y="35"><tspan style="font-weight:bold">Feno — Leaderboard</tspan>  (score-then-average)</tspan><tspan class="line" dy="1.3em" x="10" y="35"><tspan style="font-size:11px; fill:#898781">Not Shown (Phase-Separated): F-C4</tspan></tspan></text></g><g class="g-xtitle"><text class="xtitle" x="515" y="869.1001953125" text-anchor="middle" style="opacity: 1; font-family: sans-serif; font-size: 12px; fill: rgb(82, 81, 78); fill-opacity: 1; white-space: pre;">Mean Objective Of Individually-Scored Repeats  (Lower Is Better)</text></g><g class="g-ytitle"/></g></svg>