<svg class="main-svg" xmlns="http://www.w3.org/2000/svg" xmlns:xlink="http://www.w3.org/1999/xlink" width="1000" height="890" style="" viewBox="0 0 1000 890"><rect x="0" y="0" width="1000" height="890" style="fill: rgb(252, 252, 251); fill-opacity: 1;"/><defs id="defs-635ea3"><g class="clips"><clipPath id="clip635ea3xyplot" class="plotclip"><rect width="840" height="665"/></clipPath><clipPath class="axesclip" id="clip635ea3x"><rect x="90" y="0" width="840" height="890"/></clipPath><clipPath class="axesclip" id="clip635ea3y"><rect x="0" y="95" width="1000" height="665"/></clipPath><clipPath class="axesclip" id="clip635ea3xy"><rect x="90" y="95" width="840" height="665"/></clipPath></g><g class="gradients"/><g class="patterns"/></defs><g class="bglayer"/><g class="layer-below"><g class="imagelayer"/><g class="shapelayer"/></g><g class="cartesianlayer"><g class="subplot xy"><g class="layer-subplot"><g class="shapelayer"/><g class="imagelayer"/></g><g class="minor-gridlayer"><g class="x"/><g class="y"/></g><g class="gridlayer"><g class="x"><path class="xgrid crisp" transform="translate(194.01999999999998,0)" d="M0,95v665" style="stroke: rgb(225, 224, 217); stroke-opacity: 1; stroke-width: 0.8px;"/><path class="xgrid crisp" transform="translate(298.03999999999996,0)" d="M0,95v665" style="stroke: rgb(225, 224, 217); stroke-opacity: 1; stroke-width: 0.8px;"/><path class="xgrid crisp" transform="translate(402.07,0)" d="M0,95v665" style="stroke: rgb(225, 224, 217); stroke-opacity: 1; stroke-width: 0.8px;"/><path class="xgrid crisp" transform="translate(506.09,0)" d="M0,95v665" style="stroke: rgb(225, 224, 217); stroke-opacity: 1; stroke-width: 0.8px;"/><path class="xgrid crisp" transform="translate(610.11,0)" d="M0,95v665" style="stroke: rgb(225, 224, 217); stroke-opacity: 1; stroke-width: 0.8px;"/><path class="xgrid crisp" transform="translate(714.13,0)" d="M0,95v665" style="stroke: rgb(225, 224, 217); stroke-opacity: 1; stroke-width: 0.8px;"/><path class="xgrid crisp" transform="translate(818.16,0)" d="M0,95v665" style="stroke: rgb(225, 224, 217); stroke-opacity: 1; stroke-width: 0.8px;"/><path class="xgrid crisp" transform="translate(922.18,0)" d="M0,95v665" style="stroke: rgb(225, 224, 217); stroke-opacity: 1; stroke-width: 0.8px;"/></g><g class="y"/></g><g class="zerolinelayer"/><g class="layer-between"><g class="shapelayer"/><g class="imagelayer"/></g><path class="xlines-below"/><path class="ylines-below"/><g class="overlines-below"/><g class="xaxislayer-below"/><g class="yaxislayer-below"/><g class="overaxes-below"/><g class="overplot"><g class="xy" transform="translate(90,95)"><g class="barlayer mlayer"><g class="trace bars" style="opacity: 1;"><g class="points"><g class="point"><path d="M0,50.25V27.5H16.59V50.25Z" clip-path="url(#clip635ea3xyplot)" style="vector-effect: none; opacity: 1; stroke-width: 0px; fill: rgb(237, 161, 0); fill-opacity: 1;"/></g><g class="point"><path d="M0,86.96V64.2H31.96V86.96Z" clip-path="url(#clip635ea3xyplot)" style="vector-effect: none; opacity: 1; stroke-width: 0px; fill: rgb(237, 161, 0); fill-opacity: 1;"/></g><g class="point"><path d="M0,123.66V100.9H34.65V123.66Z" clip-path="url(#clip635ea3xyplot)" style="vector-effect: none; opacity: 1; stroke-width: 0px; fill: rgb(237, 161, 0); fill-opacity: 1;"/></g><g class="point"><path d="M0,160.36V137.61H43.49V160.36Z" clip-path="url(#clip635ea3xyplot)" style="vector-effect: none; opacity: 1; stroke-width: 0px; fill: rgb(237, 161, 0); fill-opacity: 1;"/></g><g class="point"><path d="M0,197.07V174.31H48.05V197.07Z" clip-path="url(#clip635ea3xyplot)" style="vector-effect: none; opacity: 1; stroke-width: 0px; fill: rgb(237, 161, 0); fill-opacity: 1;"/></g><g class="point"><path d="M0,233.77V211.01H50.51V233.77Z" clip-path="url(#clip635ea3xyplot)" style="vector-effect: none; opacity: 1; stroke-width: 0px; fill: rgb(237, 161, 0); fill-opacity: 1;"/></g><g class="point"><path d="M0,270.47V247.72H50.77V270.47Z" clip-path="url(#clip635ea3xyplot)" style="vector-effect: none; opacity: 1; stroke-width: 0px; fill: rgb(237, 161, 0); fill-opacity: 1;"/></g><g class="point"><path d="M0,307.17V284.42H57.79V307.17Z" clip-path="url(#clip635ea3xyplot)" style="vector-effect: none; opacity: 1; stroke-width: 0px; fill: rgb(237, 161, 0); fill-opacity: 1;"/></g><g class="point"><path d="M0,417.28V394.53H266.79V417.28Z" clip-path="url(#clip635ea3xyplot)" style="vector-effect: none; opacity: 1; stroke-width: 0px; fill: rgb(237, 161, 0); fill-opacity: 1;"/></g><g class="point"><path d="M0,453.99V431.23H349.4V453.99Z" clip-path="url(#clip635ea3xyplot)" style="vector-effect: none; opacity: 1; stroke-width: 0px; fill: rgb(237, 161, 0); fill-opacity: 1;"/></g><g class="point"><path d="M0,490.69V467.93H410.75V490.69Z" clip-path="url(#clip635ea3xyplot)" style="vector-effect: none; opacity: 1; stroke-width: 0px; fill: rgb(237, 161, 0); fill-opacity: 1;"/></g><g class="point"><path d="M0,564.1V541.34H434.12V564.1Z" clip-path="url(#clip635ea3xyplot)" style="vector-effect: none; opacity: 1; stroke-width: 0px; fill: rgb(237, 161, 0); fill-opacity: 1;"/></g><g class="point"><path d="M0,600.8V578.04H477.15V600.8Z" clip-path="url(#clip635ea3xyplot)" style="vector-effect: none; opacity: 1; stroke-width: 0px; fill: rgb(237, 161, 0); fill-opacity: 1;"/></g><g class="point"><path d="M0,637.5V614.75H655.8V637.5Z" clip-path="url(#clip635ea3xyplot)" style="vector-effect: none; opacity: 1; stroke-width: 0px; fill: rgb(237, 161, 0); fill-opacity: 1;"/></g></g></g><g class="trace bars" style="opacity: 1;"><g class="points"><g class="point"><path d="M0,343.88V321.12H57.91V343.88Z" clip-path="url(#clip635ea3xyplot)" style="vector-effect: none; opacity: 1; stroke-width: 0px; fill: rgb(27, 175, 122); fill-opacity: 1;"/></g><g class="point"><path d="M0,380.58V357.83H237.34V380.58Z" clip-path="url(#clip635ea3xyplot)" style="vector-effect: none; opacity: 1; stroke-width: 0px; fill: rgb(27, 175, 122); fill-opacity: 1;"/></g><g class="point"><path d="M0,527.39V504.64H426.91V527.39Z" clip-path="url(#clip635ea3xyplot)" style="vector-effect: none; opacity: 1; stroke-width: 0px; fill: rgb(27, 175, 122); fill-opacity: 1;"/></g></g></g></g><g class="scatterlayer mlayer"><g class="trace scatter tracedcc555" style="stroke-miterlimit: 2; opacity: 1;"><g class="fills" clip-path="url(#clip635ea3xyplot)"/><g class="errorbars"/><g class="lines"/><g class="points" clip-path="url(#clip635ea3xyplot)"><path class="point plotly-customdata" transform="translate(319,442.61)" d="M4.5,0A4.5,4.5 0 1,1 0,-4.5A4.5,4.5 0 0,1 4.5,0Z" style="opacity: 0.7; stroke-width: 1.2px; fill: rgb(11, 11, 11); fill-opacity: 1; stroke: rgb(252, 252, 251); stroke-opacity: 1;"/><path class="point plotly-customdata" transform="translate(26.79,112.28)" d="M4.5,0A4.5,4.5 0 1,1 0,-4.5A4.5,4.5 0 0,1 4.5,0Z" style="opacity: 0.7; stroke-width: 1.2px; fill: rgb(11, 11, 11); fill-opacity: 1; stroke: rgb(252, 252, 251); stroke-opacity: 1;"/><path class="point plotly-customdata" transform="translate(51.23,295.8)" d="M4.5,0A4.5,4.5 0 1,1 0,-4.5A4.5,4.5 0 0,1 4.5,0Z" style="opacity: 0.7; stroke-width: 1.2px; fill: rgb(11, 11, 11); fill-opacity: 1; stroke: rgb(252, 252, 251); stroke-opacity: 1;"/><path class="point plotly-customdata" transform="translate(32.85,112.28)" d="M4.5,0A4.5,4.5 0 1,1 0,-4.5A4.5,4.5 0 0,1 4.5,0Z" style="opacity: 0.7; stroke-width: 1.2px; fill: rgb(11, 11, 11); fill-opacity: 1; stroke: rgb(252, 252, 251); stroke-opacity: 1;"/><path class="point plotly-customdata" transform="translate(369.97,442.61)" d="M4.5,0A4.5,4.5 0 1,1 0,-4.5A4.5,4.5 0 0,1 4.5,0Z" style="opacity: 0.7; stroke-width: 1.2px; fill: rgb(11, 11, 11); fill-opacity: 1; stroke: rgb(252, 252, 251); stroke-opacity: 1;"/><path class="point plotly-customdata" transform="translate(40.4,148.98)" d="M4.5,0A4.5,4.5 0 1,1 0,-4.5A4.5,4.5 0 0,1 4.5,0Z" style="opacity: 0.7; stroke-width: 1.2px; fill: rgb(11, 11, 11); fill-opacity: 1; stroke: rgb(252, 252, 251); stroke-opacity: 1;"/><path class="point plotly-customdata" transform="translate(321.43,405.91)" d="M4.5,0A4.5,4.5 0 1,1 0,-4.5A4.5,4.5 0 0,1 4.5,0Z" style="opacity: 0.7; stroke-width: 1.2px; fill: rgb(11, 11, 11); fill-opacity: 1; stroke: rgb(252, 252, 251); stroke-opacity: 1;"/><path class="point plotly-customdata" transform="translate(16.38,38.88)" d="M4.5,0A4.5,4.5 0 1,1 0,-4.5A4.5,4.5 0 0,1 4.5,0Z" style="opacity: 0.7; stroke-width: 1.2px; fill: rgb(11, 11, 11); fill-opacity: 1; stroke: rgb(252, 252, 251); stroke-opacity: 1;"/><path class="point plotly-customdata" transform="translate(36.58,75.58)" d="M4.5,0A4.5,4.5 0 1,1 0,-4.5A4.5,4.5 0 0,1 4.5,0Z" style="opacity: 0.7; stroke-width: 1.2px; fill: rgb(11, 11, 11); fill-opacity: 1; stroke: rgb(252, 252, 251); stroke-opacity: 1;"/><path class="point plotly-customdata" transform="translate(15.78,38.88)" d="M4.5,0A4.5,4.5 0 1,1 0,-4.5A4.5,4.5 0 0,1 4.5,0Z" style="opacity: 0.7; stroke-width: 1.2px; fill: rgb(11, 11, 11); fill-opacity: 1; stroke: rgb(252, 252, 251); stroke-opacity: 1;"/><path class="point plotly-customdata" transform="translate(407.77,405.91)" d="M4.5,0A4.5,4.5 0 1,1 0,-4.5A4.5,4.5 0 0,1 4.5,0Z" style="opacity: 0.7; stroke-width: 1.2px; fill: rgb(11, 11, 11); fill-opacity: 1; stroke: rgb(252, 252, 251); stroke-opacity: 1;"/><path class="point plotly-customdata" transform="translate(729.89,626.13)" d="M4.5,0A4.5,4.5 0 1,1 0,-4.5A4.5,4.5 0 0,1 4.5,0Z" style="opacity: 0.7; stroke-width: 1.2px; fill: rgb(11, 11, 11); fill-opacity: 1; stroke: rgb(252, 252, 251); stroke-opacity: 1;"/><path class="point plotly-customdata" transform="translate(17.6,38.88)" d="M4.5,0A4.5,4.5 0 1,1 0,-4.5A4.5,4.5 0 0,1 4.5,0Z" style="opacity: 0.7; stroke-width: 1.2px; fill: rgb(11, 11, 11); fill-opacity: 1; stroke: rgb(252, 252, 251); stroke-opacity: 1;"/><path class="point plotly-customdata" transform="translate(359.22,442.61)" d="M4.5,0A4.5,4.5 0 1,1 0,-4.5A4.5,4.5 0 0,1 4.5,0Z" style="opacity: 0.7; stroke-width: 1.2px; fill: rgb(11, 11, 11); fill-opacity: 1; stroke: rgb(252, 252, 251); stroke-opacity: 1;"/><path class="point plotly-customdata" transform="translate(27.91,75.58)" d="M4.5,0A4.5,4.5 0 1,1 0,-4.5A4.5,4.5 0 0,1 4.5,0Z" style="opacity: 0.7; stroke-width: 1.2px; fill: rgb(11, 11, 11); fill-opacity: 1; stroke: rgb(252, 252, 251); stroke-opacity: 1;"/><path class="point plotly-customdata" transform="translate(60.33,295.8)" d="M4.5,0A4.5,4.5 0 1,1 0,-4.5A4.5,4.5 0 0,1 4.5,0Z" style="opacity: 0.7; stroke-width: 1.2px; fill: rgb(11, 11, 11); fill-opacity: 1; stroke: rgb(252, 252, 251); stroke-opacity: 1;"/><path class="point plotly-customdata" transform="translate(61.55,259.09)" d="M4.5,0A4.5,4.5 0 1,1 0,-4.5A4.5,4.5 0 0,1 4.5,0Z" style="opacity: 0.7; stroke-width: 1.2px; fill: rgb(11, 11, 11); fill-opacity: 1; stroke: rgb(252, 252, 251); stroke-opacity: 1;"/><path class="point plotly-customdata" transform="translate(42.82,222.39)" d="M4.5,0A4.5,4.5 0 1,1 0,-4.5A4.5,4.5 0 0,1 4.5,0Z" style="opacity: 0.7; stroke-width: 1.2px; fill: rgb(11, 11, 11); fill-opacity: 1; stroke: rgb(252, 252, 251); stroke-opacity: 1;"/><path class="point plotly-customdata" transform="translate(31.38,75.58)" d="M4.5,0A4.5,4.5 0 1,1 0,-4.5A4.5,4.5 0 0,1 4.5,0Z" style="opacity: 0.7; stroke-width: 1.2px; fill: rgb(11, 11, 11); fill-opacity: 1; stroke: rgb(252, 252, 251); stroke-opacity: 1;"/><path class="point plotly-customdata" transform="translate(54.61,222.39)" d="M4.5,0A4.5,4.5 0 1,1 0,-4.5A4.5,4.5 0 0,1 4.5,0Z" style="opacity: 0.7; stroke-width: 1.2px; fill: rgb(11, 11, 11); fill-opacity: 1; stroke: rgb(252, 252, 251); stroke-opacity: 1;"/><path class="point plotly-customdata" transform="translate(61.81,295.8)" d="M4.5,0A4.5,4.5 0 1,1 0,-4.5A4.5,4.5 0 0,1 4.5,0Z" style="opacity: 0.7; stroke-width: 1.2px; fill: rgb(11, 11, 11); fill-opacity: 1; stroke: rgb(252, 252, 251); stroke-opacity: 1;"/><path class="point plotly-customdata" transform="translate(54.09,222.39)" d="M4.5,0A4.5,4.5 0 1,1 0,-4.5A4.5,4.5 0 0,1 4.5,0Z" style="opacity: 0.7; stroke-width: 1.2px; fill: rgb(11, 11, 11); fill-opacity: 1; stroke: rgb(252, 252, 251); stroke-opacity: 1;"/><path class="point plotly-customdata" transform="translate(44.3,112.28)" d="M4.5,0A4.5,4.5 0 1,1 0,-4.5A4.5,4.5 0 0,1 4.5,0Z" style="opacity: 0.7; stroke-width: 1.2px; fill: rgb(11, 11, 11); fill-opacity: 1; stroke: rgb(252, 252, 251); stroke-opacity: 1;"/><path class="point plotly-customdata" transform="translate(71.17,405.91)" d="M4.5,0A4.5,4.5 0 1,1 0,-4.5A4.5,4.5 0 0,1 4.5,0Z" style="opacity: 0.7; stroke-width: 1.2px; fill: rgb(11, 11, 11); fill-opacity: 1; stroke: rgb(252, 252, 251); stroke-opacity: 1;"/><path class="point plotly-customdata" transform="translate(347.43,552.72)" d="M4.5,0A4.5,4.5 0 1,1 0,-4.5A4.5,4.5 0 0,1 4.5,0Z" style="opacity: 0.7; stroke-width: 1.2px; fill: rgb(11, 11, 11); fill-opacity: 1; stroke: rgb(252, 252, 251); stroke-opacity: 1;"/><path class="point plotly-customdata" transform="translate(41,185.69)" d="M4.5,0A4.5,4.5 0 1,1 0,-4.5A4.5,4.5 0 0,1 4.5,0Z" style="opacity: 0.7; stroke-width: 1.2px; fill: rgb(11, 11, 11); fill-opacity: 1; stroke: rgb(252, 252, 251); stroke-opacity: 1;"/><path class="point plotly-customdata" transform="translate(393.05,589.42)" d="M4.5,0A4.5,4.5 0 1,1 0,-4.5A4.5,4.5 0 0,1 4.5,0Z" style="opacity: 0.7; stroke-width: 1.2px; fill: rgb(11, 11, 11); fill-opacity: 1; stroke: rgb(252, 252, 251); stroke-opacity: 1;"/><path class="point plotly-customdata" transform="translate(52.62,259.09)" d="M4.5,0A4.5,4.5 0 1,1 0,-4.5A4.5,4.5 0 0,1 4.5,0Z" style="opacity: 0.7; stroke-width: 1.2px; fill: rgb(11, 11, 11); fill-opacity: 1; stroke: rgb(252, 252, 251); stroke-opacity: 1;"/><path class="point plotly-customdata" transform="translate(439.01,589.42)" d="M4.5,0A4.5,4.5 0 1,1 0,-4.5A4.5,4.5 0 0,1 4.5,0Z" style="opacity: 0.7; stroke-width: 1.2px; fill: rgb(11, 11, 11); fill-opacity: 1; stroke: rgb(252, 252, 251); stroke-opacity: 1;"/><path class="point plotly-customdata" transform="translate(58.86,185.69)" d="M4.5,0A4.5,4.5 0 1,1 0,-4.5A4.5,4.5 0 0,1 4.5,0Z" style="opacity: 0.7; stroke-width: 1.2px; fill: rgb(11, 11, 11); fill-opacity: 1; stroke: rgb(252, 252, 251); stroke-opacity: 1;"/><path class="point plotly-customdata" transform="translate(358.18,552.72)" d="M4.5,0A4.5,4.5 0 1,1 0,-4.5A4.5,4.5 0 0,1 4.5,0Z" style="opacity: 0.7; stroke-width: 1.2px; fill: rgb(11, 11, 11); fill-opacity: 1; stroke: rgb(252, 252, 251); stroke-opacity: 1;"/><path class="point plotly-customdata" transform="translate(44.3,185.69)" d="M4.5,0A4.5,4.5 0 1,1 0,-4.5A4.5,4.5 0 0,1 4.5,0Z" style="opacity: 0.7; stroke-width: 1.2px; fill: rgb(11, 11, 11); fill-opacity: 1; stroke: rgb(252, 252, 251); stroke-opacity: 1;"/><path class="point plotly-customdata" transform="translate(38.14,259.09)" d="M4.5,0A4.5,4.5 0 1,1 0,-4.5A4.5,4.5 0 0,1 4.5,0Z" style="opacity: 0.7; stroke-width: 1.2px; fill: rgb(11, 11, 11); fill-opacity: 1; stroke: rgb(252, 252, 251); stroke-opacity: 1;"/><path class="point plotly-customdata" transform="translate(47.5,148.98)" d="M4.5,0A4.5,4.5 0 1,1 0,-4.5A4.5,4.5 0 0,1 4.5,0Z" style="opacity: 0.7; stroke-width: 1.2px; fill: rgb(11, 11, 11); fill-opacity: 1; stroke: rgb(252, 252, 251); stroke-opacity: 1;"/><path class="point plotly-customdata" transform="translate(750,626.13)" d="M4.5,0A4.5,4.5 0 1,1 0,-4.5A4.5,4.5 0 0,1 4.5,0Z" style="opacity: 0.7; stroke-width: 1.2px; fill: rgb(11, 11, 11); fill-opacity: 1; stroke: rgb(252, 252, 251); stroke-opacity: 1;"/><path class="point plotly-customdata" transform="translate(596.74,552.72)" d="M4.5,0A4.5,4.5 0 1,1 0,-4.5A4.5,4.5 0 0,1 4.5,0Z" style="opacity: 0.7; stroke-width: 1.2px; fill: rgb(11, 11, 11); fill-opacity: 1; stroke: rgb(252, 252, 251); stroke-opacity: 1;"/><path class="point plotly-customdata" transform="translate(599.4,589.42)" d="M4.5,0A4.5,4.5 0 1,1 0,-4.5A4.5,4.5 0 0,1 4.5,0Z" style="opacity: 0.7; stroke-width: 1.2px; fill: rgb(11, 11, 11); fill-opacity: 1; stroke: rgb(252, 252, 251); stroke-opacity: 1;"/><path class="point plotly-customdata" transform="translate(358.53,479.31)" d="M4.5,0A4.5,4.5 0 1,1 0,-4.5A4.5,4.5 0 0,1 4.5,0Z" style="opacity: 0.7; stroke-width: 1.2px; fill: rgb(11, 11, 11); fill-opacity: 1; stroke: rgb(252, 252, 251); stroke-opacity: 1;"/><path class="point plotly-customdata" transform="translate(487.52,626.13)" d="M4.5,0A4.5,4.5 0 1,1 0,-4.5A4.5,4.5 0 0,1 4.5,0Z" style="opacity: 0.7; stroke-width: 1.2px; fill: rgb(11, 11, 11); fill-opacity: 1; stroke: rgb(252, 252, 251); stroke-opacity: 1;"/><path class="point plotly-customdata" transform="translate(445.07,479.31)" d="M4.5,0A4.5,4.5 0 1,1 0,-4.5A4.5,4.5 0 0,1 4.5,0Z" style="opacity: 0.7; stroke-width: 1.2px; fill: rgb(11, 11, 11); fill-opacity: 1; stroke: rgb(252, 252, 251); stroke-opacity: 1;"/><path class="point plotly-customdata" transform="translate(428.65,479.31)" d="M4.5,0A4.5,4.5 0 1,1 0,-4.5A4.5,4.5 0 0,1 4.5,0Z" style="opacity: 0.7; stroke-width: 1.2px; fill: rgb(11, 11, 11); fill-opacity: 1; stroke: rgb(252, 252, 251); stroke-opacity: 1;"/><path class="point plotly-customdata" transform="translate(42.56,148.98)" d="M4.5,0A4.5,4.5 0 1,1 0,-4.5A4.5,4.5 0 0,1 4.5,0Z" style="opacity: 0.7; stroke-width: 1.2px; fill: rgb(11, 11, 11); fill-opacity: 1; stroke: rgb(252, 252, 251); stroke-opacity: 1;"/><path class="point plotly-customdata" transform="translate(43.34,369.2)" d="M4.5,0A4.5,4.5 0 1,1 0,-4.5A4.5,4.5 0 0,1 4.5,0Z" style="opacity: 0.7; stroke-width: 1.2px; fill: rgb(11, 11, 11); fill-opacity: 1; stroke: rgb(252, 252, 251); stroke-opacity: 1;"/><path class="point plotly-customdata" transform="translate(51.49,369.2)" d="M4.5,0A4.5,4.5 0 1,1 0,-4.5A4.5,4.5 0 0,1 4.5,0Z" style="opacity: 0.7; stroke-width: 1.2px; fill: rgb(11, 11, 11); fill-opacity: 1; stroke: rgb(252, 252, 251); stroke-opacity: 1;"/><path class="point plotly-customdata" transform="translate(59.73,332.5)" d="M4.5,0A4.5,4.5 0 1,1 0,-4.5A4.5,4.5 0 0,1 4.5,0Z" style="opacity: 0.7; stroke-width: 1.2px; fill: rgb(11, 11, 11); fill-opacity: 1; stroke: rgb(252, 252, 251); stroke-opacity: 1;"/><path class="point plotly-customdata" transform="translate(46.64,332.5)" d="M4.5,0A4.5,4.5 0 1,1 0,-4.5A4.5,4.5 0 0,1 4.5,0Z" style="opacity: 0.7; stroke-width: 1.2px; fill: rgb(11, 11, 11); fill-opacity: 1; stroke: rgb(252, 252, 251); stroke-opacity: 1;"/><path class="point plotly-customdata" transform="translate(67.35,332.5)" d="M4.5,0A4.5,4.5 0 1,1 0,-4.5A4.5,4.5 0 0,1 4.5,0Z" style="opacity: 0.7; stroke-width: 1.2px; fill: rgb(11, 11, 11); fill-opacity: 1; stroke: rgb(252, 252, 251); stroke-opacity: 1;"/><path class="point plotly-customdata" transform="translate(617.2,369.2)" d="M4.5,0A4.5,4.5 0 1,1 0,-4.5A4.5,4.5 0 0,1 4.5,0Z" style="opacity: 0.7; stroke-width: 1.2px; fill: rgb(11, 11, 11); fill-opacity: 1; stroke: rgb(252, 252, 251); stroke-opacity: 1;"/><path class="point plotly-customdata" transform="translate(597.51,516.02)" d="M4.5,0A4.5,4.5 0 1,1 0,-4.5A4.5,4.5 0 0,1 4.5,0Z" style="opacity: 0.7; stroke-width: 1.2px; fill: rgb(11, 11, 11); fill-opacity: 1; stroke: rgb(252, 252, 251); stroke-opacity: 1;"/><path class="point plotly-customdata" transform="translate(159.87,516.02)" d="M4.5,0A4.5,4.5 0 1,1 0,-4.5A4.5,4.5 0 0,1 4.5,0Z" style="opacity: 0.7; stroke-width: 1.2px; fill: rgb(11, 11, 11); fill-opacity: 1; stroke: rgb(252, 252, 251); stroke-opacity: 1;"/><path class="point plotly-customdata" transform="translate(523.35,516.02)" d="M4.5,0A4.5,4.5 0 1,1 0,-4.5A4.5,4.5 0 0,1 4.5,0Z" style="opacity: 0.7; stroke-width: 1.2px; fill: rgb(11, 11, 11); fill-opacity: 1; stroke: rgb(252, 252, 251); stroke-opacity: 1;"/></g><g class="text" clip-path="url(#clip635ea3xyplot)"/></g></g></g></g><g class="zerolinelayer-above"/><path class="xlines-above crisp" d="M89,760.5H930" style="fill: none; stroke-width: 1px; stroke: rgb(195, 194, 183); stroke-opacity: 1;"/><path class="ylines-above crisp" d="M89.5,95V760" style="fill: none; stroke-width: 1px; stroke: rgb(195, 194, 183); stroke-opacity: 1;"/><g class="overlines-above"/><g class="xaxislayer-above"><path class="xtick ticks crisp" d="M0,761v5" transform="translate(90,0)" style="stroke: rgb(137, 135, 129); stroke-opacity: 1; stroke-width: 1px;"/><path class="xtick ticks crisp" d="M0,761v5" transform="translate(194.01999999999998,0)" style="stroke: rgb(137, 135, 129); stroke-opacity: 1; stroke-width: 1px;"/><path class="xtick ticks crisp" d="M0,761v5" transform="translate(298.03999999999996,0)" style="stroke: rgb(137, 135, 129); stroke-opacity: 1; stroke-width: 1px;"/><path class="xtick ticks crisp" d="M0,761v5" transform="translate(402.07,0)" style="stroke: rgb(137, 135, 129); stroke-opacity: 1; stroke-width: 1px;"/><path class="xtick ticks crisp" d="M0,761v5" transform="translate(506.09,0)" style="stroke: rgb(137, 135, 129); stroke-opacity: 1; stroke-width: 1px;"/><path class="xtick ticks crisp" d="M0,761v5" transform="translate(610.11,0)" style="stroke: rgb(137, 135, 129); stroke-opacity: 1; stroke-width: 1px;"/><path class="xtick ticks crisp" d="M0,761v5" transform="translate(714.13,0)" style="stroke: rgb(137, 135, 129); stroke-opacity: 1; stroke-width: 1px;"/><path class="xtick ticks crisp" d="M0,761v5" transform="translate(818.16,0)" style="stroke: rgb(137, 135, 129); stroke-opacity: 1; stroke-width: 1px;"/><path class="xtick ticks crisp" d="M0,761v5" transform="translate(922.18,0)" style="stroke: rgb(137, 135, 129); stroke-opacity: 1; stroke-width: 1px;"/><g class="xtick"><text text-anchor="middle" x="0" y="779.2" transform="translate(90,0)" style="font-family: sans-serif; font-size: 11px; fill: rgb(137, 135, 129); fill-opacity: 1; white-space: pre;">0</text></g><g class="xtick"><text text-anchor="middle" x="0" y="779.2" style="font-family: sans-serif; font-size: 11px; fill: rgb(137, 135, 129); fill-opacity: 1; white-space: pre;" transform="translate(194.01999999999998,0)">0.1</text></g><g class="xtick"><text text-anchor="middle" x="0" y="779.2" style="font-family: sans-serif; font-size: 11px; fill: rgb(137, 135, 129); fill-opacity: 1; white-space: pre;" transform="translate(298.03999999999996,0)">0.2</text></g><g class="xtick"><text text-anchor="middle" x="0" y="779.2" style="font-family: sans-serif; font-size: 11px; fill: rgb(137, 135, 129); fill-opacity: 1; white-space: pre;" transform="translate(402.07,0)">0.3</text></g><g class="xtick"><text text-anchor="middle" x="0" y="779.2" style="font-family: sans-serif; font-size: 11px; fill: rgb(137, 135, 129); fill-opacity: 1; white-space: pre;" transform="translate(506.09,0)">0.4</text></g><g class="xtick"><text text-anchor="middle" x="0" y="779.2" style="font-family: sans-serif; font-size: 11px; fill: rgb(137, 135, 129); fill-opacity: 1; white-space: pre;" transform="translate(610.11,0)">0.5</text></g><g class="xtick"><text text-anchor="middle" x="0" y="779.2" style="font-family: sans-serif; font-size: 11px; fill: rgb(137, 135, 129); fill-opacity: 1; white-space: pre;" transform="translate(714.13,0)">0.6</text></g><g class="xtick"><text text-anchor="middle" x="0" y="779.2" style="font-family: sans-serif; font-size: 11px; fill: rgb(137, 135, 129); fill-opacity: 1; white-space: pre;" transform="translate(818.16,0)">0.7</text></g><g class="xtick"><text text-anchor="middle" x="0" y="779.2" style="font-family: sans-serif; font-size: 11px; fill: rgb(137, 135, 129); fill-opacity: 1; white-space: pre;" transform="translate(922.18,0)">0.8</text></g></g><g class="yaxislayer-above"><path class="ytick ticks crisp" d="M89,0h-5" transform="translate(0,721.13)" style="stroke: rgb(137, 135, 129); stroke-opacity: 1; stroke-width: 1px;"/><path class="ytick ticks crisp" d="M89,0h-5" transform="translate(0,684.42)" style="stroke: rgb(137, 135, 129); stroke-opacity: 1; stroke-width: 1px;"/><path class="ytick ticks crisp" d="M89,0h-5" transform="translate(0,647.72)" style="stroke: rgb(137, 135, 129); stroke-opacity: 1; stroke-width: 1px;"/><path class="ytick ticks crisp" d="M89,0h-5" transform="translate(0,611.02)" style="stroke: rgb(137, 135, 129); stroke-opacity: 1; stroke-width: 1px;"/><path class="ytick ticks crisp" d="M89,0h-5" transform="translate(0,574.31)" style="stroke: rgb(137, 135, 129); stroke-opacity: 1; stroke-width: 1px;"/><path class="ytick ticks crisp" d="M89,0h-5" transform="translate(0,537.61)" style="stroke: rgb(137, 135, 129); stroke-opacity: 1; stroke-width: 1px;"/><path class="ytick ticks crisp" d="M89,0h-5" transform="translate(0,500.91)" style="stroke: rgb(137, 135, 129); stroke-opacity: 1; stroke-width: 1px;"/><path class="ytick ticks crisp" d="M89,0h-5" transform="translate(0,464.2)" style="stroke: rgb(137, 135, 129); stroke-opacity: 1; stroke-width: 1px;"/><path class="ytick ticks crisp" d="M89,0h-5" transform="translate(0,427.5)" style="stroke: rgb(137, 135, 129); stroke-opacity: 1; stroke-width: 1px;"/><path class="ytick ticks crisp" d="M89,0h-5" transform="translate(0,390.8)" style="stroke: rgb(137, 135, 129); stroke-opacity: 1; stroke-width: 1px;"/><path class="ytick ticks crisp" d="M89,0h-5" transform="translate(0,354.09)" style="stroke: rgb(137, 135, 129); stroke-opacity: 1; stroke-width: 1px;"/><path class="ytick ticks crisp" d="M89,0h-5" transform="translate(0,317.39)" style="stroke: rgb(137, 135, 129); stroke-opacity: 1; stroke-width: 1px;"/><path class="ytick ticks crisp" d="M89,0h-5" transform="translate(0,280.69)" style="stroke: rgb(137, 135, 129); stroke-opacity: 1; stroke-width: 1px;"/><path class="ytick ticks crisp" d="M89,0h-5" transform="translate(0,243.98)" style="stroke: rgb(137, 135, 129); stroke-opacity: 1; stroke-width: 1px;"/><path class="ytick ticks crisp" d="M89,0h-5" transform="translate(0,207.28)" style="stroke: rgb(137, 135, 129); stroke-opacity: 1; stroke-width: 1px;"/><path class="ytick ticks crisp" d="M89,0h-5" transform="translate(0,170.57999999999998)" style="stroke: rgb(137, 135, 129); stroke-opacity: 1; stroke-width: 1px;"/><path class="ytick ticks crisp" d="M89,0h-5" transform="translate(0,133.88)" style="stroke: rgb(137, 135, 129); stroke-opacity: 1; stroke-width: 1px;"/><g class="ytick"><text text-anchor="end" x="81.8" y="3.8499999999999996" transform="translate(-10,721.13)" style="font-family: sans-serif; font-size: 11px; fill: rgb(11, 11, 11); fill-opacity: 1; white-space: pre;">F-A2</text></g><g class="ytick"><text text-anchor="end" x="81.8" y="3.8499999999999996" transform="translate(-10,684.42)" style="font-family: sans-serif; font-size: 11px; fill: rgb(11, 11, 11); fill-opacity: 1; white-space: pre;">F-B4</text></g><g class="ytick"><text text-anchor="end" x="81.8" y="3.8499999999999996" transform="translate(-10,647.72)" style="font-family: sans-serif; font-size: 11px; fill: rgb(11, 11, 11); fill-opacity: 1; white-space: pre;">F-C2</text></g><g class="ytick"><text text-anchor="end" x="81.8" y="3.8499999999999996" transform="translate(-10,611.02)" style="font-family: sans-serif; font-size: 11px; fill: rgb(11, 11, 11); fill-opacity: 1; white-space: pre;">B4_F</text></g><g class="ytick"><text text-anchor="end" x="81.8" y="3.8499999999999996" transform="translate(-10,574.31)" style="font-family: sans-serif; font-size: 11px; fill: rgb(11, 11, 11); fill-opacity: 1; white-space: pre;">F-A4</text></g><g class="ytick"><text text-anchor="end" x="81.8" y="3.8499999999999996" transform="translate(-10,537.61)" style="font-family: sans-serif; font-size: 11px; fill: rgb(11, 11, 11); fill-opacity: 1; white-space: pre;">F-B1</text></g><g class="ytick"><text text-anchor="end" x="81.8" y="3.8499999999999996" transform="translate(-10,500.91)" style="font-family: sans-serif; font-size: 11px; fill: rgb(11, 11, 11); fill-opacity: 1; white-space: pre;">F-B3</text></g><g class="ytick"><text text-anchor="end" x="81.8" y="3.8499999999999996" transform="translate(-10,464.2)" style="font-family: sans-serif; font-size: 11px; fill: rgb(11, 11, 11); fill-opacity: 1; white-space: pre;">F5_F</text></g><g class="ytick"><text text-anchor="end" x="81.8" y="3.8499999999999996" transform="translate(-10,427.5)" style="font-family: sans-serif; font-size: 11px; fill: rgb(11, 11, 11); fill-opacity: 1; white-space: pre;">E2_F</text></g><g class="ytick"><text text-anchor="end" x="81.8" y="3.8499999999999996" transform="translate(-10,390.8)" style="font-family: sans-serif; font-size: 11px; fill: rgb(11, 11, 11); fill-opacity: 1; white-space: pre;">F-C1</text></g><g class="ytick"><text text-anchor="end" x="81.8" y="3.8499999999999996" transform="translate(-10,354.09)" style="font-family: sans-serif; font-size: 11px; fill: rgb(11, 11, 11); fill-opacity: 1; white-space: pre;">F-B2</text></g><g class="ytick"><text text-anchor="end" x="81.8" y="3.8499999999999996" transform="translate(-10,317.39)" style="font-family: sans-serif; font-size: 11px; fill: rgb(11, 11, 11); fill-opacity: 1; white-space: pre;">F-A5</text></g><g class="ytick"><text text-anchor="end" x="81.8" y="3.8499999999999996" transform="translate(-10,280.69)" style="font-family: sans-serif; font-size: 11px; fill: rgb(11, 11, 11); fill-opacity: 1; white-space: pre;">F-A1</text></g><g class="ytick"><text text-anchor="end" x="81.8" y="3.8499999999999996" transform="translate(-10,243.98)" style="font-family: sans-serif; font-size: 11px; fill: rgb(11, 11, 11); fill-opacity: 1; white-space: pre;">F-A3</text></g><g class="ytick"><text text-anchor="end" x="81.8" y="3.8499999999999996" transform="translate(-10,207.28)" style="font-family: sans-serif; font-size: 11px; fill: rgb(11, 11, 11); fill-opacity: 1; white-space: pre;">F-C3</text></g><g class="ytick"><text text-anchor="end" x="81.8" y="3.8499999999999996" transform="translate(-10,170.57999999999998)" style="font-family: sans-serif; font-size: 11px; fill: rgb(11, 11, 11); fill-opacity: 1; white-space: pre;">F-C5</text></g><g class="ytick"><text text-anchor="end" x="81.8" y="3.8499999999999996" transform="translate(-10,133.88)" style="font-family: sans-serif; font-size: 11px; fill: rgb(11, 11, 11); fill-opacity: 1; white-space: pre;">F-B5</text></g></g><g class="overaxes-above"/></g></g><g class="polarlayer"/><g class="smithlayer"/><g class="ternarylayer"/><g class="geolayer"/><g class="funnelarealayer"/><g class="pielayer"/><g class="iciclelayer"/><g class="treemaplayer"/><g class="sunburstlayer"/><g class="glimages"/><defs id="topdefs-635ea3"><g class="clips"/><clipPath id="legend635ea3"><rect width="762" height="29" x="0" y="0"/></clipPath></defs><g class="layer-above"><g class="imagelayer"/><g class="shapelayer"><g class="shape-group" data-index="0" clip-path="url(#clip635ea3x)"><path data-index="0" fill-rule="evenodd" d="M90,760L90,95" style="opacity: 1; stroke: rgb(195, 194, 183); stroke-opacity: 1; fill: rgb(0, 0, 0); fill-opacity: 0; stroke-width: 1px;"/></g></g></g><g class="infolayer"><g class="legend" pointer-events="all" transform="translate(129,820)"><rect class="bg" shape-rendering="crispEdges" style="stroke: rgb(68, 68, 68); stroke-opacity: 1; fill: rgb(252, 252, 251); fill-opacity: 1; stroke-width: 0px;" width="762" height="29" x="0" y="0"/><g class="scrollbox" transform="" clip-path="url(#legend635ea3)"><g class="groups"><g class="traces" transform="translate(0,14.5)" style="opacity: 1;"><text class="legendtext" text-anchor="start" x="40" y="4.29" style="font-family: sans-serif; font-size: 11px; fill: rgb(82, 81, 78); fill-opacity: 1; white-space: pre;">Campaign 2 (Mean Of Per-Rep Original Objectives)</text><g class="layers" style="opacity: 1;"><g class="legendfill"/><g class="legendlines"/><g class="legendsymbols"><g class="legendpoints"><path class="legendundefined" d="M6,6H-6V-6H6Z" transform="translate(20,0)" style="stroke-width: 0px; fill: rgb(237, 161, 0); fill-opacity: 1;"/></g></g></g><rect class="legendtoggle" x="0" y="-9.5" width="294.1015625" height="19" style="fill: rgb(0, 0, 0); fill-opacity: 0;"/></g><g class="traces" transform="translate(296.6015625,14.5)" style="opacity: 1;"><text class="legendtext" text-anchor="start" x="40" y="4.29" style="font-family: sans-serif; font-size: 11px; fill: rgb(82, 81, 78); fill-opacity: 1; white-space: pre;">Campaign 1 Champion (Mean Of Per-Rep Original Objectives)</text><g class="layers" style="opacity: 1;"><g class="legendfill"/><g class="legendlines"/><g class="legendsymbols"><g class="legendpoints"><path class="legendundefined" d="M6,6H-6V-6H6Z" transform="translate(20,0)" style="stroke-width: 0px; fill: rgb(27, 175, 122); fill-opacity: 1;"/></g></g></g><rect class="legendtoggle" x="0" y="-9.5" width="347.296875" height="19" style="fill: rgb(0, 0, 0); fill-opacity: 0;"/></g><g class="traces" transform="translate(646.3984375,14.5)" style="opacity: 1;"><text class="legendtext" text-anchor="start" x="40" y="4.29" style="font-family: sans-serif; font-size: 11px; fill: rgb(82, 81, 78); fill-opacity: 1; white-space: pre;">Individual Rep</text><g class="layers" style="opacity: 1;"><g class="legendfill"/><g class="legendlines"/><g class="legendsymbols"><g class="legendpoints"><path class="scatterpts" transform="translate(20,0)" d="M4.5,0A4.5,4.5 0 1,1 0,-4.5A4.5,4.5 0 0,1 4.5,0Z" style="opacity: 0.7; stroke-width: 1.2px; fill: rgb(11, 11, 11); fill-opacity: 1; stroke: rgb(252, 252, 251); stroke-opacity: 1;"/></g></g></g><rect class="legendtoggle" x="0" y="-9.5" width="113.09375" height="19" style="fill: rgb(0, 0, 0); fill-opacity: 0;"/></g></g></g><rect class="scrollbar" rx="20" ry="3" width="0" height="0" style="fill: rgb(128, 139, 164); fill-opacity: 1;" x="0" y="0"/></g><g class="g-gtitle"><text class="gtitle" x="10" y="47.5" text-anchor="start" dy="0em" style="opacity: 1; font-family: sans-serif; font-size: 17px; fill: rgb(11, 11, 11); fill-opacity: 1; white-space: pre;"><tspan class="line" dy="0em" x="10" y="47.5"><tspan style="font-weight:bold">Feno — Under Campaign 1's Original Objective</tspan></tspan><tspan class="line" dy="1.3em" x="10" y="47.5"><tspan style="font-size:11px; fill:#898781">Physicochemical-Only (Size + PDI + |Zeta| + 10·Phase-Sep) — Each Repeat Scored, Objectives Then Averaged; Not Shown (Phase-Separated): F-C4</tspan></tspan></text></g><g class="g-xtitle"><text class="xtitle" x="510" y="801.1001953125" text-anchor="middle" style="opacity: 1; font-family: sans-serif; font-size: 12px; fill: rgb(82, 81, 78); fill-opacity: 1; white-space: pre;">Mean Original (Physicochem-Only) Objective Of Individually-Scored Repeats  (Lower Is Better)</text></g><g class="g-ytitle"/><g class="annotation" data-index="0" style="opacity: 1;"><g class="annotation-text-g" transform="rotate(0,128.1,133.88)"><g class="cursor-pointer" transform="translate(114,126)"><rect class="bg" x="0.5" y="0.5" width="28" height="14" style="stroke-width: 1px; stroke: rgb(0, 0, 0); stroke-opacity: 0; fill: rgb(0, 0, 0); fill-opacity: 0;"/><text class="annotation-text" text-anchor="middle" x="14.515625" y="11" style="font-family: sans-serif; font-size: 10px; fill: rgb(11, 11, 11); fill-opacity: 1; white-space: pre;">0.016</text></g></g></g><g class="annotation" data-index="1" style="opacity: 1;"><g class="annotation-text-g" transform="rotate(0,147.07999999999998,170.57999999999998)"><g class="cursor-pointer" transform="translate(133,163)"><rect class="bg" x="0.5" y="0.5" width="28" height="14" style="stroke-width: 1px; stroke: rgb(0, 0, 0); stroke-opacity: 0; fill: rgb(0, 0, 0); fill-opacity: 0;"/><text class="annotation-text" text-anchor="middle" x="14.515625" y="11" style="font-family: sans-serif; font-size: 10px; fill: rgb(11, 11, 11); fill-opacity: 1; white-space: pre;">0.031</text></g></g></g><g class="annotation" data-index="2" style="opacity: 1;"><g class="annotation-text-g" transform="rotate(0,154.8,207.28)"><g class="cursor-pointer" transform="translate(140,200)"><rect class="bg" x="0.5" y="0.5" width="28" height="14" style="stroke-width: 1px; stroke: rgb(0, 0, 0); stroke-opacity: 0; fill: rgb(0, 0, 0); fill-opacity: 0;"/><text class="annotation-text" text-anchor="middle" x="14.515625" y="11" style="font-family: sans-serif; font-size: 10px; fill: rgb(11, 11, 11); fill-opacity: 1; white-space: pre;">0.033</text></g></g></g><g class="annotation" data-index="3" style="opacity: 1;"><g class="annotation-text-g" transform="rotate(0,158,243.98)"><g class="cursor-pointer" transform="translate(144,236)"><rect class="bg" x="0.5" y="0.5" width="28" height="14" style="stroke-width: 1px; stroke: rgb(0, 0, 0); stroke-opacity: 0; fill: rgb(0, 0, 0); fill-opacity: 0;"/><text class="annotation-text" text-anchor="middle" x="14.515625" y="11" style="font-family: sans-serif; font-size: 10px; fill: rgb(11, 11, 11); fill-opacity: 1; white-space: pre;">0.042</text></g></g></g><g class="annotation" data-index="4" style="opacity: 1;"><g class="annotation-text-g" transform="rotate(0,169.36,280.69)"><g class="cursor-pointer" transform="translate(155,273)"><rect class="bg" x="0.5" y="0.5" width="28" height="14" style="stroke-width: 1px; stroke: rgb(0, 0, 0); stroke-opacity: 0; fill: rgb(0, 0, 0); fill-opacity: 0;"/><text class="annotation-text" text-anchor="middle" x="14.515625" y="11" style="font-family: sans-serif; font-size: 10px; fill: rgb(11, 11, 11); fill-opacity: 1; white-space: pre;">0.046</text></g></g></g><g class="annotation" data-index="5" style="opacity: 1;"><g class="annotation-text-g" transform="rotate(0,165.11,317.39)"><g class="cursor-pointer" transform="translate(151,310)"><rect class="bg" x="0.5" y="0.5" width="28" height="14" style="stroke-width: 1px; stroke: rgb(0, 0, 0); stroke-opacity: 0; fill: rgb(0, 0, 0); fill-opacity: 0;"/><text class="annotation-text" text-anchor="middle" x="14.515625" y="11" style="font-family: sans-serif; font-size: 10px; fill: rgb(11, 11, 11); fill-opacity: 1; white-space: pre;">0.049</text></g></g></g><g class="annotation" data-index="6" style="opacity: 1;"><g class="annotation-text-g" transform="rotate(0,172.05,354.09)"><g class="cursor-pointer" transform="translate(158,347)"><rect class="bg" x="0.5" y="0.5" width="28" height="14" style="stroke-width: 1px; stroke: rgb(0, 0, 0); stroke-opacity: 0; fill: rgb(0, 0, 0); fill-opacity: 0;"/><text class="annotation-text" text-anchor="middle" x="14.515625" y="11" style="font-family: sans-serif; font-size: 10px; fill: rgb(11, 11, 11); fill-opacity: 1; white-space: pre;">0.049</text></g></g></g><g class="annotation" data-index="7" style="opacity: 1;"><g class="annotation-text-g" transform="rotate(0,172.31,390.8)"><g class="cursor-pointer" transform="translate(158,383)"><rect class="bg" x="0.5" y="0.5" width="28" height="14" style="stroke-width: 1px; stroke: rgb(0, 0, 0); stroke-opacity: 0; fill: rgb(0, 0, 0); fill-opacity: 0;"/><text class="annotation-text" text-anchor="middle" x="14.515625" y="11" style="font-family: sans-serif; font-size: 10px; fill: rgb(11, 11, 11); fill-opacity: 1; white-space: pre;">0.056</text></g></g></g><g class="annotation" data-index="8" style="opacity: 1;"><g class="annotation-text-g" transform="rotate(0,177.85,427.5)"><g class="cursor-pointer" transform="translate(163,420)"><rect class="bg" x="0.5" y="0.5" width="28" height="14" style="stroke-width: 1px; stroke: rgb(0, 0, 0); stroke-opacity: 0; fill: rgb(0, 0, 0); fill-opacity: 0;"/><text class="annotation-text" text-anchor="middle" x="14.515625" y="11" style="font-family: sans-serif; font-size: 10px; fill: rgb(11, 11, 11); fill-opacity: 1; white-space: pre;">0.056</text></g></g></g><g class="annotation" data-index="9" style="opacity: 1;"><g class="annotation-text-g" transform="rotate(0,727.7,464.2)"><g class="cursor-pointer" transform="translate(713,457)"><rect class="bg" x="0.5" y="0.5" width="28" height="14" style="stroke-width: 1px; stroke: rgb(0, 0, 0); stroke-opacity: 0; fill: rgb(0, 0, 0); fill-opacity: 0;"/><text class="annotation-text" text-anchor="middle" x="14.515625" y="11" style="font-family: sans-serif; font-size: 10px; fill: rgb(11, 11, 11); fill-opacity: 1; white-space: pre;">0.228</text></g></g></g><g class="annotation" data-index="10" style="opacity: 1;"><g class="annotation-text-g" transform="rotate(0,518.27,500.91)"><g class="cursor-pointer" transform="translate(504,493)"><rect class="bg" x="0.5" y="0.5" width="28" height="14" style="stroke-width: 1px; stroke: rgb(0, 0, 0); stroke-opacity: 0; fill: rgb(0, 0, 0); fill-opacity: 0;"/><text class="annotation-text" text-anchor="middle" x="14.515625" y="11" style="font-family: sans-serif; font-size: 10px; fill: rgb(11, 11, 11); fill-opacity: 1; white-space: pre;">0.256</text></g></g></g><g class="annotation" data-index="11" style="opacity: 1;"><g class="annotation-text-g" transform="rotate(0,480.47,537.61)"><g class="cursor-pointer" transform="translate(466,530)"><rect class="bg" x="0.5" y="0.5" width="28" height="14" style="stroke-width: 1px; stroke: rgb(0, 0, 0); stroke-opacity: 0; fill: rgb(0, 0, 0); fill-opacity: 0;"/><text class="annotation-text" text-anchor="middle" x="14.515625" y="11" style="font-family: sans-serif; font-size: 10px; fill: rgb(11, 11, 11); fill-opacity: 1; white-space: pre;">0.336</text></g></g></g><g class="annotation" data-index="12" style="opacity: 1;"><g class="annotation-text-g" transform="rotate(0,555.5699999999999,574.31)"><g class="cursor-pointer" transform="translate(541,567)"><rect class="bg" x="0.5" y="0.5" width="28" height="14" style="stroke-width: 1px; stroke: rgb(0, 0, 0); stroke-opacity: 0; fill: rgb(0, 0, 0); fill-opacity: 0;"/><text class="annotation-text" text-anchor="middle" x="14.515625" y="11" style="font-family: sans-serif; font-size: 10px; fill: rgb(11, 11, 11); fill-opacity: 1; white-space: pre;">0.395</text></g></g></g><g class="annotation" data-index="13" style="opacity: 1;"><g class="annotation-text-g" transform="rotate(0,708.01,611.02)"><g class="cursor-pointer" transform="translate(694,604)"><rect class="bg" x="0.5" y="0.5" width="28" height="14" style="stroke-width: 1px; stroke: rgb(0, 0, 0); stroke-opacity: 0; fill: rgb(0, 0, 0); fill-opacity: 0;"/><text class="annotation-text" text-anchor="middle" x="14.515625" y="11" style="font-family: sans-serif; font-size: 10px; fill: rgb(11, 11, 11); fill-opacity: 1; white-space: pre;">0.410</text></g></g></g><g class="annotation" data-index="14" style="opacity: 1;"><g class="annotation-text-g" transform="rotate(0,707.24,647.72)"><g class="cursor-pointer" transform="translate(693,640)"><rect class="bg" x="0.5" y="0.5" width="28" height="14" style="stroke-width: 1px; stroke: rgb(0, 0, 0); stroke-opacity: 0; fill: rgb(0, 0, 0); fill-opacity: 0;"/><text class="annotation-text" text-anchor="middle" x="14.515625" y="11" style="font-family: sans-serif; font-size: 10px; fill: rgb(11, 11, 11); fill-opacity: 1; white-space: pre;">0.417</text></g></g></g><g class="annotation" data-index="15" style="opacity: 1;"><g class="annotation-text-g" transform="rotate(0,709.9,684.42)"><g class="cursor-pointer" transform="translate(695,677)"><rect class="bg" x="0.5" y="0.5" width="28" height="14" style="stroke-width: 1px; stroke: rgb(0, 0, 0); stroke-opacity: 0; fill: rgb(0, 0, 0); fill-opacity: 0;"/><text class="annotation-text" text-anchor="middle" x="14.515625" y="11" style="font-family: sans-serif; font-size: 10px; fill: rgb(11, 11, 11); fill-opacity: 1; white-space: pre;">0.459</text></g></g></g><g class="annotation" data-index="16" style="opacity: 1;"><g class="annotation-text-g" transform="rotate(0,860.5,721.13)"><g class="cursor-pointer" transform="translate(846,714)"><rect class="bg" x="0.5" y="0.5" width="28" height="14" style="stroke-width: 1px; stroke: rgb(0, 0, 0); stroke-opacity: 0; fill: rgb(0, 0, 0); fill-opacity: 0;"/><text class="annotation-text" text-anchor="middle" x="14.515625" y="11" style="font-family: sans-serif; font-size: 10px; fill: rgb(11, 11, 11); fill-opacity: 1; white-space: pre;">0.630</text></g></g></g></g></svg>